<svg id="Layer_1" xmlns="http://www.w3.org/2000/svg" xmlns:xlink="http://www.w3.org/1999/xlink" viewBox="0 0 1172.85 609.09"><style>.st0{opacity:.3;enable-background:new}.st0,.st1{fill:#2c0155}.st4{fill:#510097}.st7{fill:none}.st14{fill:#a7744d}.st25{fill:none;stroke:#2c0155;stroke-width:.1;stroke-miterlimit:10}.st34{opacity:.94;fill:#2c0155;enable-background:new}</style><g id="Layer_2_1_"><g id="Layer_1-2"><path class="st0" d="M972.65 292.52l200.2 7.833V163.097l-137.81 44.673z"/><path class="st1" d="M971 285.7c-.735.833-1.404 1.722-2 2.66-.91 1.43-1.06 2.05-.66 2.71.538.708 1.311 1.201 2.18 1.39.42.06 1.2 0 1.07-.14s.08 0 .26 0l.74.16.43.08.57-.57c1.408-1.458 2.68-3.041 3.8-4.73l-4.75-3.2c-.653.429-1.211.987-1.64 1.64zM1035.64 206.49s-.44.42-.92.93-1.4 1.39-2.06 2c-1.5 1.33-1.43 1.27-1.27 1.05.3-.39 0-.76-.55-.59-.728.343-1.402.791-2 1.33-1.09.89-5.42 4.76-5.6 5l-.43.41c-.94.85-5.4 6.18-10 11.92-.66.82-1.34 1.68-1.51 1.9-.45.55-2.66 3.37-3.68 4.69l-1.37 1.78c-1 1.32-4.43 5.81-7.5 9.91-.75 1-8.38 11.36-10 13.57l-2.28 3.12c-4.11 5.63-4.63 6.31-5.25 6.9-1.068.971-1.943 2.135-2.58 3.43-.455.932-1.012 1.811-1.66 2.62-2.51 3.37-3.4 4.6-3.62 5-.219.486-.268 1.032-.14 1.55l.3.22 4.52 3.15h.24c.11 0 .18.08.34-.13 2.17-2.83 4.2-5.46 4.27-5.53s.09 0 .12.18.06.28.29.39.49.13 1.14-.17c1.154-.542 2.217-1.261 3.15-2.13.253-.233.527-.441.82-.62.599-.23 1.172-.521 1.71-.87.534-.457.979-1.01 1.31-1.63.24-.41 1-1.64 1.73-2.74l3.73-5.75c5.1-7.87 5.17-8 5.14-8.15-.062-.231-.247-.408-.48-.46-.225.017-.449.05-.67.1-.295.073-.596.116-.9.13-.28 0-.41 0-.49.11.61-.931 1.278-1.823 2-2.67 8.38-11 18-23.89 23.38-31.32 1.32-1.83 2.23-3.08 2.93-4s.92-1.29.86-1.37 1-2.05 2.73-5.44c2.65-5.11 2.83-5.43 3.65-6.56.61-.86.83-1.21.76-1.24-.05-.023-.106-.03-.16-.02zm-37.21 54.83c.088.683-.019 1.376-.31 2-.314.721-.728 1.394-1.23 2-1 1.36-2.61 3.63-2.85 3.95l-.44.61-.37.51-1.54 2.07c-.81 1.1-1.62 2.13-1.79 2.29-.251.215-.523.406-.81.57-.778.322-1.465.83-2 1.48-.296.375-.566.769-.81 1.18-.39.719-.864 1.391-1.41 2l-.44.46c-.05.06-.08.06-.11 0 .039-.216.117-.422.23-.61.617-1.146 1.326-2.239 2.12-3.27 1.85-2.53 1.75-2.36 1.66-2.59s0-.27.82-1.36c.48-.64 2.69-3.51 4.9-6.4 4.83-6.28 4.46-5.82 4.37-5.61-.049.238-.046.484.01.72z"/><path class="st0" d="M602.87 447.06l61.545 162.03h508.435V141.866L936 261z"/><linearGradient id="SVGID_1_" gradientUnits="userSpaceOnUse" x1="573.3881" y1="391.71" x2="964.6015" y2="391.71" gradientTransform="matrix(1 0 0 -1 0 612)"><stop offset="0" stop-color="#22006a"/><stop offset="1" stop-color="#8600d4"/></linearGradient><path d="M955 173H583.14c-8.29 0-12.5 9.55-7.78 20.5l27.13 59.39.06.14c3.51 8.16 11.76 14.55 18.56 14.55H925.5c6.79 0 14.47-6.39 17.25-14.55l14-41.1 6.38-18.74c.12-.36.24-.73.35-1.09 3.13-10.48-.48-19.1-8.48-19.1zm-369.89 26c-3.12-7.2.61-13.21 8.43-13.21H944.1c7.82 0 12.09 6 9.61 13.22l-14.13 41.1c-2 5.84-9.1 10.46-15.88 10.46H619.77c-6.78 0-14.29-4.62-16.82-10.46L585.11 199z" fill="url(#SVGID_1_)"/><linearGradient id="SVGID_2_" gradientUnits="userSpaceOnUse" x1="574.8434" y1="390" x2="963.7916" y2="390" gradientTransform="matrix(1 0 0 -1 0 612)"><stop offset="0" stop-color="#9500a1"/><stop offset="1" stop-color="#510097"/></linearGradient><path d="M954.21 177.38H583.5c-8.27 0-11.06 8.71-6.42 19l25.41 56.49c3.47 7.71 11.68 13.75 18.46 13.75h303.83c6.78 0 14.45-6 17.22-13.75l14.75-41 5.58-15.52c.513-1.399.898-2.842 1.15-4.31 1.44-8.29-2.19-14.66-9.27-14.66zm-.5 21.59l-14.13 41.1c-2 5.84-9.1 10.46-15.88 10.46H619.77c-6.78 0-14.29-4.62-16.82-10.46L585.11 199c-3.12-7.2.61-13.21 8.43-13.21H944.1c7.82-.04 12.09 5.97 9.61 13.21v-.03z" opacity=".94" fill="url(#SVGID_2_)" stroke="#000" stroke-width=".25" stroke-miterlimit="10"/><path class="st4" d="M937 452.49H613.4c-7 0-11.67-4.41-11.67-9.84v-171.8c.136-5.575 4.765-9.984 10.34-9.85h323.6c5.571-.134 10.196 4.273 10.33 9.844V442.65c0 5.43-4.63 9.84-9 9.84z"/><linearGradient id="SVGID_3_" gradientUnits="userSpaceOnUse" x1="723.7" y1="198.085" x2="825.72" y2="198.085" gradientTransform="matrix(1 0 0 -1 0 612)"><stop offset=".23" stop-color="#c555ff"/><stop offset="1" stop-color="#e900fd"/></linearGradient><path d="M732.8 384.07h83.82c5.026 0 9.1 4.074 9.1 9.1v41.49c0 5.026-4.074 9.1-9.1 9.1H732.8c-5.026 0-9.1-4.074-9.1-9.1v-41.49c0-5.026 4.074-9.1 9.1-9.1z" fill="url(#SVGID_3_)"/><linearGradient id="SVGID_4_" gradientUnits="userSpaceOnUse" x1="645.13" y1="285.04" x2="905.41" y2="285.04" gradientTransform="matrix(1 0 0 -1 0 612)"><stop offset=".14" stop-color="#f597fd"/><stop offset="1" stop-color="#e900fd"/></linearGradient><path d="M658.74 283.16H891.8c7.517 0 13.61 6.093 13.61 13.61v60.38c0 7.517-6.093 13.61-13.61 13.61H658.74c-7.517 0-13.61-6.093-13.61-13.61v-60.38c0-7.517 6.093-13.61 13.61-13.61z" fill="url(#SVGID_4_)"/><path class="st4" d="M885.37 286.66h11.35c1.281 0 2.32 1.039 2.32 2.32v1.94c0 1.281-1.039 2.32-2.32 2.32h-11.35c-1.281 0-2.32-1.039-2.32-2.32v-1.94c0-1.281 1.039-2.32 2.32-2.32zM867.45 286.66h11.35c1.281 0 2.32 1.039 2.32 2.32v1.94c0 1.281-1.039 2.32-2.32 2.32h-11.35c-1.281 0-2.32-1.039-2.32-2.32v-1.94c0-1.281 1.039-2.32 2.32-2.32zM849.52 286.66h11.35c1.281 0 2.32 1.039 2.32 2.32v1.94c0 1.281-1.039 2.32-2.32 2.32h-11.35c-1.281 0-2.32-1.039-2.32-2.32v-1.94c0-1.281 1.039-2.32 2.32-2.32zM831.6 286.66h11.35c1.281 0 2.32 1.039 2.32 2.32v1.94c0 1.281-1.039 2.32-2.32 2.32H831.6c-1.281 0-2.32-1.039-2.32-2.32v-1.94c0-1.281 1.039-2.32 2.32-2.32zM813.68 286.66h11.35c1.281 0 2.32 1.039 2.32 2.32v1.94c0 1.281-1.039 2.32-2.32 2.32h-11.35c-1.281 0-2.32-1.039-2.32-2.32v-1.94c0-1.281 1.039-2.32 2.32-2.32zM795.75 286.66h11.35c1.281 0 2.32 1.039 2.32 2.32v1.94c0 1.281-1.039 2.32-2.32 2.32h-11.35c-1.281 0-2.32-1.039-2.32-2.32v-1.94c0-1.281 1.039-2.32 2.32-2.32zM777.83 286.66h11.35c1.281 0 2.32 1.039 2.32 2.32v1.94c0 1.281-1.039 2.32-2.32 2.32h-11.35c-1.281 0-2.32-1.039-2.32-2.32v-1.94c0-1.281 1.039-2.32 2.32-2.32zM759.9 286.66h11.35c1.281 0 2.32 1.039 2.32 2.32v1.94c0 1.281-1.039 2.32-2.32 2.32H759.9c-1.281 0-2.32-1.039-2.32-2.32v-1.94c0-1.281 1.039-2.32 2.32-2.32zM741.98 286.66h11.35c1.281 0 2.32 1.039 2.32 2.32v1.94c0 1.281-1.039 2.32-2.32 2.32h-11.35c-1.281 0-2.32-1.039-2.32-2.32v-1.94c0-1.281 1.039-2.32 2.32-2.32zM724.06 286.66h11.35c1.281 0 2.32 1.039 2.32 2.32v1.94c0 1.281-1.039 2.32-2.32 2.32h-11.35c-1.281 0-2.32-1.039-2.32-2.32v-1.94c0-1.281 1.039-2.32 2.32-2.32zM706.13 286.66h11.35c1.281 0 2.32 1.039 2.32 2.32v1.94c0 1.281-1.039 2.32-2.32 2.32h-11.35c-1.281 0-2.32-1.039-2.32-2.32v-1.94c0-1.281 1.039-2.32 2.32-2.32zM688.21 286.66h11.35c1.281 0 2.32 1.039 2.32 2.32v1.94c0 1.281-1.039 2.32-2.32 2.32h-11.35c-1.281 0-2.32-1.039-2.32-2.32v-1.94c0-1.281 1.039-2.32 2.32-2.32zM670.28 286.66h11.35c1.281 0 2.32 1.039 2.32 2.32v1.94c0 1.281-1.039 2.32-2.32 2.32h-11.35c-1.281 0-2.32-1.039-2.32-2.32v-1.94c0-1.281 1.039-2.32 2.32-2.32zM652.36 286.66h11.35c1.281 0 2.32 1.039 2.32 2.32v1.94c0 1.281-1.039 2.32-2.32 2.32h-11.35c-1.281 0-2.32-1.039-2.32-2.32v-1.94c0-1.281 1.039-2.32 2.32-2.32zM652.43 354.69h11.21c1.32 0 2.39 1.07 2.39 2.39v7.22c0 1.32-1.07 2.39-2.39 2.39h-11.21c-1.32 0-2.39-1.07-2.39-2.39v-7.22c0-1.32 1.07-2.39 2.39-2.39zM876.57 325.31h20.11c1.298 0 2.35 1.052 2.35 2.35v7.3c0 1.298-1.052 2.35-2.35 2.35h-20.11c-1.298 0-2.35-1.052-2.35-2.35v-7.3c0-1.298 1.052-2.35 2.35-2.35zM865.98 340h30.92c1.32 0 2.39 1.07 2.39 2.39v7.22c0 1.32-1.07 2.39-2.39 2.39h-30.92c-1.32 0-2.39-1.07-2.39-2.39v-7.22c0-1.32 1.07-2.39 2.39-2.39zM652.43 340h33.66c1.32 0 2.39 1.07 2.39 2.39v7.22c0 1.32-1.07 2.39-2.39 2.39h-33.66c-1.32 0-2.39-1.07-2.39-2.39v-7.22c0-1.32 1.07-2.39 2.39-2.39zM652.39 325.31h27.77c1.298 0 2.35 1.052 2.35 2.35v7.3c0 1.298-1.052 2.35-2.35 2.35h-27.77c-1.298 0-2.35-1.052-2.35-2.35v-7.3c0-1.298 1.052-2.35 2.35-2.35zM652.43 310.62h20.03c1.32 0 2.39 1.07 2.39 2.39v7.22c0 1.32-1.07 2.39-2.39 2.39h-20.03c-1.32 0-2.39-1.07-2.39-2.39v-7.22c0-1.32 1.07-2.39 2.39-2.39zM814.1 354.5h15.1c1.32 0 2.39 1.07 2.39 2.39v7.22c0 1.32-1.07 2.39-2.39 2.39h-15.1c-1.32 0-2.39-1.07-2.39-2.39v-7.22c0-1.32 1.07-2.39 2.39-2.39zM706.38 354.69h15.1c1.32 0 2.39 1.07 2.39 2.39v7.22c0 1.32-1.07 2.39-2.39 2.39h-15.1c-1.32 0-2.39-1.07-2.39-2.39v-7.22c0-1.32 1.07-2.39 2.39-2.39zM687.93 354.69h11.21c1.32 0 2.39 1.07 2.39 2.39v7.22c0 1.32-1.07 2.39-2.39 2.39h-11.21c-1.32 0-2.39-1.07-2.39-2.39v-7.22c0-1.32 1.07-2.39 2.39-2.39zM670.35 354.69h11.21c1.32 0 2.39 1.07 2.39 2.39v7.22c0 1.32-1.07 2.39-2.39 2.39h-11.21c-1.32 0-2.39-1.07-2.39-2.39v-7.22c0-1.32 1.07-2.39 2.39-2.39zM875.47 296.02h21.22c1.298 0 2.35 1.052 2.35 2.35v7.11c0 1.298-1.052 2.35-2.35 2.35h-21.22c-1.298 0-2.35-1.052-2.35-2.35v-7.11c0-1.298 1.052-2.35 2.35-2.35zM886.12 310.87h10.52c1.32 0 2.39 1.07 2.39 2.39v6.71c0 1.32-1.07 2.39-2.39 2.39h-10.52c-1.32 0-2.39-1.07-2.39-2.39v-6.71c0-1.32 1.07-2.39 2.39-2.39zM868.96 310.87h10.52c1.32 0 2.39 1.07 2.39 2.39v6.71c0 1.32-1.07 2.39-2.39 2.39h-10.52c-1.32 0-2.39-1.07-2.39-2.39v-6.71c0-1.32 1.07-2.39 2.39-2.39zM858.32 325.44h10.6c1.298 0 2.35 1.052 2.35 2.35v6.79c0 1.298-1.052 2.35-2.35 2.35h-10.6c-1.298 0-2.35-1.052-2.35-2.35v-6.79c0-1.298 1.052-2.35 2.35-2.35zM886.09 361.31h10.56c1.32 0 2.39 1.068 2.39 2.385 0 1.317-1.07 2.385-2.39 2.385h-10.56c-1.32 0-2.39-1.068-2.39-2.385 0-1.317 1.07-2.385 2.39-2.385zM869.42 355.73h10.56c1.32 0 2.39 1.068 2.39 2.385 0 1.317-1.07 2.385-2.39 2.385h-10.56c-1.32 0-2.39-1.068-2.39-2.385 0-1.317 1.07-2.385 2.39-2.385zM869.42 361.31h10.56c1.32 0 2.39 1.068 2.39 2.385 0 1.317-1.07 2.385-2.39 2.385h-10.56c-1.32 0-2.39-1.068-2.39-2.385 0-1.317 1.07-2.385 2.39-2.385zM852.7 361.31h10.56c1.32 0 2.39 1.068 2.39 2.385 0 1.317-1.07 2.385-2.39 2.385H852.7c-1.32 0-2.39-1.068-2.39-2.385 0-1.317 1.07-2.385 2.39-2.385zM848.11 340.26h10.52c1.32 0 2.39 1.07 2.39 2.39v6.71c0 1.32-1.07 2.39-2.39 2.39h-10.52c-1.32 0-2.39-1.07-2.39-2.39v-6.71c0-1.32 1.07-2.39 2.39-2.39zM835.68 354.76h10.52c1.32 0 2.39 1.07 2.39 2.39v6.71c0 1.32-1.07 2.39-2.39 2.39h-10.52c-1.32 0-2.39-1.07-2.39-2.39v-6.71c0-1.32 1.07-2.39 2.39-2.39zM830.95 340.26h10.52c1.32 0 2.39 1.07 2.39 2.39v6.71c0 1.32-1.07 2.39-2.39 2.39h-10.52c-1.32 0-2.39-1.07-2.39-2.39v-6.71c0-1.32 1.07-2.39 2.39-2.39zM813.79 340.26h10.52c1.32 0 2.39 1.07 2.39 2.39v6.71c0 1.32-1.07 2.39-2.39 2.39h-10.52c-1.32 0-2.39-1.07-2.39-2.39v-6.71c0-1.32 1.07-2.39 2.39-2.39zM796.63 340.26h10.52c1.32 0 2.39 1.07 2.39 2.39v6.71c0 1.32-1.07 2.39-2.39 2.39h-10.52c-1.32 0-2.39-1.07-2.39-2.39v-6.71c0-1.32 1.07-2.39 2.39-2.39zM779.47 340.26h10.52c1.32 0 2.39 1.07 2.39 2.39v6.71c0 1.32-1.07 2.39-2.39 2.39h-10.52c-1.32 0-2.39-1.07-2.39-2.39v-6.71c0-1.32 1.07-2.39 2.39-2.39zM762.31 340.26h10.52c1.32 0 2.39 1.07 2.39 2.39v6.71c0 1.32-1.07 2.39-2.39 2.39h-10.52c-1.32 0-2.39-1.07-2.39-2.39v-6.71c0-1.32 1.07-2.39 2.39-2.39zM745.15 340.26h10.52c1.32 0 2.39 1.07 2.39 2.39v6.71c0 1.32-1.07 2.39-2.39 2.39h-10.52c-1.32 0-2.39-1.07-2.39-2.39v-6.71c0-1.32 1.07-2.39 2.39-2.39zM728.72 354.76h78.3c1.32 0 2.39 1.07 2.39 2.39v6.71c0 1.32-1.07 2.39-2.39 2.39h-78.3c-1.32 0-2.39-1.07-2.39-2.39v-6.71c0-1.32 1.07-2.39 2.39-2.39zM727.99 340.26h10.52c1.32 0 2.39 1.07 2.39 2.39v6.71c0 1.32-1.07 2.39-2.39 2.39h-10.52c-1.32 0-2.39-1.07-2.39-2.39v-6.71c0-1.32 1.07-2.39 2.39-2.39zM710.83 340.26h10.52c1.32 0 2.39 1.07 2.39 2.39v6.71c0 1.32-1.07 2.39-2.39 2.39h-10.52c-1.32 0-2.39-1.07-2.39-2.39v-6.71c0-1.32 1.07-2.39 2.39-2.39zM693.67 340.26h10.52c1.32 0 2.39 1.07 2.39 2.39v6.71c0 1.32-1.07 2.39-2.39 2.39h-10.52c-1.32 0-2.39-1.07-2.39-2.39v-6.71c0-1.32 1.07-2.39 2.39-2.39zM841.16 325.44h10.6c1.298 0 2.35 1.052 2.35 2.35v6.79c0 1.298-1.052 2.35-2.35 2.35h-10.6c-1.298 0-2.35-1.052-2.35-2.35v-6.79c0-1.298 1.052-2.35 2.35-2.35zM824 325.44h10.6c1.298 0 2.35 1.052 2.35 2.35v6.79c0 1.298-1.052 2.35-2.35 2.35H824c-1.298 0-2.35-1.052-2.35-2.35v-6.79c0-1.298 1.052-2.35 2.35-2.35zM806.84 325.44h10.6c1.298 0 2.35 1.052 2.35 2.35v6.79c0 1.298-1.052 2.35-2.35 2.35h-10.6c-1.298 0-2.35-1.052-2.35-2.35v-6.79c0-1.298 1.052-2.35 2.35-2.35zM789.68 325.44h10.6c1.298 0 2.35 1.052 2.35 2.35v6.79c0 1.298-1.052 2.35-2.35 2.35h-10.6c-1.298 0-2.35-1.052-2.35-2.35v-6.79c0-1.298 1.052-2.35 2.35-2.35zM772.51 325.44h10.6c1.298 0 2.35 1.052 2.35 2.35v6.79c0 1.298-1.052 2.35-2.35 2.35h-10.6c-1.298 0-2.35-1.052-2.35-2.35v-6.79c0-1.298 1.052-2.35 2.35-2.35zM755.35 325.44h10.6c1.298 0 2.35 1.052 2.35 2.35v6.79c0 1.298-1.052 2.35-2.35 2.35h-10.6c-1.298 0-2.35-1.052-2.35-2.35v-6.79c0-1.298 1.052-2.35 2.35-2.35zM738.19 325.44h10.6c1.298 0 2.35 1.052 2.35 2.35v6.79c0 1.298-1.052 2.35-2.35 2.35h-10.6c-1.298 0-2.35-1.052-2.35-2.35v-6.79c0-1.298 1.052-2.35 2.35-2.35zM721.03 325.44h10.6c1.298 0 2.35 1.052 2.35 2.35v6.79c0 1.298-1.052 2.35-2.35 2.35h-10.6c-1.298 0-2.35-1.052-2.35-2.35v-6.79c0-1.298 1.052-2.35 2.35-2.35zM703.87 325.44h10.6c1.298 0 2.35 1.052 2.35 2.35v6.79c0 1.298-1.052 2.35-2.35 2.35h-10.6c-1.298 0-2.35-1.052-2.35-2.35v-6.79c0-1.298 1.052-2.35 2.35-2.35zM686.71 325.44h10.6c1.298 0 2.35 1.052 2.35 2.35v6.79c0 1.298-1.052 2.35-2.35 2.35h-10.6c-1.298 0-2.35-1.052-2.35-2.35v-6.79c0-1.298 1.052-2.35 2.35-2.35zM851.8 310.87h10.52c1.32 0 2.39 1.07 2.39 2.39v6.71c0 1.32-1.07 2.39-2.39 2.39H851.8c-1.32 0-2.39-1.07-2.39-2.39v-6.71c0-1.32 1.07-2.39 2.39-2.39zM834.64 310.87h10.52c1.32 0 2.39 1.07 2.39 2.39v6.71c0 1.32-1.07 2.39-2.39 2.39h-10.52c-1.32 0-2.39-1.07-2.39-2.39v-6.71c0-1.32 1.07-2.39 2.39-2.39zM817.48 310.87H828c1.32 0 2.39 1.07 2.39 2.39v6.71c0 1.32-1.07 2.39-2.39 2.39h-10.52c-1.32 0-2.39-1.07-2.39-2.39v-6.71c0-1.32 1.07-2.39 2.39-2.39zM800.32 310.87h10.52c1.32 0 2.39 1.07 2.39 2.39v6.71c0 1.32-1.07 2.39-2.39 2.39h-10.52c-1.32 0-2.39-1.07-2.39-2.39v-6.71c0-1.32 1.07-2.39 2.39-2.39zM783.16 310.87h10.52c1.32 0 2.39 1.07 2.39 2.39v6.71c0 1.32-1.07 2.39-2.39 2.39h-10.52c-1.32 0-2.39-1.07-2.39-2.39v-6.71c0-1.32 1.07-2.39 2.39-2.39zM766 310.87h10.52c1.32 0 2.39 1.07 2.39 2.39v6.71c0 1.32-1.07 2.39-2.39 2.39H766c-1.32 0-2.39-1.07-2.39-2.39v-6.71c0-1.32 1.07-2.39 2.39-2.39zM748.84 310.87h10.52c1.32 0 2.39 1.07 2.39 2.39v6.71c0 1.32-1.07 2.39-2.39 2.39h-10.52c-1.32 0-2.39-1.07-2.39-2.39v-6.71c0-1.32 1.07-2.39 2.39-2.39zM731.68 310.87h10.52c1.32 0 2.39 1.07 2.39 2.39v6.71c0 1.32-1.07 2.39-2.39 2.39h-10.52c-1.32 0-2.39-1.07-2.39-2.39v-6.71c0-1.32 1.07-2.39 2.39-2.39zM714.52 310.87h10.52c1.32 0 2.39 1.07 2.39 2.39v6.71c0 1.32-1.07 2.39-2.39 2.39h-10.52c-1.32 0-2.39-1.07-2.39-2.39v-6.71c0-1.32 1.07-2.39 2.39-2.39zM697.35 310.87h10.52c1.32 0 2.39 1.07 2.39 2.39v6.71c0 1.32-1.07 2.39-2.39 2.39h-10.52c-1.32 0-2.39-1.07-2.39-2.39v-6.71c0-1.32 1.07-2.39 2.39-2.39zM680.19 310.87h10.52c1.32 0 2.39 1.07 2.39 2.39v6.71c0 1.32-1.07 2.39-2.39 2.39h-10.52c-1.32 0-2.39-1.07-2.39-2.39v-6.71c0-1.32 1.07-2.39 2.39-2.39zM858.32 296.18h10.6c1.298 0 2.35 1.052 2.35 2.35v6.79c0 1.298-1.052 2.35-2.35 2.35h-10.6c-1.298 0-2.35-1.052-2.35-2.35v-6.79c0-1.298 1.052-2.35 2.35-2.35zM841.16 296.18h10.6c1.298 0 2.35 1.052 2.35 2.35v6.79c0 1.298-1.052 2.35-2.35 2.35h-10.6c-1.298 0-2.35-1.052-2.35-2.35v-6.79c0-1.298 1.052-2.35 2.35-2.35zM824 296.18h10.6c1.298 0 2.35 1.052 2.35 2.35v6.79c0 1.298-1.052 2.35-2.35 2.35H824c-1.298 0-2.35-1.052-2.35-2.35v-6.79c0-1.298 1.052-2.35 2.35-2.35zM806.84 296.18h10.6c1.298 0 2.35 1.052 2.35 2.35v6.79c0 1.298-1.052 2.35-2.35 2.35h-10.6c-1.298 0-2.35-1.052-2.35-2.35v-6.79c0-1.298 1.052-2.35 2.35-2.35zM789.68 296.18h10.6c1.298 0 2.35 1.052 2.35 2.35v6.79c0 1.298-1.052 2.35-2.35 2.35h-10.6c-1.298 0-2.35-1.052-2.35-2.35v-6.79c0-1.298 1.052-2.35 2.35-2.35zM772.51 296.18h10.6c1.298 0 2.35 1.052 2.35 2.35v6.79c0 1.298-1.052 2.35-2.35 2.35h-10.6c-1.298 0-2.35-1.052-2.35-2.35v-6.79c0-1.298 1.052-2.35 2.35-2.35zM755.35 296.18h10.6c1.298 0 2.35 1.052 2.35 2.35v6.79c0 1.298-1.052 2.35-2.35 2.35h-10.6c-1.298 0-2.35-1.052-2.35-2.35v-6.79c0-1.298 1.052-2.35 2.35-2.35zM738.19 296.18h10.6c1.298 0 2.35 1.052 2.35 2.35v6.79c0 1.298-1.052 2.35-2.35 2.35h-10.6c-1.298 0-2.35-1.052-2.35-2.35v-6.79c0-1.298 1.052-2.35 2.35-2.35zM721.03 296.18h10.6c1.298 0 2.35 1.052 2.35 2.35v6.79c0 1.298-1.052 2.35-2.35 2.35h-10.6c-1.298 0-2.35-1.052-2.35-2.35v-6.79c0-1.298 1.052-2.35 2.35-2.35zM703.87 296.18h10.6c1.298 0 2.35 1.052 2.35 2.35v6.79c0 1.298-1.052 2.35-2.35 2.35h-10.6c-1.298 0-2.35-1.052-2.35-2.35v-6.79c0-1.298 1.052-2.35 2.35-2.35zM686.71 296.18h10.6c1.298 0 2.35 1.052 2.35 2.35v6.79c0 1.298-1.052 2.35-2.35 2.35h-10.6c-1.298 0-2.35-1.052-2.35-2.35v-6.79c0-1.298 1.052-2.35 2.35-2.35zM669.55 296.18h10.6c1.298 0 2.35 1.052 2.35 2.35v6.79c0 1.298-1.052 2.35-2.35 2.35h-10.6c-1.298 0-2.35-1.052-2.35-2.35v-6.79c0-1.298 1.052-2.35 2.35-2.35zM652.39 296.18h10.6c1.298 0 2.35 1.052 2.35 2.35v6.79c0 1.298-1.052 2.35-2.35 2.35h-10.6c-1.298 0-2.35-1.052-2.35-2.35v-6.79c0-1.298 1.052-2.35 2.35-2.35z"/><path class="st4" d="M885.42 288.09h11.35c1.281 0 2.32 1.039 2.32 2.32v1.94c0 1.281-1.039 2.32-2.32 2.32h-11.35c-1.281 0-2.32-1.039-2.32-2.32v-1.94c0-1.281 1.039-2.32 2.32-2.32zM867.49 288.09h11.35c1.281 0 2.32 1.039 2.32 2.32v1.94c0 1.281-1.039 2.32-2.32 2.32h-11.35c-1.281 0-2.32-1.039-2.32-2.32v-1.94c0-1.281 1.039-2.32 2.32-2.32zM849.57 288.09h11.35c1.281 0 2.32 1.039 2.32 2.32v1.94c0 1.281-1.039 2.32-2.32 2.32h-11.35c-1.281 0-2.32-1.039-2.32-2.32v-1.94c0-1.281 1.039-2.32 2.32-2.32zM831.65 288.09H843c1.281 0 2.32 1.039 2.32 2.32v1.94c0 1.281-1.039 2.32-2.32 2.32h-11.35c-1.281 0-2.32-1.039-2.32-2.32v-1.94c0-1.281 1.039-2.32 2.32-2.32zM813.72 288.09h11.35c1.281 0 2.32 1.039 2.32 2.32v1.94c0 1.281-1.039 2.32-2.32 2.32h-11.35c-1.281 0-2.32-1.039-2.32-2.32v-1.94c0-1.281 1.039-2.32 2.32-2.32zM795.8 288.09h11.35c1.281 0 2.32 1.039 2.32 2.32v1.94c0 1.281-1.039 2.32-2.32 2.32H795.8c-1.281 0-2.32-1.039-2.32-2.32v-1.94c0-1.281 1.039-2.32 2.32-2.32zM777.87 288.09h11.35c1.281 0 2.32 1.039 2.32 2.32v1.94c0 1.281-1.039 2.32-2.32 2.32h-11.35c-1.281 0-2.32-1.039-2.32-2.32v-1.94c0-1.281 1.039-2.32 2.32-2.32zM759.95 288.09h11.35c1.281 0 2.32 1.039 2.32 2.32v1.94c0 1.281-1.039 2.32-2.32 2.32h-11.35c-1.281 0-2.32-1.039-2.32-2.32v-1.94c0-1.281 1.039-2.32 2.32-2.32zM742.03 288.09h11.35c1.281 0 2.32 1.039 2.32 2.32v1.94c0 1.281-1.039 2.32-2.32 2.32h-11.35c-1.281 0-2.32-1.039-2.32-2.32v-1.94c0-1.281 1.039-2.32 2.32-2.32zM724.1 288.09h11.35c1.281 0 2.32 1.039 2.32 2.32v1.94c0 1.281-1.039 2.32-2.32 2.32H724.1c-1.281 0-2.32-1.039-2.32-2.32v-1.94c0-1.281 1.039-2.32 2.32-2.32zM706.18 288.09h11.35c1.281 0 2.32 1.039 2.32 2.32v1.94c0 1.281-1.039 2.32-2.32 2.32h-11.35c-1.281 0-2.32-1.039-2.32-2.32v-1.94c0-1.281 1.039-2.32 2.32-2.32zM688.25 288.09h11.35c1.281 0 2.32 1.039 2.32 2.32v1.94c0 1.281-1.039 2.32-2.32 2.32h-11.35c-1.281 0-2.32-1.039-2.32-2.32v-1.94c0-1.281 1.039-2.32 2.32-2.32zM670.33 288.09h11.35c1.281 0 2.32 1.039 2.32 2.32v1.94c0 1.281-1.039 2.32-2.32 2.32h-11.35c-1.281 0-2.32-1.039-2.32-2.32v-1.94c0-1.281 1.039-2.32 2.32-2.32zM652.41 288.09h11.35c1.281 0 2.32 1.039 2.32 2.32v1.94c0 1.281-1.039 2.32-2.32 2.32h-11.35c-1.281 0-2.32-1.039-2.32-2.32v-1.94c0-1.281 1.039-2.32 2.32-2.32zM652.48 356.13h11.21c1.32 0 2.39 1.07 2.39 2.39v7.22c0 1.32-1.07 2.39-2.39 2.39h-11.21c-1.32 0-2.39-1.07-2.39-2.39v-7.22c0-1.32 1.07-2.39 2.39-2.39zM876.62 326.74h20.11c1.298 0 2.35 1.052 2.35 2.35v7.3c0 1.298-1.052 2.35-2.35 2.35h-20.11c-1.298 0-2.35-1.052-2.35-2.35v-7.3c0-1.298 1.052-2.35 2.35-2.35zM866.02 341.44h30.92c1.32 0 2.39 1.07 2.39 2.39v7.22c0 1.32-1.07 2.39-2.39 2.39h-30.92c-1.32 0-2.39-1.07-2.39-2.39v-7.22c0-1.32 1.07-2.39 2.39-2.39zM652.48 341.44h33.66c1.32 0 2.39 1.07 2.39 2.39v7.22c0 1.32-1.07 2.39-2.39 2.39h-33.66c-1.32 0-2.39-1.07-2.39-2.39v-7.22c0-1.32 1.07-2.39 2.39-2.39zM652.44 326.74h27.77c1.298 0 2.35 1.052 2.35 2.35v7.3c0 1.298-1.052 2.35-2.35 2.35h-27.77c-1.298 0-2.35-1.052-2.35-2.35v-7.3c0-1.298 1.052-2.35 2.35-2.35zM652.48 312.05h20.03c1.32 0 2.39 1.07 2.39 2.39v7.22c0 1.32-1.07 2.39-2.39 2.39h-20.03c-1.32 0-2.39-1.07-2.39-2.39v-7.22c0-1.32 1.07-2.39 2.39-2.39zM814.14 355.94h15.1c1.32 0 2.39 1.07 2.39 2.39v7.22c0 1.32-1.07 2.39-2.39 2.39h-15.1c-1.32 0-2.39-1.07-2.39-2.39v-7.22c0-1.32 1.07-2.39 2.39-2.39zM706.42 356.13h15.1c1.32 0 2.39 1.07 2.39 2.39v7.22c0 1.32-1.07 2.39-2.39 2.39h-15.1c-1.32 0-2.39-1.07-2.39-2.39v-7.22c0-1.32 1.07-2.39 2.39-2.39zM687.97 356.13h11.21c1.32 0 2.39 1.07 2.39 2.39v7.22c0 1.32-1.07 2.39-2.39 2.39h-11.21c-1.32 0-2.39-1.07-2.39-2.39v-7.22c0-1.32 1.07-2.39 2.39-2.39zM670.4 356.13h11.21c1.32 0 2.39 1.07 2.39 2.39v7.22c0 1.32-1.07 2.39-2.39 2.39H670.4c-1.32 0-2.39-1.07-2.39-2.39v-7.22c0-1.32 1.07-2.39 2.39-2.39zM875.52 297.46h21.22c1.298 0 2.35 1.052 2.35 2.35v7.11c0 1.298-1.052 2.35-2.35 2.35h-21.22c-1.298 0-2.35-1.052-2.35-2.35v-7.11c0-1.298 1.052-2.35 2.35-2.35zM886.17 312.31h10.52c1.32 0 2.39 1.07 2.39 2.39v6.71c0 1.32-1.07 2.39-2.39 2.39h-10.52c-1.32 0-2.39-1.07-2.39-2.39v-6.71c0-1.32 1.07-2.39 2.39-2.39zM869.01 312.31h10.52c1.32 0 2.39 1.07 2.39 2.39v6.71c0 1.32-1.07 2.39-2.39 2.39h-10.52c-1.32 0-2.39-1.07-2.39-2.39v-6.71c0-1.32 1.07-2.39 2.39-2.39zM858.36 326.87h10.6c1.298 0 2.35 1.052 2.35 2.35v6.79c0 1.298-1.052 2.35-2.35 2.35h-10.6c-1.298 0-2.35-1.052-2.35-2.35v-6.79c0-1.298 1.052-2.35 2.35-2.35zM886.13 362.74h10.56c1.32 0 2.39 1.068 2.39 2.385 0 1.317-1.07 2.385-2.39 2.385h-10.56c-1.32 0-2.39-1.068-2.39-2.385 0-1.317 1.07-2.385 2.39-2.385zM869.46 355.23h10.56c1.32 0 2.39 1.068 2.39 2.385 0 1.317-1.07 2.385-2.39 2.385h-10.56c-1.32 0-2.39-1.068-2.39-2.385 0-1.317 1.07-2.385 2.39-2.385zM869.46 362.74h10.56c1.32 0 2.39 1.068 2.39 2.385 0 1.317-1.07 2.385-2.39 2.385h-10.56c-1.32 0-2.39-1.068-2.39-2.385 0-1.317 1.07-2.385 2.39-2.385zM852.74 362.74h10.56c1.32 0 2.39 1.068 2.39 2.385 0 1.317-1.07 2.385-2.39 2.385h-10.56c-1.32 0-2.39-1.068-2.39-2.385 0-1.317 1.07-2.385 2.39-2.385zM848.16 341.69h10.52c1.32 0 2.39 1.07 2.39 2.39v6.71c0 1.32-1.07 2.39-2.39 2.39h-10.52c-1.32 0-2.39-1.07-2.39-2.39v-6.71c0-1.32 1.07-2.39 2.39-2.39zM835.73 356.19h10.52c1.32 0 2.39 1.07 2.39 2.39v6.71c0 1.32-1.07 2.39-2.39 2.39h-10.52c-1.32 0-2.39-1.07-2.39-2.39v-6.71c0-1.32 1.07-2.39 2.39-2.39zM831 341.69h10.52c1.32 0 2.39 1.07 2.39 2.39v6.71c0 1.32-1.07 2.39-2.39 2.39H831c-1.32 0-2.39-1.07-2.39-2.39v-6.71c0-1.32 1.07-2.39 2.39-2.39zM813.84 341.69h10.52c1.32 0 2.39 1.07 2.39 2.39v6.71c0 1.32-1.07 2.39-2.39 2.39h-10.52c-1.32 0-2.39-1.07-2.39-2.39v-6.71c0-1.32 1.07-2.39 2.39-2.39zM796.68 341.69h10.52c1.32 0 2.39 1.07 2.39 2.39v6.71c0 1.32-1.07 2.39-2.39 2.39h-10.52c-1.32 0-2.39-1.07-2.39-2.39v-6.71c0-1.32 1.07-2.39 2.39-2.39zM779.52 341.69h10.52c1.32 0 2.39 1.07 2.39 2.39v6.71c0 1.32-1.07 2.39-2.39 2.39h-10.52c-1.32 0-2.39-1.07-2.39-2.39v-6.71c0-1.32 1.07-2.39 2.39-2.39zM762.36 341.69h10.52c1.32 0 2.39 1.07 2.39 2.39v6.71c0 1.32-1.07 2.39-2.39 2.39h-10.52c-1.32 0-2.39-1.07-2.39-2.39v-6.71c0-1.32 1.07-2.39 2.39-2.39zM745.2 341.69h10.52c1.32 0 2.39 1.07 2.39 2.39v6.71c0 1.32-1.07 2.39-2.39 2.39H745.2c-1.32 0-2.39-1.07-2.39-2.39v-6.71c0-1.32 1.07-2.39 2.39-2.39zM728.77 356.19h78.3c1.32 0 2.39 1.07 2.39 2.39v6.71c0 1.32-1.07 2.39-2.39 2.39h-78.3c-1.32 0-2.39-1.07-2.39-2.39v-6.71c0-1.32 1.07-2.39 2.39-2.39zM728.04 341.69h10.52c1.32 0 2.39 1.07 2.39 2.39v6.71c0 1.32-1.07 2.39-2.39 2.39h-10.52c-1.32 0-2.39-1.07-2.39-2.39v-6.71c0-1.32 1.07-2.39 2.39-2.39zM710.87 341.69h10.52c1.32 0 2.39 1.07 2.39 2.39v6.71c0 1.32-1.07 2.39-2.39 2.39h-10.52c-1.32 0-2.39-1.07-2.39-2.39v-6.71c0-1.32 1.07-2.39 2.39-2.39zM693.71 341.69h10.52c1.32 0 2.39 1.07 2.39 2.39v6.71c0 1.32-1.07 2.39-2.39 2.39h-10.52c-1.32 0-2.39-1.07-2.39-2.39v-6.71c0-1.32 1.07-2.39 2.39-2.39zM841.2 326.87h10.6c1.298 0 2.35 1.052 2.35 2.35v6.79c0 1.298-1.052 2.35-2.35 2.35h-10.6c-1.298 0-2.35-1.052-2.35-2.35v-6.79c0-1.298 1.052-2.35 2.35-2.35zM824.04 326.87h10.6c1.298 0 2.35 1.052 2.35 2.35v6.79c0 1.298-1.052 2.35-2.35 2.35h-10.6c-1.298 0-2.35-1.052-2.35-2.35v-6.79c0-1.298 1.052-2.35 2.35-2.35zM806.88 326.87h10.6c1.298 0 2.35 1.052 2.35 2.35v6.79c0 1.298-1.052 2.35-2.35 2.35h-10.6c-1.298 0-2.35-1.052-2.35-2.35v-6.79c0-1.298 1.052-2.35 2.35-2.35zM789.72 326.87h10.6c1.298 0 2.35 1.052 2.35 2.35v6.79c0 1.298-1.052 2.35-2.35 2.35h-10.6c-1.298 0-2.35-1.052-2.35-2.35v-6.79c0-1.298 1.052-2.35 2.35-2.35zM772.56 326.87h10.6c1.298 0 2.35 1.052 2.35 2.35v6.79c0 1.298-1.052 2.35-2.35 2.35h-10.6c-1.298 0-2.35-1.052-2.35-2.35v-6.79c0-1.298 1.052-2.35 2.35-2.35zM755.4 326.87H766c1.298 0 2.35 1.052 2.35 2.35v6.79c0 1.298-1.052 2.35-2.35 2.35h-10.6c-1.298 0-2.35-1.052-2.35-2.35v-6.79c0-1.298 1.052-2.35 2.35-2.35zM738.24 326.87h10.6c1.298 0 2.35 1.052 2.35 2.35v6.79c0 1.298-1.052 2.35-2.35 2.35h-10.6c-1.298 0-2.35-1.052-2.35-2.35v-6.79c0-1.298 1.052-2.35 2.35-2.35zM721.08 326.87h10.6c1.298 0 2.35 1.052 2.35 2.35v6.79c0 1.298-1.052 2.35-2.35 2.35h-10.6c-1.298 0-2.35-1.052-2.35-2.35v-6.79c0-1.298 1.052-2.35 2.35-2.35zM703.92 326.87h10.6c1.298 0 2.35 1.052 2.35 2.35v6.79c0 1.298-1.052 2.35-2.35 2.35h-10.6c-1.298 0-2.35-1.052-2.35-2.35v-6.79c0-1.298 1.052-2.35 2.35-2.35zM686.76 326.87h10.6c1.298 0 2.35 1.052 2.35 2.35v6.79c0 1.298-1.052 2.35-2.35 2.35h-10.6c-1.298 0-2.35-1.052-2.35-2.35v-6.79c0-1.298 1.052-2.35 2.35-2.35zM851.85 312.31h10.52c1.32 0 2.39 1.07 2.39 2.39v6.71c0 1.32-1.07 2.39-2.39 2.39h-10.52c-1.32 0-2.39-1.07-2.39-2.39v-6.71c0-1.32 1.07-2.39 2.39-2.39zM834.69 312.31h10.52c1.32 0 2.39 1.07 2.39 2.39v6.71c0 1.32-1.07 2.39-2.39 2.39h-10.52c-1.32 0-2.39-1.07-2.39-2.39v-6.71c0-1.32 1.07-2.39 2.39-2.39zM817.53 312.31h10.52c1.32 0 2.39 1.07 2.39 2.39v6.71c0 1.32-1.07 2.39-2.39 2.39h-10.52c-1.32 0-2.39-1.07-2.39-2.39v-6.71c0-1.32 1.07-2.39 2.39-2.39zM800.37 312.31h10.52c1.32 0 2.39 1.07 2.39 2.39v6.71c0 1.32-1.07 2.39-2.39 2.39h-10.52c-1.32 0-2.39-1.07-2.39-2.39v-6.71c0-1.32 1.07-2.39 2.39-2.39zM783.2 312.31h10.52c1.32 0 2.39 1.07 2.39 2.39v6.71c0 1.32-1.07 2.39-2.39 2.39H783.2c-1.32 0-2.39-1.07-2.39-2.39v-6.71c0-1.32 1.07-2.39 2.39-2.39zM766.04 312.31h10.52c1.32 0 2.39 1.07 2.39 2.39v6.71c0 1.32-1.07 2.39-2.39 2.39h-10.52c-1.32 0-2.39-1.07-2.39-2.39v-6.71c0-1.32 1.07-2.39 2.39-2.39zM748.88 312.31h10.52c1.32 0 2.39 1.07 2.39 2.39v6.71c0 1.32-1.07 2.39-2.39 2.39h-10.52c-1.32 0-2.39-1.07-2.39-2.39v-6.71c0-1.32 1.07-2.39 2.39-2.39zM731.72 312.31h10.52c1.32 0 2.39 1.07 2.39 2.39v6.71c0 1.32-1.07 2.39-2.39 2.39h-10.52c-1.32 0-2.39-1.07-2.39-2.39v-6.71c0-1.32 1.07-2.39 2.39-2.39zM714.56 312.31h10.52c1.32 0 2.39 1.07 2.39 2.39v6.71c0 1.32-1.07 2.39-2.39 2.39h-10.52c-1.32 0-2.39-1.07-2.39-2.39v-6.71c0-1.32 1.07-2.39 2.39-2.39zM697.4 312.31h10.52c1.32 0 2.39 1.07 2.39 2.39v6.71c0 1.32-1.07 2.39-2.39 2.39H697.4c-1.32 0-2.39-1.07-2.39-2.39v-6.71c0-1.32 1.07-2.39 2.39-2.39zM680.24 312.31h10.52c1.32 0 2.39 1.07 2.39 2.39v6.71c0 1.32-1.07 2.39-2.39 2.39h-10.52c-1.32 0-2.39-1.07-2.39-2.39v-6.71c0-1.32 1.07-2.39 2.39-2.39zM858.36 297.62h10.6c1.298 0 2.35 1.052 2.35 2.35v6.79c0 1.298-1.052 2.35-2.35 2.35h-10.6c-1.298 0-2.35-1.052-2.35-2.35v-6.79c0-1.298 1.052-2.35 2.35-2.35zM841.2 297.62h10.6c1.298 0 2.35 1.052 2.35 2.35v6.79c0 1.298-1.052 2.35-2.35 2.35h-10.6c-1.298 0-2.35-1.052-2.35-2.35v-6.79c0-1.298 1.052-2.35 2.35-2.35zM824.04 297.62h10.6c1.298 0 2.35 1.052 2.35 2.35v6.79c0 1.298-1.052 2.35-2.35 2.35h-10.6c-1.298 0-2.35-1.052-2.35-2.35v-6.79c0-1.298 1.052-2.35 2.35-2.35zM806.88 297.62h10.6c1.298 0 2.35 1.052 2.35 2.35v6.79c0 1.298-1.052 2.35-2.35 2.35h-10.6c-1.298 0-2.35-1.052-2.35-2.35v-6.79c0-1.298 1.052-2.35 2.35-2.35zM789.72 297.62h10.6c1.298 0 2.35 1.052 2.35 2.35v6.79c0 1.298-1.052 2.35-2.35 2.35h-10.6c-1.298 0-2.35-1.052-2.35-2.35v-6.79c0-1.298 1.052-2.35 2.35-2.35zM772.56 297.62h10.6c1.298 0 2.35 1.052 2.35 2.35v6.79c0 1.298-1.052 2.35-2.35 2.35h-10.6c-1.298 0-2.35-1.052-2.35-2.35v-6.79c0-1.298 1.052-2.35 2.35-2.35zM755.4 297.62H766c1.298 0 2.35 1.052 2.35 2.35v6.79c0 1.298-1.052 2.35-2.35 2.35h-10.6c-1.298 0-2.35-1.052-2.35-2.35v-6.79c0-1.298 1.052-2.35 2.35-2.35zM738.24 297.62h10.6c1.298 0 2.35 1.052 2.35 2.35v6.79c0 1.298-1.052 2.35-2.35 2.35h-10.6c-1.298 0-2.35-1.052-2.35-2.35v-6.79c0-1.298 1.052-2.35 2.35-2.35zM721.08 297.62h10.6c1.298 0 2.35 1.052 2.35 2.35v6.79c0 1.298-1.052 2.35-2.35 2.35h-10.6c-1.298 0-2.35-1.052-2.35-2.35v-6.79c0-1.298 1.052-2.35 2.35-2.35zM703.92 297.62h10.6c1.298 0 2.35 1.052 2.35 2.35v6.79c0 1.298-1.052 2.35-2.35 2.35h-10.6c-1.298 0-2.35-1.052-2.35-2.35v-6.79c0-1.298 1.052-2.35 2.35-2.35zM686.76 297.62h10.6c1.298 0 2.35 1.052 2.35 2.35v6.79c0 1.298-1.052 2.35-2.35 2.35h-10.6c-1.298 0-2.35-1.052-2.35-2.35v-6.79c0-1.298 1.052-2.35 2.35-2.35zM669.6 297.62h10.6c1.298 0 2.35 1.052 2.35 2.35v6.79c0 1.298-1.052 2.35-2.35 2.35h-10.6c-1.298 0-2.35-1.052-2.35-2.35v-6.79c0-1.298 1.052-2.35 2.35-2.35zM652.44 297.62h10.6c1.298 0 2.35 1.052 2.35 2.35v6.79c0 1.298-1.052 2.35-2.35 2.35h-10.6c-1.298 0-2.35-1.052-2.35-2.35v-6.79c0-1.298 1.052-2.35 2.35-2.35z"/><path class="st1" d="M644.29 258.35h259.15v7.8c0 .79-.64 1.43-1.43 1.43H645.72c-.79 0-1.43-.64-1.43-1.43v-7.8z"/><path class="st0" d="M1012.9 269.17l159.95-4.468V52.882l-75.34 158.888z"/><path class="st7" d="M1066 431l49 36"/><path class="st1" d="M1094.8 218c.965-.543 1.887-1.158 2.76-1.84 1.34-1 1.69-1.57 1.53-2.33-.275-.832-.834-1.54-1.58-2-.38-.21-1.14-.37-1-.23s-.08 0-.24-.12c-.206-.144-.42-.278-.64-.4l-.37-.22-.74.34c-1.816.893-3.547 1.951-5.17 3.16l3.39 4.62c.747-.182 1.448-.516 2.06-.98zM1007.25 270.73s.56-.25 1.17-.56 1.8-.84 2.62-1.18c1.85-.75 1.77-.72 1.55-.57-.42.27-.22.73.31.75.81-.073 1.606-.265 2.36-.57 1.33-.47 6.71-2.65 7-2.82l.54-.24c1.17-.48 7.17-4 13.4-7.86l2.06-1.28c.61-.37 3.64-2.28 5-3.17l1.89-1.21c1.41-.9 6.14-4 10.41-6.8l14-9.4 3.2-2.17c5.77-3.91 6.48-4.38 7.27-4.72 1.331-.554 2.546-1.355 3.58-2.36.741-.725 1.563-1.363 2.45-1.9 3.5-2.33 4.76-3.19 5.11-3.51.373-.386.605-.886.66-1.42l-.22-.31-3.19-4.49c-.05 0-.13 0-.22-.1s-.15-.14-.37 0c-3 1.93-5.79 3.73-5.88 3.77s-.11 0-.06-.21 0-.29-.13-.47-.42-.29-1.14-.23c-1.27.145-2.511.482-3.68 1-.322.135-.657.236-1 .3-.643.021-1.283.104-1.91.25-.657.248-1.26.618-1.78 1.09-.36.3-1.52 1.19-2.55 2l-5.46 4.16c-7.45 5.69-7.56 5.77-7.58 5.93-.024.241.093.474.3.6.217.059.437.103.66.13.302.032.6.092.89.18.27.08.4.1.49.06-.866.692-1.786 1.314-2.75 1.86-11.61 7.54-25 16.41-32.58 21.59l-4.12 2.8c-1.06.71-1.3.9-1.27 1s-1.6 1.61-4.41 4.21c-4.21 3.91-4.49 4.15-5.64 4.94-.87.6-1.19.85-1.14.91.051.018.106.025.16.02zm53.53-39.05c.158-.664.506-1.269 1-1.74.534-.586 1.15-1.091 1.83-1.5l4-2.75.63-.43.52-.35 2.15-1.43c.793-.558 1.614-1.075 2.46-1.55.322-.127.658-.218 1-.27.83-.048 1.636-.295 2.35-.72.404-.259.791-.543 1.16-.85.613-.536 1.284-1.002 2-1.39.26-.13.52-.25.57-.29s.09 0 .1 0c-.104.196-.247.37-.42.51-.971.863-2.007 1.648-3.1 2.35-2.59 1.76-2.44 1.64-2.44 1.88s-.06.26-1.23 1l-6.77 4.36c-6.67 4.29-6.17 4-6 3.81.103-.199.168-.417.19-.64z"/><path class="st0" d="M967.3 458.92l204.821 77.401V431l-151.311-17.59z"/><linearGradient id="SVGID_5_" gradientUnits="userSpaceOnUse" x1="959.22" y1="181.46" x2="1028.22" y2="181.46" gradientTransform="matrix(1 0 0 -1 -.07 612.96)"><stop offset=".23" stop-color="#a32eff"/><stop offset="1" stop-color="#bd00fd"/></linearGradient><circle cx="993.65" cy="431.5" r="34.5" fill="url(#SVGID_5_)"/><path class="st1" d="M993.65 397c19.054 0 34.5 15.446 34.5 34.5s-15.446 34.5-34.5 34.5-34.5-15.446-34.5-34.5c-.005-19.048 15.432-34.494 34.48-34.5h.02m0-1.05c-19.634 0-35.55 15.916-35.55 35.55 0 19.634 15.916 35.55 35.55 35.55 19.634 0 35.55-15.916 35.55-35.55-.05-19.605-15.945-35.478-35.55-35.5v-.05z"/><path class="st4" d="M993.65 463.38c-18.54-.008-33.761-14.664-34.47-33.19v1.31c0 19.054 15.446 34.5 34.5 34.5s34.5-15.446 34.5-34.5v-1.31c-.705 18.552-15.965 33.22-34.53 33.19z"/><circle cx="993.65" cy="430.52" r="28.4" fill="#400c77"/><path class="st4" d="M1003 397.39s1.31-8.39 5.24-11.14 21-1.31 7.34 31.72l-2.75-7.73s3.8-9.7 2.62-13.9-5-4.85-6.55 6.56l-5.9-5.51z"/><path class="st4" d="M1011.84 385.32c5.94 0 14.7 6.19 3.78 32.65l-2.75-7.73s3.8-9.7 2.62-13.9c-.47-1.68-1.37-2.79-2.37-2.79-1.5 0-3.24 2.5-4.19 9.35l-5.9-5.51s1.31-8.39 5.24-11.14c1.072-.648 2.308-.971 3.56-.93m0-1.05c-1.467-.046-2.914.344-4.16 1.12-4.25 3-5.63 11.48-5.68 11.84l-.09.55.42.38 5.9 5.51 1.47 1.38.28-2c.95-6.88 2.64-8.43 3.15-8.43.33 0 1 .62 1.36 2 .89 3.16-1.57 10.62-2.59 13.23l-.15.37.14.36 2.75 7.74.92 2.57 1-2.52c7.28-17.64 5.67-26 3-29.94-1.727-2.621-4.662-4.19-7.8-4.17l.08.01z"/><linearGradient id="SVGID_6_" gradientUnits="userSpaceOnUse" x1="1004.8701" y1="209.381" x2="1018.6154" y2="209.381" gradientTransform="matrix(1 0 0 -1 0 612)"><stop offset=".23" stop-color="#a32eff"/><stop offset="1" stop-color="#bd00fd"/></linearGradient><path d="M1013.65 390.84c-3.8 1.44-4.85 9.17-4.85 9.17l-3.93-.9 4.06 3.79c1.58-11.41 5.38-10.75 6.56-6.56s-2.62 13.9-2.62 13.9l1.55 4.36c.3-.88.65-1.84 1.06-2.92 6.17-15.99 1.97-22.29-1.83-20.84z" fill="url(#SVGID_6_)"/><path class="st4" d="M1016.71 420.81c-1.3-15.3-12.51-27.79-27.87-27.79-15.38.028-27.835 12.5-27.84 27.88.134 3.629.843 7.213 2.1 10.62 4.54 14.12 18.86 23.5 33.59 20.77 14.9-2.77 21.31-16.4 20.02-31.48z"/><path class="st1" d="M988.83 393c15.37 0 26.58 12.49 27.88 27.79 1.28 15.08-5.12 28.71-20.07 31.48-1.691.32-3.409.481-5.13.48-12.81 0-24.45-8.77-28.46-21.25-1.258-3.403-1.967-6.984-2.1-10.61-.006-15.398 12.472-27.884 27.87-27.89m0-1c-15.946.044-28.865 12.954-28.92 28.9.139 3.737.865 7.429 2.15 10.94 4.16 12.94 16.28 22 29.46 22 1.785.002 3.566-.162 5.32-.49 14.17-2.62 22.39-15.42 20.92-32.6-1.42-16.65-13.58-28.75-28.92-28.75h-.01z"/><path class="st1" d="M995.74 448.75c-10.331 1.752-20.881-1.494-28.44-8.75 6.54 9.16 17.81 14.45 29.34 12.31 12.15-2.25 18.65-11.67 20-23.21-2.35 9.9-9.19 17.63-20.9 19.65z"/><linearGradient id="SVGID_7_" gradientUnits="userSpaceOnUse" x1="965.04" y1="192.32" x2="1012.24" y2="192.32" gradientTransform="matrix(1 0 0 -1 -.07 612.96)"><stop offset=".23" stop-color="#c555ff"/><stop offset="1" stop-color="#e900fd"/></linearGradient><circle cx="988.57" cy="420.64" r="23.6" fill="url(#SVGID_7_)"/><linearGradient id="SVGID_8_" gradientUnits="userSpaceOnUse" x1="963.9901" y1="192.36" x2="1013.29" y2="192.36" gradientTransform="matrix(1 0 0 -1 -.07 612.96)"><stop offset=".23" stop-color="#c555ff"/><stop offset="1" stop-color="#e900fd"/></linearGradient><path d="M988.57 397c13.034 0 23.6 10.566 23.6 23.6s-10.566 23.6-23.6 23.6-23.6-10.566-23.6-23.6c.006-13.032 10.568-23.594 23.6-23.6m0-1.05c-13.614 0-24.65 11.036-24.65 24.65s11.036 24.65 24.65 24.65c13.614 0 24.65-11.036 24.65-24.65-.044-13.587-11.063-24.584-24.65-24.6v-.05z" fill="url(#SVGID_8_)"/><path class="st4" d="M989.09 442.14c-13.041-.011-23.606-10.589-23.6-23.63.001-1.555.159-3.106.47-4.63-3.5 12.555 3.84 25.571 16.395 29.071 12.233 3.411 24.971-3.471 28.825-15.571.21-.69.38-1.39.53-2.09-2.985 10-12.184 16.853-22.62 16.85z"/><path class="st4" d="M1003.82 421.25c-.34-1.63-1.84-8.78-4.59-4.85s-3.8 8.92-7 10.88-5.51 4.2-6.29 6.3c0 0 .92-4.86-1.31-8.26-2.198-3.587-3.335-7.723-3.28-11.93.27-3.15.4-5.9-3.79-3.28s-8.53 7.47-6.43 14.81 11.14 11.54 12.84 16.66c2.726-1.188 5.529-2.19 8.39-3 5.04-1.47 13.69-6.71 11.46-17.33z"/><path class="st4" d="M987.3 429.77c.76-1.556 1.885-2.904 3.28-3.93 2.23-1.57 5.64-5.11 6-9.31 0 0-1.57 2.49-3.41 3-1.276.246-2.492.739-3.58 1.45.332-1.095.934-2.089 1.75-2.89 1.83-1.7 5.11-5.37 3.67-6-1-.47-2.67.29-3.71 1.62.22-.9.584-1.758 1.08-2.54 1.18-1.57 4.59-4.32 3.81-6.81s-2.1-1.45-2.76-.13c0 0 .4-3.28-1.7-2.89s-2.1 2.89-1.57 5.64c.46 2.43.92 6 .48 7.86-.094.212-.168.434-.22.66 0 0 1-4.46-.92-5.77s-3.67.4-2.36 4.2 1.71 5.51 1.57 8.39c-.169-1.609-.755-3.146-1.7-4.46-1.44-1.7-2.75-2.36-2.89-5.64-1.131 2.336-1.272 5.029-.39 7.47 1.47 4.31 3.57 6.67 3.57 10.08z"/><path d="M973.54 433.58c-.26-.26-.49-.52-.73-.78.222.279.466.54.73.78z" fill="#bc8e66"/><path class="st14" d="M989.14 408.87l.39.05c-.128-.031-.259-.048-.39-.05zM991.2 413.41c-.215.455-.392.926-.53 1.41l.53-1.41z"/><path class="st7" d="M556.57 188.54l-77.59 47.65"/><path class="st0" d="M556.57 188.54L478.98 229 0 0h557z"/><ellipse transform="rotate(-74.728 520.9215115 215.0691255)" class="st1" cx="520.908" cy="215.079" rx="45.9" ry="46.83"/><ellipse transform="rotate(-74.728 518.6322709 213.87190913)" class="st4" cx="518.617" cy="213.882" rx="45.21" ry="45.71"/><g opacity=".94"><image width="267" height="263" xlink:href="C4DD98CD.png" transform="translate(403.85 145.09)" overflow="visible" opacity=".3"/><linearGradient id="SVGID_9_" gradientUnits="userSpaceOnUse" x1="45.7204" y1="-186.7757" x2="130.0296" y2="-186.7757" gradientTransform="matrix(.8653 -.4905 -.4905 -.8653 366.45 159.6419)"><stop offset="0" stop-color="#9500a1"/><stop offset="1" stop-color="#510097"/></linearGradient><path d="M492.501 266.888c5.877-21.701 29.261-34.25 52.229-28.03 22.968 6.221 36.823 28.855 30.945 50.556-5.877 21.701-29.261 34.25-52.229 28.03-22.968-6.221-36.822-28.855-30.945-50.556z" fill="url(#SVGID_9_)"/></g><path class="st4" d="M509.8 248.6c-.73.34-.27 3.59 4.31 15.33 4.148 7.661 12.856 11.662 21.37 9.82 9.522-2.422 15.45-11.911 13.45-21.53-2-5.333-3.973-10.667-5.92-16 .608 2.967.383 6.043-.65 8.89-.4 1.15-3.31 9.61-11.85 11.9-3.625.921-7.449.665-10.92-.73-6.38-2.61-8.77-8.16-9.79-7.68z"/><linearGradient id="SVGID_10_" gradientUnits="userSpaceOnUse" x1="76.4358" y1="-148.4911" x2="111.7461" y2="-148.4911" gradientTransform="matrix(.871 -.4914 -.4914 -.871 369.242 157.6734)"><stop offset="0" stop-color="#9500a1"/><stop offset="1" stop-color="#510097"/></linearGradient><path d="M506.804 236.078c2.527-9.255 12.319-14.643 21.872-12.035 9.553 2.608 15.249 12.224 12.722 21.479-2.526 9.255-12.319 14.643-21.872 12.035-9.553-2.608-15.249-12.224-12.722-21.479z" opacity=".94" fill="url(#SVGID_10_)"/><linearGradient id="SVGID_11_" gradientUnits="userSpaceOnUse" x1="101.3342" y1="-95.0262" x2="117.2442" y2="-95.0262" gradientTransform="matrix(.8693 -.4883 -.4883 -.8693 366.9584 156.8196)"><stop offset="0" stop-color="#9500a1"/><stop offset="1" stop-color="#510097"/></linearGradient><path d="M502.013 183.12c1.139-4.172 5.552-6.601 9.857-5.426 4.305 1.175 6.871 5.51 5.733 9.682-1.139 4.172-5.552 6.601-9.857 5.426-4.305-1.176-6.872-5.51-5.733-9.682z" opacity=".94" fill="url(#SVGID_11_)"/><path class="st1" d="M518.64 223.42L498.66 155l6.14-1.94 19.31 68.43z"/><linearGradient id="SVGID_12_" gradientUnits="userSpaceOnUse" x1="98.595" y1="-88.8836" x2="111.675" y2="-88.8836" gradientTransform="scale(1 -1) rotate(29.43 484.7619122 623.9274522)"><stop offset="0" stop-color="#9500a1"/><stop offset="1" stop-color="#510097"/></linearGradient><path opacity=".94" fill="url(#SVGID_12_)" d="M513.47 205.71l-3.22 1.41-11.87-47.66z"/><path class="st1" d="M508.48 162.88l-1.85-6.05 1.4.24.58.81.69 4.42z"/><path class="st0" d="M599.81 447.34l64.605 161.75H292.714L486.21 337.75z"/><linearGradient id="SVGID_13_" gradientUnits="userSpaceOnUse" x1="437.6374" y1="186.336" x2="508.8956" y2="186.336" gradientTransform="scale(1 -1) rotate(15.7 2672.68621975 175.27934337)"><stop offset="0" stop-color="#9500a1"/><stop offset="1" stop-color="#510097"/></linearGradient><path opacity=".94" fill="url(#SVGID_13_)" d="M506.98 371.39l24.23 94.38 68.6-19.28-26.36-93.78z"/><linearGradient id="SVGID_14_" gradientUnits="userSpaceOnUse" x1="428.191" y1="257.0405" x2="508.896" y2="257.0405" gradientTransform="scale(1 -1) rotate(15.7 2672.68621975 175.27934337)"><stop offset="0" stop-color="#9500a1"/><stop offset="1" stop-color="#510097"/></linearGradient><path d="M505.91 368.74L572 347.55s-9.92-28.32-17.67-30.24l-69.71 17.62s10.38 1.5 21.29 33.81z" opacity=".94" fill="url(#SVGID_14_)"/><path fill="none" stroke="#000" stroke-miterlimit="10" d="M504.28 364.11"/><path class="st1" d="M482.59 362.69s2.6-30.51 4.2-26.8c0 0-2.05-2.4-4 1.14s-4.92 25-4.92 25l4.72.66z"/><path d="M490.63 372.05l-.57-33.51s-2.4-2.89-3.27-2.65-5.19 34.93-5.19 34.93l9.03 1.23z" fill="#2e0268"/><path d="M490.17 376.93l6.43.65-3-34.89s-3.52-4.9-3.51-4.15.08 38.39.08 38.39z" fill="#3d017c"/><path class="st4" d="M496.55 385l13.61-1.19-4.25-15s-9.75-26.4-12.11-25.25 2.75 41.44 2.75 41.44z"/><path class="st1" d="M567.14 350.06l.77 2.73-.56.65.26.91 2.67-.75-.25-.91-.99-.22-.88-2.7.63-.17-.44-1.35-2.28.64.39 1.36zM527.07 361.32l.77 2.73-.55.65.25.91 2.68-.75-.26-.91-.98-.22-.88-2.7.63-.17-.45-1.35-2.27.63.38 1.37zM522.98 362.47l.77 2.73-.56.65.26.91 2.67-.75-.26-.91-.98-.22-.88-2.7.63-.17-.44-1.35-2.28.64.38 1.36zM519.22 363.53l.77 2.73-.56.64.26.92 2.67-.76-.25-.91-.98-.21-.88-2.7.62-.18-.44-1.35-2.28.64.39 1.37zM515.01 364.71l.77 2.73-.56.65.26.91 2.67-.75-.25-.91-.99-.22-.88-2.7.63-.17-.44-1.35-2.28.64.39 1.36zM511.03 365.83l.76 2.73-.55.65.26.91 2.67-.75-.26-.91-.98-.22-.88-2.7.63-.17-.44-1.35-2.28.63.38 1.37zM507.07 366.94l.76 2.73-.55.65.26.91 2.67-.75-.26-.91-.98-.22-.88-2.7.63-.17-.44-1.35-2.28.64.38 1.36zM531.17 360.17l.77 2.73-.56.65.26.91 2.68-.76-.26-.9-.98-.22-.88-2.7.62-.18-.44-1.35-2.27.64.38 1.37zM555.3 353.39l.77 2.73-.56.64.26.92 2.68-.76-.26-.91-.98-.21-.88-2.7.62-.18-.44-1.35-2.27.64.38 1.37zM559.06 352.33l.77 2.73-.56.65.26.91 2.67-.75-.25-.91-.99-.22-.88-2.7.63-.17-.44-1.35-2.28.64.39 1.36zM563.4 351.11l.77 2.73-.55.65.25.91 2.68-.75-.26-.91-.98-.22-.88-2.7.62-.17-.44-1.35-2.27.64.38 1.36zM543.16 356.8l.77 2.73-.55.65.25.91 2.68-.76-.26-.9-.98-.22-.88-2.7.62-.18-.44-1.35-2.27.64.38 1.37zM547.21 355.66l.77 2.73-.56.65.26.91 2.67-.75-.25-.91-.98-.22-.89-2.7.63-.17-.44-1.35-2.28.64.39 1.36zM550.75 354.67l.77 2.73-.56.65.26.9 2.67-.75-.25-.91-.99-.21-.88-2.7.63-.18-.44-1.35-2.28.64.39 1.37zM539.12 357.94l.76 2.73-.55.64.26.91 2.67-.75-.26-.91-.98-.21-.88-2.7.63-.18-.44-1.35-2.28.64.38 1.37zM534.87 359.13l.77 2.73-.55.65.25.91 2.68-.75-.26-.92-.98-.21-.88-2.7.62-.18-.44-1.35-2.27.64.38 1.37z"/><path class="st25" d="M504.28 364.11l65.67-21.98M502.61 360.22l65.24-23.13M500.84 355.92l64.58-24.14M498.75 351.15l63.94-24.57M496.62 346.84l63.22-25.28M493.8 343.49l60.53-26.18M491.25 339.62l37.09-15.74M486.21 337.75l16.03-7.17"/><path class="st1" d="M571.1 438.51s1.92 1.89 3.25.14l.07-2.24-3.06-.32-.26 2.42zM571.66 429.21c.72 1.005 2.111 1.249 3.13.55l3.07-66.3s-2.1 1.25-3-.21-3.2 65.96-3.2 65.96z"/><linearGradient id="SVGID_15_" gradientUnits="userSpaceOnUse" x1="308.9931" y1="-248.5742" x2="314.4031" y2="-248.5742" gradientTransform="scale(1 -1) rotate(16.588 1075.4644767 555.45370627)"><stop offset=".23" stop-color="#c555ff"/><stop offset="1" stop-color="#e900fd"/></linearGradient><path d="M571.66 429.21s.54 1.82 3.13.55l-.39 7.35-3.13-.19.39-7.71z" fill="url(#SVGID_15_)"/><linearGradient id="SVGID_16_" gradientUnits="userSpaceOnUse" x1="333.4431" y1="-178.8394" x2="337.4631" y2="-178.8394" gradientTransform="scale(1 -1) rotate(16.588 1075.4644767 555.45370627)"><stop offset=".23" stop-color="#c555ff"/><stop offset="1" stop-color="#e900fd"/></linearGradient><path d="M574.84 363.25l1.62-8.62 1.4 8.83s-1.77 1.54-3.02-.21z" fill="url(#SVGID_16_)"/><path class="st1" d="M577.06 358.41l-1.25-.3.65-3.48z"/><linearGradient id="SVGID_17_" gradientUnits="userSpaceOnUse" x1="312.1131" y1="-213.9003" x2="334.0179" y2="-213.9003" gradientTransform="scale(1 -1) rotate(16.588 1075.4644767 555.45370627)"><stop offset="0" stop-color="#9500a1"/><stop offset="1" stop-color="#510097"/></linearGradient><path fill="none" stroke="url(#SVGID_17_)" stroke-width=".1" stroke-miterlimit="10" d="M572.36 429.49l3.22-65.58"/><linearGradient id="SVGID_18_" gradientUnits="userSpaceOnUse" x1="312.8931" y1="-214.5899" x2="334.8112" y2="-214.5899" gradientTransform="scale(1 -1) rotate(16.588 1075.4644767 555.45370627)"><stop offset="0" stop-color="#9500a1"/><stop offset="1" stop-color="#510097"/></linearGradient><path fill="none" stroke="url(#SVGID_18_)" stroke-width=".1" stroke-miterlimit="10" d="M573.39 430.2l3.07-66.13"/><linearGradient id="SVGID_19_" gradientUnits="userSpaceOnUse" x1="313.8531" y1="-214.6203" x2="335.6026" y2="-214.6203" gradientTransform="scale(1 -1) rotate(16.588 1075.4644767 555.45370627)"><stop offset="0" stop-color="#9500a1"/><stop offset="1" stop-color="#510097"/></linearGradient><path fill="none" stroke="url(#SVGID_19_)" stroke-width=".1" stroke-miterlimit="10" d="M574.32 429.97l2.9-66.11"/><path class="st25" d="M508.47 377.75l66.79-18.6M509.76 382.35l66.79-18.61M511.05 386.94l66.79-18.61M512.34 391.53l66.79-18.6M513.63 396.13l66.79-18.61M514.92 400.72l66.79-18.61M516.21 405.31l66.79-18.6M517.5 409.91l66.8-18.61M518.79 414.5l66.8-18.61M520.09 419.09l66.79-18.61M520.47 423.94l67.7-18.86M521.66 428.56l67.8-18.89M522.84 433.18l67.91-18.92M524.03 437.8l68.01-18.94M525.22 442.42l68.11-18.97M525.98 447.16l68.64-19.12M527.59 451.67l68.32-19.03M528.56 456.35l68.64-19.12M529.96 460.91l68.53-19.09M532.99 465.02l66.79-18.61"/><path class="st0" d="M1005.02 321.12l167.83-25.264v303.952l-99.66-198.168-24.5-29.46-20.39-2.23z"/><path class="st1" d="M1041.56 345.05s-7.6-12-14.75-14.44c0 0-7.7-4.11-13-4.37s-9.52-4-9.52-4-3.38 2.37-2.57 5c.459 1.452.774 2.946.94 4.46 0 0-18.56 25.74 4.9 37.43 23.46 11.69 37.29-16 37.29-16l-3.29-8.08z"/><path class="st1" d="M1053.12 354.35l9.81 6.06s14 2.31 19.06 7.94c0 0 6.78 5.48 9.09 10.25s7.36 7.22 7.36 7.22-.86 4-3.61 4.33c-1.514.142-3.011.43-4.47.86 0 0-16.46 27.14-36.38 10.11s.15-40.57.15-40.57l-3.18-2.16 2.17-4.04zm-8.26-1.14l6.09 5.18 2.17-4-11.56-9.3 3.3 8.12z"/><linearGradient id="SVGID_20_" gradientUnits="userSpaceOnUse" x1="-1108.0869" y1="-222.3187" x2="-1061.7366" y2="-222.3187" gradientTransform="rotate(157 -91.32332943 275.00203204)"><stop offset=".23" stop-color="#c555ff"/><stop offset="1" stop-color="#e900fd"/></linearGradient><path d="M1042.28 343.9s-7.59-12-14.75-14.45c0 0-7.7-4.1-13-4.37s-9.51-4-9.51-4-3.39 2.38-2.58 5c.459 1.453.777 2.946.95 4.46 0 0-18.56 25.75 4.89 37.44 23.45 11.69 37.29-16 37.29-16l-3.29-8.08z" fill="url(#SVGID_20_)"/><linearGradient id="SVGID_21_" gradientUnits="userSpaceOnUse" x1="-94.09" y1="1325.34" x2="-32.4318" y2="1325.34" gradientTransform="matrix(0 1 1 0 -254.62 438.03)"><stop offset=".23" stop-color="#c555ff"/><stop offset="1" stop-color="#e900fd"/></linearGradient><path d="M1053.84 353.19l9.81 6.06s14 2.31 19.06 7.94c0 0 6.78 5.49 9.09 10.25 1.68 3.086 4.243 5.599 7.36 7.22 0 0-.86 4-3.6 4.33-1.518.141-3.019.433-4.48.87 0 0-16.46 27.14-36.38 10.14s.15-40.56.15-40.56l-3.18-2.17 2.17-4.08zm-8.26-1.13l6.09 5.17 2.17-4-11.56-9.29 3.3 8.12z" fill="url(#SVGID_21_)"/><path d="M1084.3 398.57l2.88 5.14s0 5.81-5.63 2.65-4.52-2.65-4.52-2.65l7.27-5.14z" fill="#1b013a"/><path class="st1" d="M1085 397.8l2.89 5.14s0 5.8-5.63 2.64-4.53-2.64-4.53-2.64l7.27-5.14z"/><path class="st34" d="M1032.5 363.91c-3.943 3.332-8.938 5.16-14.1 5.16-3.941-.056-7.774-1.297-11-3.56-1.74-1.3-4.18-2.68-6.13-5.61-.738-1.125-1.339-2.333-1.79-3.6-.423-2.292-.517-4.632-.28-6.95.77-7.21 4.68-12.62 6.37-15l.12-.17s4.42-4 15.17-3.19c11.84 1 17.5 13.18 18.24 14.67.36.74.62 1.36.8 1.8-.03 1.36-.21 10.29-7.4 16.45z"/><linearGradient id="SVGID_22_" gradientUnits="userSpaceOnUse" x1="-156.9886" y1="1272.7379" x2="-118.8486" y2="1272.7379" gradientTransform="matrix(-.0438 .999 .999 .0438 -257.3822 430.4402)"><stop offset="0" stop-color="#9500a1"/><stop offset="1" stop-color="#510097"/></linearGradient><path d="M1033.22 362.31c-3.943 3.332-8.938 5.16-14.1 5.16-3.943-.053-7.777-1.298-11-3.57-1.74-1.29-4.19-2.67-6.13-5.61-.746-1.118-1.35-2.324-1.8-3.59-.423-2.292-.517-4.632-.28-6.95.77-7.21 4.68-12.62 6.37-15 .038-.061.081-.118.13-.17 0 0 4.41-4.05 15.16-3.19 11.84.94 17.5 13.18 18.24 14.67.36.74.63 1.36.8 1.8-.02 1.36-.2 10.29-7.39 16.45z" opacity=".94" fill="url(#SVGID_22_)"/><path class="st34" d="M1047.92 379.5c-.661 5.119.516 10.307 3.32 14.64 2.194 3.291 5.331 5.842 9 7.32 2 .76 4.52 2.06 8 2.1 1.346.015 2.689-.133 4-.44 2.156-.893 4.176-2.084 6-3.54 5.63-4.55 8.06-10.78 9.1-13.47.05-.12.07-.19.08-.2s1-5.9-5.56-14.46c-7.22-9.44-20.56-7.55-22.22-7.36-.81.1-1.48.21-1.94.3-1.11.72-8.51 5.73-9.78 15.11z"/><linearGradient id="SVGID_23_" gradientUnits="userSpaceOnUse" x1="-943.218" y1="-343.0944" x2="-905.0779" y2="-343.0944" gradientTransform="matrix(-.82 .58 -.58 -.82 112.17 635.15)"><stop offset="0" stop-color="#9500a1"/><stop offset="1" stop-color="#510097"/></linearGradient><path d="M1048.87 378c-.646 5.122.529 10.307 3.32 14.65 2.201 3.283 5.336 5.829 9 7.31 2 .76 4.52 2.07 8 2.11 1.346.008 2.688-.14 4-.44 2.159-.89 4.18-2.086 6-3.55 5.63-4.55 8.06-10.77 9.1-13.46l.08-.2s1-5.91-5.56-14.47c-7.21-9.43-20.56-7.55-22.22-7.35-.81.09-1.48.21-1.94.3-1.1.74-8.51 5.74-9.78 15.1z" opacity=".94" fill="url(#SVGID_23_)"/><path d="M999.7 336.88l-7.65-.87s-4.18 3.47 0 6.36h5.62l2.03-5.49z" fill="#1f033f"/><path class="st1" d="M999.7 336l-7.65-.86s-4.18 3.46 0 6.35h5.62l2.03-5.49z"/><path class="st0" d="M568.23 409.24l19.258 199.85H396.483L517.78 383.06z"/><path class="st1" d="M514.42 387.38l-39.87 89.2s-4.47 7.27 5 12.62l32.67 14.25s8.62 6.11 14-2.93c4.67-7.78 30.56-66.85 37.67-83.12 1.15-2.63 4.93-8.91 4.21-12-1-4.28-6.16-6.32-8.89-7.43-8.26-3.35-18.43-8-31.88-14.63.04-.04-8.71-5.34-12.91 4.04z"/><linearGradient id="SVGID_24_" gradientUnits="userSpaceOnUse" x1="839.6428" y1="351.8729" x2="899.3787" y2="349.2444" gradientTransform="matrix(.96 .29 .29 -.96 -412.91 529.14)"><stop offset=".23" stop-color="#c555ff"/><stop offset="1" stop-color="#e900fd"/></linearGradient><path fill="url(#SVGID_24_)" d="M516.13 391.77l-37.88 82.58 46.53 21.28 38.39-82.22z"/><linearGradient id="SVGID_25_" gradientUnits="userSpaceOnUse" x1="870.6871" y1="402.6485" x2="872.207" y2="402.6485" gradientTransform="matrix(.9568 .2909 .2909 -.9568 -413.8229 526.9996)"><stop offset=".23" stop-color="#c555ff"/><stop offset="1" stop-color="#e900fd"/></linearGradient><path fill="url(#SVGID_25_)" d="M536.726 394.342l1.228.561-.56 1.228-1.229-.561z"/><linearGradient id="SVGID_26_" gradientUnits="userSpaceOnUse" x1="873.7648" y1="401.7118" x2="881.0892" y2="401.7118" gradientTransform="matrix(.9568 .2909 .2909 -.9568 -413.8167 526.9949)"><stop offset=".23" stop-color="#c555ff"/><stop offset="1" stop-color="#e900fd"/></linearGradient><path fill="url(#SVGID_26_)" d="M539.297 396.112l6.659 3.039-.216.474-6.659-3.039z"/></g></g></svg>