<svg xmlns="http://www.w3.org/2000/svg" xmlns:xlink="http://www.w3.org/1999/xlink" viewBox="0 0 66.25 66.25"><defs><style>.cls-1{fill:url(#linear-gradient);}.cls-2{fill:#fff;}</style><linearGradient id="linear-gradient" y1="33.13" x2="66.25" y2="33.13" gradientUnits="userSpaceOnUse"><stop offset="0" stop-color="#9500a1"/><stop offset="1" stop-color="#510097"/></linearGradient></defs><title>logopure.svg</title><g id="Layer_2" data-name="Layer 2"><g id="Layer_1-2" data-name="Layer 1"><rect class="cls-1" width="66.25" height="66.25" rx="2.9" ry="2.9"/><path class="cls-2" d="M58.71,51.83a7.77,7.77,0,0,0-15.21,0,1.3,1.3,0,0,0,2.52.6,5.26,5.26,0,0,1,10.16,0,1.3,1.3,0,0,0,2.53-.6Z" transform="translate(-0.25 -0.25)"/><path class="cls-2" d="M23.25,51.46A7.77,7.77,0,0,0,8,51.46a1.3,1.3,0,0,0,2.53.6,5.26,5.26,0,0,1,10.16,0,1.32,1.32,0,0,0,1.25,1A1.3,1.3,0,0,0,23.25,51.46Z" transform="translate(-0.25 -0.25)"/></g></g></svg>