<svg xmlns="http://www.w3.org/2000/svg" xmlns:xlink="http://www.w3.org/1999/xlink" viewBox="0 0 526.14 352.11"><defs><style>.cls-2,.cls-4,.cls-5{fill:#2c0155}.cls-3{opacity:.6}.cls-4{opacity:.5}.cls-5{opacity:.3}</style><linearGradient id="linear-gradient" x1="212.96" y1="316.17" x2="323.09" y2="316.17" gradientUnits="userSpaceOnUse"><stop offset="0" stop-color="#9500a1"/><stop offset="1" stop-color="#510097"/></linearGradient><linearGradient id="linear-gradient-2" x1="281.71" y1="231.87" x2="342.44" y2="231.87" xlink:href="#linear-gradient"/><linearGradient id="linear-gradient-3" x1="290.84" y1="288.76" x2="290.88" y2="288.76" xlink:href="#linear-gradient"/><linearGradient id="linear-gradient-4" x1="233.65" y1="114.31" x2="279.26" y2="114.31" xlink:href="#linear-gradient"/><linearGradient id="linear-gradient-5" x1="191.07" y1="233.98" x2="249.47" y2="233.98" xlink:href="#linear-gradient"/></defs><g id="Layer_2" data-name="Layer 2"><g id="Layer_1-2" data-name="Layer 1"><g opacity=".8"><path class="cls-2" d="M353.22 149.37h-64.34l2 1.95 5.43 13.05h57c-.31.79 9.61-7.83-.09-15zM353.22 166.37H297.1l6.25 15h49.87c-.22.79 9.7-7.83 0-15zM353.22 183.37h-49l6.24 15h42.8c-.26.79 9.66-7.83-.04-15zM353.22 200.37h-42l6.24 15h35.72c-.18.79 9.74-7.83.04-15zM353.22 217.37h-34.89l6.25 15h28.64c-.22.79 9.7-7.83 0-15zM353.22 115.37h-70.57l1.36 15h69.21c-.22.79 9.7-7.83 0-15zM353.22 132.37h-69.07l.25 3.93.74 11.12h68.08c-.22.74 9.7-7.88 0-15.05z"/></g><g class="cls-3"><path class="cls-2" d="M142.35 78.33c9.71 7.17-.2 15.79 0 15h-86s-7-7 0-15z"/><path class="cls-4" d="M56.35 93.33s-6.58-6.58-.59-14.28H0v15h77.35c0 .18.4-.1 1-.72z"/></g><g class="cls-3"><path class="cls-2" d="M142.35 96.08c9.71 7.17-.2 15.79 0 15h-86s-7-7 0-15z"/><path class="cls-4" d="M56.35 111.08s-6.58-6.58-.59-14.28H0v15h77.35c0 .18.4-.1 1-.72z"/></g><g class="cls-3"><path class="cls-2" d="M142.35 114.31c9.71 7.17-.2 15.8 0 15h-86s-7-7 0-15z"/><path class="cls-4" d="M56.35 129.31s-6.58-6.58-.59-14.27H0v15h77.35c0 .17.4-.11 1-.73z"/></g><g class="cls-3"><path class="cls-2" d="M142.35 132.55c9.71 7.17-.2 15.79 0 15h-86s-7-7 0-15z"/><path class="cls-4" d="M56.35 147.55s-6.58-6.58-.59-14.28H0v15h77.35c0 .18.4-.1 1-.72z"/></g><g class="cls-3"><path class="cls-2" d="M142.35 150.82c9.71 7.17-.2 15.8 0 15h-86s-7-7 0-15z"/><path class="cls-4" d="M56.35 165.82s-6.58-6.58-.59-14.27H0v15h77.35c0 .17.4-.11 1-.73z"/></g><g class="cls-3"><path class="cls-2" d="M142.35 169.09c9.71 7.17-.2 15.8 0 15h-86s-7-7 0-15z"/><path class="cls-4" d="M56.35 184.09s-6.58-6.58-.59-14.27H0v15h77.35c0 .17.4-.11 1-.73z"/></g><g class="cls-3"><path class="cls-2" d="M142.35 186.49c9.71 7.17-.2 15.79 0 15h-86s-7-7 0-15z"/><path class="cls-4" d="M56.35 201.49s-6.58-6.58-.59-14.28H0v15h77.35c0 .18.4-.1 1-.72z"/></g><g class="cls-3"><path class="cls-2" d="M142.35 204.24c9.71 7.16-.2 15.79 0 15h-86s-7-7 0-15z"/><path class="cls-4" d="M56.35 219.24s-6.58-6.59-.59-14.28H0v15h77.35c0 .17.4-.11 1-.72z"/></g><g class="cls-3"><path class="cls-2" d="M142.35 222.47c9.71 7.17-.2 15.8 0 15h-86s-7-7 0-15z"/><path class="cls-4" d="M56.35 237.47s-6.58-6.58-.59-14.27H0v15h77.35c0 .17.4-.11 1-.73z"/></g><g class="cls-3"><path class="cls-2" d="M142.35 240.71c9.71 7.16-.2 15.79 0 15h-86s-7-7 0-15z"/><path class="cls-4" d="M56.35 255.71s-6.58-6.59-.59-14.28H0v15h77.35c0 .17.4-.11 1-.72z"/></g><g class="cls-3"><path class="cls-2" d="M142.35 259c9.71 7.17-.2 15.79 0 15h-86s-7-7 0-15z"/><path class="cls-4" d="M56.35 274s-6.58-6.58-.59-14.28H0v15h77.35c0 .18.4-.1 1-.72z"/></g><g class="cls-3"><path class="cls-2" d="M142.35 277.25c9.71 7.17-.2 15.8 0 15h-86s-7-7 0-15z"/><path class="cls-4" d="M56.35 292.25s-6.58-6.58-.59-14.27H0v15h77.35c0 .17.4-.11 1-.73z"/></g><g class="cls-3"><path class="cls-2" d="M142.35 296.26c9.71 7.17-.2 15.79 0 15h-86s-7-7 0-15z"/><path class="cls-4" d="M56.35 311.26s-6.58-6.58-.59-14.28H0v15h77.35c0 .18.4-.1 1-.72z"/></g><g class="cls-3"><path class="cls-2" d="M142.35 314c9.71 7.17-.2 15.79 0 15h-86s-7-7 0-15z"/><path class="cls-4" d="M56.35 329s-6.58-6.58-.59-14.28H0v15h77.35c0 .18.4-.1 1-.72z"/></g><g class="cls-3"><path class="cls-2" d="M142.35 332.24c9.71 7.17-.2 15.8 0 15h-86s-7-7 0-15z"/><path class="cls-4" d="M56.35 347.24s-6.58-6.58-.59-14.27H0v15h77.35c0 .17.4-.11 1-.73z"/></g><path class="cls-5" d="M74.1 60.83H0v15h74.1c-.2.79 9.71-7.83 0-15zM74.1 43.33H0v15h74.1c-.2.79 9.71-7.83 0-15zM74.1 25.83H0v15h74.1c-.2.79 9.71-7.83 0-15zM74.1 8.33H0v15h74.1c-.2.79 9.71-7.83 0-15z"/><g class="cls-3"><path class="cls-2" d="M383.79 148.59c-9.71 7.17.2 15.8 0 15h86s7-7 0-15z"/><path class="cls-4" d="M469.79 163.59s6.58-6.58.6-14.27h55.75v15h-77.35c0 .17-.4-.11-1-.73z"/></g><g class="cls-3"><path class="cls-2" d="M383.79 166.87c-9.71 7.17.2 15.79 0 15h86s7-7 0-15z"/><path class="cls-4" d="M469.79 181.87s6.58-6.59.6-14.28h55.75v15h-77.35c0 .18-.4-.1-1-.72z"/></g><g class="cls-3"><path class="cls-2" d="M383.79 184.26c-9.71 7.17.2 15.79 0 15h86s7-7 0-15z"/><path class="cls-4" d="M469.79 199.26s6.58-6.58.6-14.28h55.75v15h-77.35c0 .18-.4-.1-1-.72z"/></g><g class="cls-3"><path class="cls-2" d="M383.79 202c-9.71 7.17.2 15.79 0 15h86s7-7 0-15z"/><path class="cls-4" d="M469.79 217s6.58-6.58.6-14.28h55.75v15h-77.35c0 .18-.4-.1-1-.72z"/></g><g class="cls-3"><path class="cls-2" d="M383.79 220.24c-9.71 7.17.2 15.8 0 15h86s7-7 0-15z"/><path class="cls-4" d="M469.79 235.24s6.58-6.58.6-14.27h55.75v15h-77.35c0 .17-.4-.11-1-.73z"/></g><g class="cls-3"><path class="cls-2" d="M383.79 238.48c-9.71 7.17.2 15.79 0 15h86s7-7 0-15z"/><path class="cls-4" d="M469.79 253.48s6.58-6.58.6-14.28h55.75v15h-77.35c0 .18-.4-.1-1-.72z"/></g><g class="cls-3"><path class="cls-2" d="M383.79 256.75c-9.71 7.17.2 15.8 0 15h86s7-7 0-15z"/><path class="cls-4" d="M469.79 271.75s6.58-6.58.6-14.27h55.75v15h-77.35c0 .17-.4-.11-1-.73z"/></g><g class="cls-3"><path class="cls-2" d="M383.79 275c-9.71 7.17.2 15.8 0 15h86s7-7 0-15z"/><path class="cls-4" d="M469.79 290s6.58-6.58.6-14.27h55.75v15h-77.35c0 .17-.4-.11-1-.73z"/></g><g class="cls-3"><path class="cls-2" d="M383.79 294c-9.71 7.17.2 15.8 0 15h86s7-7 0-15z"/><path class="cls-4" d="M469.79 309s6.58-6.58.6-14.27h55.75v15h-77.35c0 .17-.4-.11-1-.73z"/></g><g class="cls-3"><path class="cls-2" d="M383.79 311.78c-9.71 7.17.2 15.8 0 15h86s7-7 0-15z"/><path class="cls-4" d="M469.79 326.78s6.58-6.58.6-14.27h55.75v15h-77.35c0 .17-.4-.11-1-.73z"/></g><g class="cls-3"><path class="cls-2" d="M383.79 330c-9.71 7.16.2 15.79 0 15h86s7-7 0-15z"/><path class="cls-4" d="M469.79 345s6.58-6.59.6-14.28h55.75v15h-77.35c0 .17-.4-.11-1-.72z"/></g><path class="cls-5" d="M451.56 131.68h74.1v15h-74.1c.2.8-9.7-7.83 0-15zM451.56 114.18h74.1v15h-74.1c.2.82-9.7-7.83 0-15zM451.56 96.68h74.1v15h-74.1c.2.8-9.7-7.83 0-15zM451.56 79.18h74.1v15h-74.1c.2.82-9.7-7.83 0-15z"/><path d="M322.6 323.7l-3.38-40.9c-8.94 4.38-18.54 5.91-28.15 5.91h-.24a.66.66 0 0 1 .05.1c-12.17 4.87-46.25 0-46.25 0 .15-.36.29-.73.43-1.1h-1c-10.56 0-20.82-1.54-31.11-2.22.13 14.71 1.43 31.7 2.11 39.66l.35.18s0 11.53 1.07 24.2h46.18l7.59-24.38 10.27 24.38h42.56z" fill="url(#linear-gradient)"/><path d="M323 158.35l-41.29-16.15S284 241.12 284 260.6c0 18.08 4.18 27.75 4.79 29s4.27 12.07 8.27 17.07l.92-.1.08.1s19-2 20-4a8.4 8.4 0 0 0 .44-3.27l1.82 22.09h.2l9.74-4.87 2.45-14.62s9.73-29.21 9.73-51.12S323 158.35 323 158.35zM316.82 284l.4-.19.78 9.19zm3.71-18.52l-2.43 12.17-1.67 3.35-.08-.64-3-14.47-.06-.41-2.49-12.18v-31.65l4.86 12.17L318.1 246l2.43 12.17z" fill="url(#linear-gradient-2)"/><path d="M290.88 288.81a.55.55 0 0 0 0-.1z" fill="url(#linear-gradient-3)"/><path d="M241.76 122.83c0 2.44 4.87 9.74 4.87 9.74v9.74l19.48 14.61 13.15-16.24-4.37-1.68.95-1.53v-21.94c7.31-17 0-14.61 0-14.61s0-2.43-2.43-14.6-19.48-14.61-19.48-14.61a26.36 26.36 0 0 0-17 7.3c-7.3 7.31 0 31.65 0 31.65-7.34 2.44 4.83 12.17 4.83 12.17z" fill="url(#linear-gradient-4)"/><path class="cls-2" d="M280.07 272.88l-2.39-14.36-2.44-19.47-2.43-26.78-1.68-20.14-4.06.58-1-2L271 190q-.27-3.4-.56-6.8a.82.82 0 0 0-.07-.28c-.65-1.45-2.29-5.71-2.3-6.93 0 0-.06-12.88-.08-16.41a.89.89 0 0 0-.9-.88h-4v56l4.85 60.56a.8.8 0 0 0 .18.47l6.18 8.25a.91.91 0 0 0 1.56-.21l4.14-10.41a.87.87 0 0 0 .07-.48zM291.07 178.15s13-1 14 0c0 0-5-11-10-11a48.77 48.77 0 0 1-4 11z"/><path class="cls-2" d="M291.07 178.15l10.62-.44s-7.62-7.56-9.62-8.56c0 0 1 6-1 9z"/><path d="M245 287.85c11.48-29.81-2.81-101.29-2.81-101.29l-.13-43.76-43.7 21.85-7.3 85.21v19.48l14.61 51.12 9.39 4.7c-.32-3.75-.78-9.51-1.19-16.09a21.23 21.23 0 0 0 6.84.47 73 73 0 0 0 12.35-.83c2.93-3.91 11.52-20.06 11.92-20.82l-.36.92.36-.92zm-29.59-30.69v-17l2.43-4.87 2.43 4.87v19.44l-2.43 12.17-4.87-7.3zM213 285.49zm30.71 2.21h1.39a.78.78 0 0 1-.05.14z" fill="url(#linear-gradient-5)"/><path class="cls-2" d="M272.9 93.87a7.51 7.51 0 0 0-2.59-1.25 10.72 10.72 0 0 0-3.65-.22l-6.19 1.17a7.57 7.57 0 0 0-2.38 1.31l-.83-.66 3.13-.63s0-.28-.07-.38l-12.2 2.36s-.11.32.09.47l2.95-.6-.43 1a7.6 7.6 0 0 0-2.69-.35l-6.2 1.17a10.54 10.54 0 0 0-3.31 1.54 7.56 7.56 0 0 0-2 2.11s-1.89 3.17 1.42 7.52a8.85 8.85 0 0 0 8.33 3.35A10.54 10.54 0 0 0 253 105c1.57-5.31-.19-7.17-.19-7.17a4.07 4.07 0 0 0-1.66-1.22l.13-.3c.64.27 2.15 1 2.51 2.16a18.27 18.27 0 0 1 .55 2.19.23.23 0 0 0 .06.12c.25.27 1.37 1.29 1.93-.37a.49.49 0 0 0 0-.12L256 98a.19.19 0 0 1 0-.08c.05-.32.46-2.29 1.4-3a.23.23 0 0 0 .07-.1l.34.28a4.08 4.08 0 0 0-1.18 1.9s-.95 2.37 2.44 6.74a10.51 10.51 0 0 0 8.72 3.86 8.86 8.86 0 0 0 6.54-6.17c1.49-5.3-1.43-7.56-1.43-7.56zm-15.82.73a5.16 5.16 0 0 0-1.49 3.32l.4 2.13a.22.22 0 0 1 0 .14c-.1.23-.49.89-1.16.25a.24.24 0 0 1-.06-.11l-.47-2a.31.31 0 0 0 0-.12 7 7 0 0 0-2.71-2.41l.22-.48 5.06-1 .31.25zM213.68 336.5c9.71 7.17-.2 15.8 0 15h-86s-7-7 0-15zM213.68 319.5c9.71 7.17-.2 15.8 0 15h-86s-7-7 0-15zM213.68 302.5c9.71 7.17-.2 15.8 0 15h-86s-7-7 0-15zM213.68 285.5c9.71 7.17-.2 15.8 0 15h-86s-7-7 0-15zM213.68 268.5c9.71 7.17-.2 15.8 0 15h-86s-7-7 0-15zM401.19 336.5c9.7 7.17-.2 15.8 0 15h-86s-7-7 0-15zM401.19 319.5c9.7 7.17-.2 15.8 0 15h-86s-7-7 0-15zM401.19 302.5c9.7 7.17-.2 15.8 0 15h-86s-7-7 0-15zM401.19 285.5c9.7 7.17-.2 15.8 0 15h-86s-7-7 0-15zM401.19 268.5c9.7 7.17-.2 15.8 0 15h-86s-7-7 0-15zM401.19 251.5c9.7 7.17-.2 15.8 0 15h-86s-7-7 0-15zM401.19 234.5c9.7 7.17-.2 15.8 0 15h-86s-7-7 0-15z"/><path fill="#ffe979" opacity=".3" d="M225.82 0h53.44l55.11 352.12-148.55-.62 40-351.5z"/></g></g></svg>