<svg xmlns="http://www.w3.org/2000/svg" xmlns:xlink="http://www.w3.org/1999/xlink" viewBox="0 0 922.96 370.2"><defs><style>.cls-1{fill:#ffe979;}.cls-1,.cls-12{opacity:0.5;}.cls-12,.cls-2,.cls-3,.cls-4,.cls-8{fill:#2c0155;}.cls-2{opacity:0.6;}.cls-3{opacity:0.8;}.cls-5{fill:url(#linear-gradient);}.cls-6{fill:url(#linear-gradient-2);}.cls-7{fill:url(#linear-gradient-3);}.cls-8{opacity:0.3;}.cls-9{fill:url(#linear-gradient-4);}.cls-10{fill:url(#linear-gradient-5);}.cls-11{fill:url(#linear-gradient-6);}.cls-13{fill:url(#linear-gradient-7);}.cls-14{opacity:0.1;fill:url(#linear-gradient-8);}.cls-15{fill:url(#linear-gradient-9);}.cls-16{fill:url(#linear-gradient-10);}</style><linearGradient id="linear-gradient" x1="363" y1="237.17" x2="862.11" y2="237.17" gradientUnits="userSpaceOnUse"><stop offset="0" stop-color="#9500a1"/><stop offset="1" stop-color="#510097"/></linearGradient><linearGradient id="linear-gradient-2" x1="1979.32" y1="306.66" x2="2195.03" y2="306.66" gradientTransform="matrix(-1, 0, 0, 1, 2578, 0)" xlink:href="#linear-gradient"/><linearGradient id="linear-gradient-3" x1="1789.86" y1="180.53" x2="1994.16" y2="180.53" gradientTransform="matrix(-1, 0, 0, 1, 2578, 0)" xlink:href="#linear-gradient"/><linearGradient id="linear-gradient-4" x1="1994.16" y1="163.08" x2="2075.76" y2="163.08" gradientTransform="matrix(-1, 0, 0, 1, 2578, 0)" xlink:href="#linear-gradient"/><linearGradient id="linear-gradient-5" x1="1774.45" y1="217.39" x2="1918.26" y2="217.39" gradientTransform="matrix(-1, 0, 0, 1, 2578, 0)" xlink:href="#linear-gradient"/><linearGradient id="linear-gradient-6" x1="1922.82" y1="281.49" x2="2025.54" y2="281.49" gradientTransform="matrix(-1, 0, 0, 1, 2578, 0)" xlink:href="#linear-gradient"/><linearGradient id="linear-gradient-7" x1="1813.26" y1="240.51" x2="2142.74" y2="240.51" gradientTransform="matrix(-1, 0, 0, 1, 2578, 0)" xlink:href="#linear-gradient"/><linearGradient id="linear-gradient-8" x1="1813.26" y1="240.51" x2="2142.74" y2="240.51" gradientTransform="matrix(-1, 0, 0, 1, 2578, 0)" gradientUnits="userSpaceOnUse"><stop offset="0.23" stop-color="#c555ff"/><stop offset="1" stop-color="#e900fd"/></linearGradient><linearGradient id="linear-gradient-9" x1="2044.94" y1="199.29" x2="2167.64" y2="199.29" gradientTransform="matrix(-1, 0, 0, 1, 2578, 0)" xlink:href="#linear-gradient"/><linearGradient id="linear-gradient-10" x1="832.33" y1="281.52" x2="922.96" y2="281.52" xlink:href="#linear-gradient"/></defs><title>s7</title><g id="Layer_2" data-name="Layer 2"><g id="Layer_1-2" data-name="Layer 1"><path class="cls-1" d="M376.91,148.7l-27.37,12.4s28.58,15.84,32.37,22c0,0-68.53,2.76-78.86-26.17,0,0,6.2-3.1,17.22-2.75l25.12-17.94L321.77,127l-11.49,1.78L291,124.6v-2.41l10.4-3.28L0,0V322l41-7.63L28,311.6v-2.41l43.73-13.78a14,14,0,0,1,.07-7.6c1.18-6.23,7.53-7.68,9.62-8L56.58,247.89l1.72-2.41s12.4-.34,18.94,1.38c3.51.92,18.59,13.81,31.83,25.58l.75-.08.19,0,7.67-1L116,256.67l-.18-1.42h0L112,221.72l3.44-1.72,12.74,1,31.48,53.12a3.5,3.5,0,0,0,.55-.43s4.38-1.69,10.8-4.14c14.35-6.49,40.38-17.92,49.31-19.47l-.25-.2c.58,0,1.16,0,1.73,0a4.14,4.14,0,0,1,.73,0s-6.54-4.48-7.57-9c0,0,53.72-4.14,69.56,18.59,0,0-15.15,4.82-37.54-2.07l-2.75,3.1-.17.07-.11.11c12-1.11,22.14,3.76,30.11,10.15L435,241l77-39Z"/><path class="cls-2" d="M628.89,142c-10.12-10.18-27.58-18.79-36.76-22.71l0,0-1.41-.53a27.42,27.42,0,0,0-4.65-1.68c-15.37-5.42-28.59-8.61-28.59-8.61l-.8-.23.11-.08S538,70.94,507,73.81l.11-.11.17-.07,2.75-3.1c22.39,6.89,37.54,2.07,37.54,2.07C531.7,49.87,478,54,478,54c1,4.47,7.57,9,7.57,9a4.14,4.14,0,0,0-.73,0c-.57,0-1.15,0-1.73,0l.25.2c-8.93,1.55-35,13-49.31,19.47-6.42,2.45-10.8,4.14-10.8,4.14a3.5,3.5,0,0,1-.55.43L391.2,34l-12.74-1L375,34.72l3.83,33.54h0l.18,1.42,1.67,14.66-7.67,1-.19,0-.75.08c-13.24-11.77-28.32-24.66-31.83-25.58-6.54-1.72-18.94-1.38-18.94-1.38l-1.72,2.41,24.84,31.93c-2.09.31-8.44,1.76-9.62,8a14,14,0,0,0-.07,7.6L291,122.19v2.41l19.28,4.13,57.25-8.86.26-.1.87-.12-48.39,34.56c-11-.35-17.22,2.75-17.22,2.75,10.33,28.93,78.86,26.17,78.86,26.17-3.79-6.19-32.37-22-32.37-22l56.52-25.59c6.4,3.87,42.31,7,42.31,7l1.27-1a41.43,41.43,0,0,0,8.8-7l3-2.36c41.33,16.37,85.67,18.47,118.58,16.75v-.09C618,148.81,628.89,142,628.89,142Z"/><path class="cls-3" d="M365.89,329c-10.12-10.18-27.58-18.79-36.76-22.71l0,0-1.41-.53a27.42,27.42,0,0,0-4.65-1.68c-15.37-5.42-28.59-8.61-28.59-8.61l-.8-.23.11-.08S275,257.94,244,260.81l.11-.11.17-.07,2.75-3.1c22.39,6.89,37.54,2.07,37.54,2.07C268.7,236.87,215,241,215,241c1,4.47,7.57,9,7.57,9a4.14,4.14,0,0,0-.73,0c-.57,0-1.15,0-1.73,0l.25.2c-8.93,1.55-35,13-49.31,19.47-6.42,2.45-10.8,4.14-10.8,4.14a3.5,3.5,0,0,1-.55.43L128.2,221l-12.74-1L112,221.72l3.83,33.54h0l.18,1.42,1.67,14.66-7.67,1-.19,0-.75.08c-13.24-11.77-28.32-24.66-31.83-25.58-6.54-1.72-18.94-1.38-18.94-1.38l-1.72,2.41,24.84,31.93c-2.09.31-8.44,1.76-9.62,8a14,14,0,0,0-.07,7.6L28,309.19v2.41l19.28,4.13,57.25-8.86.26-.1.87-.12L57.27,341.21c-11-.35-17.22,2.75-17.22,2.75,10.33,28.93,78.86,26.17,78.86,26.17-3.79-6.19-32.37-22-32.37-22l56.52-25.59c6.4,3.87,42.31,7,42.31,7l1.27-1a41.43,41.43,0,0,0,8.8-7l3-2.36c41.33,16.37,85.67,18.47,118.58,16.75v-.09C355,335.81,365.89,329,365.89,329Z"/><path class="cls-4" d="M923,298.89c-16.77-16.87-45.71-31.13-60.91-37.62l.06-.08-2.35-.88c-4.56-1.89-7.45-2.88-7.69-2.79-25.48-9-47.38-14.26-47.38-14.26l-1.34-.38.2-.15s-31.29-61.58-82.64-56.81l.18-.2.28-.1,4.57-5.14c37.09,11.42,62.2,3.43,62.2,3.43-26.25-37.67-115.27-30.82-115.27-30.82,1.71,7.42,12.55,14.84,12.55,14.84a6.74,6.74,0,0,0-1.22,0c-.94,0-1.9-.06-2.87,0l.41.32C667,170.76,623.81,189.69,600,200.45c-10.64,4.06-17.9,6.85-17.9,6.85a5.6,5.6,0,0,1-.9.73l-52.17-88L508,118.28l-5.71,2.86,6.34,55.57h0l.3,2.36,2.77,24.29L498.92,205l-.33,0-1.24.14c-22-19.5-46.94-40.87-52.75-42.4-10.84-2.85-31.38-2.28-31.38-2.28l-2.86,4,41.16,52.92c-3.45.51-14,2.9-15.94,13.23a23.18,23.18,0,0,0-.11,12.6L363,266.08v4l32,6.84,94.87-14.68.43-.15,1.43-.21-80.18,57.27c-18.27-.57-28.54,4.57-28.54,4.57,17.12,47.93,130.68,43.37,130.68,43.37C507.38,356.82,460,330.57,460,330.57l93.66-42.4c10.61,6.41,70.12,11.58,70.12,11.58l2.12-1.69a69.2,69.2,0,0,0,14.58-11.67l4.89-3.92c68.5,27.14,142,30.62,196.52,27.77,0-.05,0-.1,0-.15C904.94,310.2,923,298.89,923,298.89Z"/><path class="cls-5" d="M804.69,241c-15.41-4-26.82-18.83-36-32.52-2.27-3.17-2-7-2.1-11.08-22.9-11.34-47-12.32-47-12.32l1.74-2a99.41,99.41,0,0,1-12-3.18c-7.42-2.28-12-10.27-19.41-13.12a21,21,0,0,0-8.65-1.23c1.41,1.13,2.38,1.8,2.38,1.8-7.52-1-42.45,13.5-69.28,25.32C596.5,199.5,582.13,205,582.13,205c-1.71,1.71-5.71,2.86-6.28,1.71-17.22-21-44.61-22.18-67.3-32.31L511.94,201l-13,1.7-.33,0-4.91.55,3,4.28c-11.8,20.17-39.24,21.24-60.79,19.94-2.56,6.41-.42,13.44-.42,13.44L363,263.8v4l32,6.85L489.83,260l.43-.16,19.4-2.85,18.52,40,28.25-12.79.59.22c21.69,9.13,67.91,12,67.91,12,11.41-6.28,19.4-16.55,19.4-16.55C713.12,307.29,787.08,310.83,841.9,308c.85-17.66,9.18-35.44,20.21-49A540.64,540.64,0,0,0,804.69,241Z"/><path class="cls-6" d="M598.68,265.51,460,328.28s47.37,26.25,53.64,36.53c0,0-113.56,4.56-130.68-43.37,0,0,10.27-5.14,28.54-4.57l95.87-68.48S581.56,251.82,598.68,265.51Z"/><path class="cls-7" d="M583.84,205.59s89-41.66,101.58-39.94c0,0-10.84-7.42-12.55-14.84,0,0,89-6.85,115.27,30.82,0,0-25.11,8-62.2-3.43l-4.57,5.14s-43.94,16-45.65,27.39C675.72,210.73,615.23,210.73,583.84,205.59Z"/><path class="cls-8" d="M583.84,205.59s89-41.66,101.58-39.94c0,0-10.84-7.42-12.55-14.84,0,0,89-6.85,115.27,30.82,0,0-25.11,8-62.2-3.43l-4.57,5.14s-43.94,16-45.65,27.39C675.72,210.73,615.23,210.73,583.84,205.59Z"/><path class="cls-9" d="M583.84,210.16l-54.78-92.45L508,116l-5.71,2.85,9.7,85S582.13,207.3,583.84,210.16Z"/><path class="cls-8" d="M583.84,210.16l-54.78-92.45L508,116l-5.71,2.85,9.7,85S582.13,207.3,583.84,210.16Z"/><path class="cls-10" d="M660.34,218.28c86.28-89.88,143.21,22.17,143.21,22.17s-45.54,35.35-143.21-21l-.6-.6Z"/><path class="cls-4" d="M660.34,218.28c86.28-89.88,143.21,22.17,143.21,22.17s-45.54,35.35-143.21-21l-.6-.6Z"/><path class="cls-11" d="M655.18,272.36l-31.39,25.11s-65.63-5.71-71.33-12.56l42.8-19.4,14.26,7.42Z"/><path class="cls-12" d="M655.18,272.36l-31.39,25.11s-65.63-5.71-71.33-12.56l42.8-19.4,14.26,7.42Z"/><path class="cls-13" d="M764.74,258.09S471.49,203.89,452.63,215c0,0-21.72,1.43-16.59,23.11,0,0,50.22-6.28,68.48,9.13,0,0,64.49,0,93.59,14.27l15.41,5.7S748.19,270.08,764.74,258.09Z"/><path class="cls-14" d="M764.74,258.09S471.49,203.89,452.63,215c0,0-21.72,1.43-16.59,23.11,0,0,50.22-6.28,68.48,9.13,0,0,64.49,0,93.59,14.27l15.41,5.7S748.19,270.08,764.74,258.09Z"/><path class="cls-15" d="M529.63,240.4l3.43-5.13s-77.61-71.91-88.46-74.76-31.38-2.28-31.38-2.28l-2.86,4,47.94,61.63Z"/><path class="cls-8" d="M529.63,240.4l3.43-5.13s-77.61-71.91-88.46-74.76-31.38-2.28-31.38-2.28l-2.86,4,47.94,61.63Z"/><path class="cls-16" d="M833.79,307.74s-9.13-35.38,18.26-52.5c.73-.51,47.59,17.91,70.91,41.37C923,296.61,903.41,308.88,833.79,307.74Z"/></g></g></svg>