<svg xmlns="http://www.w3.org/2000/svg" xmlns:xlink="http://www.w3.org/1999/xlink" viewBox="0 0 715.2 459.97"><defs><style>.cls-1,.cls-12,.cls-13{fill:#2c0155;}.cls-2{fill:url(#linear-gradient);}.cls-3{opacity:0.35;}.cls-4{opacity:0.1;}.cls-5{opacity:0.7;}.cls-6{opacity:0.3;}.cls-7{fill:#ffe979;}.cls-12,.cls-7{opacity:0.5;}.cls-8{fill:url(#linear-gradient-2);}.cls-9{fill:url(#linear-gradient-3);}.cls-10{fill:url(#linear-gradient-4);}.cls-11{fill:url(#linear-gradient-5);}.cls-13,.cls-16{opacity:0.9;}.cls-14{fill:url(#linear-gradient-6);}.cls-15{fill:url(#linear-gradient-7);}.cls-17{opacity:0.4;}.cls-18{fill:url(#linear-gradient-8);}</style><linearGradient id="linear-gradient" x1="611" y1="240.45" x2="704.38" y2="240.45" gradientUnits="userSpaceOnUse"><stop offset="0" stop-color="#9500a1"/><stop offset="1" stop-color="#510097"/></linearGradient><linearGradient id="linear-gradient-2" x1="146.57" y1="184.13" x2="261.64" y2="184.13" xlink:href="#linear-gradient"/><linearGradient id="linear-gradient-3" x1="266.25" y1="133.85" x2="272.07" y2="133.85" gradientTransform="matrix(0.98, 0.18, -0.2, 1.04, 33.93, -64.99)" gradientUnits="userSpaceOnUse"><stop offset="0.23" stop-color="#c555ff"/><stop offset="1" stop-color="#e900fd"/></linearGradient><linearGradient id="linear-gradient-4" x1="260.84" y1="162.97" x2="266.01" y2="162.97" gradientTransform="matrix(0.97, 0.25, -0.3, 1.13, 61.26, -106.64)" xlink:href="#linear-gradient-3"/><linearGradient id="linear-gradient-5" x1="259.55" y1="106.97" x2="285.53" y2="106.97" gradientTransform="matrix(0.99, 0.13, -0.13, 0.99, 20.41, -39.22)" xlink:href="#linear-gradient-3"/><linearGradient id="linear-gradient-6" x1="120.74" y1="231.64" x2="122.11" y2="231.64" xlink:href="#linear-gradient"/><linearGradient id="linear-gradient-7" x1="119.48" y1="159.3" x2="195.49" y2="159.3" xlink:href="#linear-gradient"/><linearGradient id="linear-gradient-8" x1="159.16" y1="151.53" x2="275.86" y2="151.53" xlink:href="#linear-gradient"/></defs><title>storeimage_2</title><g id="Layer_2" data-name="Layer 2"><g id="Layer_1-2" data-name="Layer 1"><path class="cls-1" d="M700.11,214.92c9.71,7.17-.2,15.8,0,15h-86s-7-7,0-15Z"/><path class="cls-1" d="M700.11,197.92c9.71,7.17-.2,15.8,0,15h-86s-7-7,0-15Z"/><path class="cls-1" d="M700.11,180.92c9.71,7.17-.2,15.8,0,15h-86s-7-7,0-15Z"/><path class="cls-1" d="M700.11,163.92c9.71,7.17-.2,15.8,0,15h-86s-7-7,0-15Z"/><path class="cls-1" d="M700.11,146.92c9.71,7.17-.2,15.8,0,15h-86s-7-7,0-15Z"/><path class="cls-1" d="M700.11,129.92c9.71,7.17-.2,15.8,0,15h-86s-7-7,0-15Z"/><path class="cls-1" d="M700.11,95.92c9.71,7.17-.2,15.8,0,15h-86s-7-7,0-15Z"/><path class="cls-1" d="M700.11,78.92c9.71,7.17-.2,15.8,0,15h-86s-7-7,0-15Z"/><path class="cls-1" d="M700.11,61.92c9.71,7.17-.2,15.8,0,15h-86s-7-7,0-15Z"/><path class="cls-1" d="M700.11,44.92c9.71,7.17-.2,15.8,0,15h-86s-7-7,0-15Z"/><path class="cls-1" d="M700.11,27.92c9.71,7.17-.2,15.8,0,15h-86s-7-7,0-15Z"/><path class="cls-1" d="M700.11,10.92c9.71,7.17-.2,15.8,0,15h-86s-7-7,0-15Z"/><path class="cls-1" d="M700.11,112.92c9.71,7.17-.2,15.8,0,15h-86s-7-7,0-15Z"/><path class="cls-1" d="M700.11,436.92c9.71,7.17-.2,15.8,0,15h-86s-7-7,0-15Z"/><path class="cls-1" d="M700.11,419.92c9.71,7.17-.2,15.8,0,15h-86s-7-7,0-15Z"/><path class="cls-1" d="M700.11,402.92c9.71,7.17-.2,15.8,0,15h-86s-7-7,0-15Z"/><path class="cls-1" d="M700.11,385.92c9.71,7.17-.2,15.8,0,15h-86s-7-7,0-15Z"/><path class="cls-1" d="M700.11,368.92c9.71,7.17-.2,15.8,0,15h-86s-7-7,0-15Z"/><path class="cls-1" d="M700.11,351.92c9.71,7.17-.2,15.8,0,15h-86s-7-7,0-15Z"/><path class="cls-1" d="M700.11,317.92c9.71,7.17-.2,15.8,0,15h-86s-7-7,0-15Z"/><path class="cls-1" d="M700.11,300.92c9.71,7.17-.2,15.8,0,15h-86s-7-7,0-15Z"/><path class="cls-1" d="M700.11,283.92c9.71,7.17-.2,15.8,0,15h-86s-7-7,0-15Z"/><path class="cls-1" d="M700.11,266.92c9.71,7.17-.2,15.8,0,15h-86s-7-7,0-15Z"/><path class="cls-1" d="M700.11,249.92c9.71,7.17-.2,15.8,0,15h-86s-7-7,0-15Z"/><path class="cls-2" d="M700.11,232.92c9.71,7.17-.2,15.8,0,15h-86s-7-7,0-15Z"/><path class="cls-1" d="M700.11,334.92c9.71,7.17-.2,15.8,0,15h-86s-7-7,0-15Z"/><path class="cls-1" d="M599.11,435.92c9.71,7.17-.2,15.8,0,15h-86s-7-7,0-15Z"/><path class="cls-1" d="M599.11,418.92c9.71,7.17-.2,15.8,0,15h-86s-7-7,0-15Z"/><path class="cls-1" d="M599.11,401.92c9.71,7.17-.2,15.8,0,15h-86s-7-7,0-15Z"/><path class="cls-1" d="M599.11,384.92c9.71,7.17-.2,15.8,0,15h-86s-7-7,0-15Z"/><path class="cls-1" d="M599.11,367.92c9.71,7.17-.2,15.8,0,15h-86s-7-7,0-15Z"/><path class="cls-1" d="M599.11,350.92c9.71,7.17-.2,15.8,0,15h-86s-7-7,0-15Z"/><path class="cls-1" d="M599.11,316.92c9.71,7.17-.2,15.8,0,15h-86s-7-7,0-15Z"/><path class="cls-1" d="M599.11,299.92c9.71,7.17-.2,15.8,0,15h-86s-7-7,0-15Z"/><path class="cls-1" d="M599.11,282.92c9.71,7.17-.2,15.8,0,15h-86s-7-7,0-15Z"/><path class="cls-1" d="M599.11,333.92c9.71,7.17-.2,15.8,0,15h-86s-7-7,0-15Z"/><g class="cls-3"><path class="cls-1" d="M409.11,444.92c9.71,7.17-.2,15.8,0,15h-86s-7-7,0-15Z"/><path class="cls-1" d="M409.11,427.92c9.71,7.17-.2,15.8,0,15h-86s-7-7,0-15Z"/><path class="cls-1" d="M409.11,410.92c9.71,7.17-.2,15.8,0,15h-86s-7-7,0-15Z"/><path class="cls-1" d="M409.11,393.92c9.71,7.17-.2,15.8,0,15h-86s-7-7,0-15Z"/><path class="cls-1" d="M409.11,376.92c9.71,7.17-.2,15.8,0,15h-86s-7-7,0-15Z"/><path class="cls-1" d="M409.11,359.92c9.71,7.17-.2,15.8,0,15h-86s-7-7,0-15Z"/><path class="cls-1" d="M409.11,325.92c9.71,7.17-.2,15.8,0,15h-86s-7-7,0-15Z"/><path class="cls-1" d="M409.11,308.92c9.71,7.17-.2,15.8,0,15h-86s-7-7,0-15Z"/><path class="cls-1" d="M409.11,291.92c9.71,7.17-.2,15.8,0,15h-86s-7-7,0-15Z"/><path class="cls-1" d="M409.11,274.92c9.71,7.17-.2,15.8,0,15h-86s-7-7,0-15Z"/><path class="cls-1" d="M409.11,257.92c9.71,7.17-.2,15.8,0,15h-86s-7-7,0-15Z"/><path class="cls-1" d="M409.11,240.92c9.71,7.17-.2,15.8,0,15h-86s-7-7,0-15Z"/><path class="cls-1" d="M409.11,342.92c9.71,7.17-.2,15.8,0,15h-86s-7-7,0-15Z"/></g><g class="cls-3"><path class="cls-1" d="M409.11,222.92c9.71,7.17-.2,15.8,0,15h-86s-7-7,0-15Z"/><path class="cls-1" d="M409.11,205.92c9.71,7.17-.2,15.8,0,15h-86s-7-7,0-15Z"/><path class="cls-1" d="M409.11,188.92c9.71,7.17-.2,15.8,0,15h-86s-7-7,0-15Z"/><path class="cls-1" d="M409.11,171.92c9.71,7.17-.2,15.8,0,15h-86s-7-7,0-15Z"/><path class="cls-1" d="M409.11,154.92c9.71,7.17-.2,15.8,0,15h-86s-7-7,0-15Z"/><path class="cls-1" d="M409.11,137.92c9.71,7.17-.2,15.8,0,15h-86s-7-7,0-15Z"/><path class="cls-1" d="M409.11,103.92c9.71,7.17-.2,15.8,0,15h-86s-7-7,0-15Z"/><path class="cls-1" d="M409.11,86.92c9.71,7.17-.2,15.8,0,15h-86s-7-7,0-15Z"/><path class="cls-1" d="M409.11,120.92c9.71,7.17-.2,15.8,0,15h-86s-7-7,0-15Z"/></g><g class="cls-4"><path class="cls-1" d="M353.11,411.92c9.71,7.17-.2,15.8,0,15h-86s-7-7,0-15Z"/><path class="cls-1" d="M353.11,394.92c9.71,7.17-.2,15.8,0,15h-86s-7-7,0-15Z"/><path class="cls-1" d="M353.11,377.92c9.71,7.17-.2,15.8,0,15h-86s-7-7,0-15Z"/><path class="cls-1" d="M353.11,360.92c9.71,7.17-.2,15.8,0,15h-86s-7-7,0-15Z"/><path class="cls-1" d="M353.11,343.92c9.71,7.17-.2,15.8,0,15h-86s-7-7,0-15Z"/><path class="cls-1" d="M353.11,326.92c9.71,7.17-.2,15.8,0,15h-86s-7-7,0-15Z"/><path class="cls-1" d="M353.11,292.92c9.71,7.17-.2,15.8,0,15h-86s-7-7,0-15Z"/><path class="cls-1" d="M353.11,275.92c9.71,7.17-.2,15.8,0,15h-86s-7-7,0-15Z"/><path class="cls-1" d="M353.11,258.92c9.71,7.17-.2,15.8,0,15h-86s-7-7,0-15Z"/><path class="cls-1" d="M353.11,241.92c9.71,7.17-.2,15.8,0,15h-86s-7-7,0-15Z"/><path class="cls-1" d="M353.11,224.92c9.71,7.17-.2,15.8,0,15h-86s-7-7,0-15Z"/><path class="cls-1" d="M353.11,207.92c9.71,7.17-.2,15.8,0,15h-86s-7-7,0-15Z"/><path class="cls-1" d="M353.11,309.92c9.71,7.17-.2,15.8,0,15h-86s-7-7,0-15Z"/></g><g class="cls-4"><path class="cls-1" d="M580.11,335.92c9.71,7.17-.2,15.8,0,15h-86s-7-7,0-15Z"/><path class="cls-1" d="M580.11,318.92c9.71,7.17-.2,15.8,0,15h-86s-7-7,0-15Z"/><path class="cls-1" d="M580.11,301.92c9.71,7.17-.2,15.8,0,15h-86s-7-7,0-15Z"/><path class="cls-1" d="M580.11,284.92c9.71,7.17-.2,15.8,0,15h-86s-7-7,0-15Z"/><path class="cls-1" d="M580.11,267.92c9.71,7.17-.2,15.8,0,15h-86s-7-7,0-15Z"/><path class="cls-1" d="M580.11,250.92c9.71,7.17-.2,15.8,0,15h-86s-7-7,0-15Z"/><path class="cls-1" d="M580.11,216.92c9.71,7.17-.2,15.8,0,15h-86s-7-7,0-15Z"/><path class="cls-1" d="M580.11,199.92c9.71,7.17-.2,15.8,0,15h-86s-7-7,0-15Z"/><path class="cls-1" d="M580.11,182.92c9.71,7.17-.2,15.8,0,15h-86s-7-7,0-15Z"/><path class="cls-1" d="M580.11,165.92c9.71,7.17-.2,15.8,0,15h-86s-7-7,0-15Z"/><path class="cls-1" d="M580.11,148.92c9.71,7.17-.2,15.8,0,15h-86s-7-7,0-15Z"/><path class="cls-1" d="M580.11,131.92c9.71,7.17-.2,15.8,0,15h-86s-7-7,0-15Z"/><path class="cls-1" d="M580.11,233.92c9.71,7.17-.2,15.8,0,15h-86s-7-7,0-15Z"/></g><g class="cls-4"><path class="cls-1" d="M511.11,367.92c9.71,7.17-.2,15.8,0,15h-86s-7-7,0-15Z"/><path class="cls-1" d="M511.11,350.92c9.71,7.17-.2,15.8,0,15h-86s-7-7,0-15Z"/><path class="cls-1" d="M511.11,333.92c9.71,7.17-.2,15.8,0,15h-86s-7-7,0-15Z"/><path class="cls-1" d="M511.11,316.92c9.71,7.17-.2,15.8,0,15h-86s-7-7,0-15Z"/><path class="cls-1" d="M511.11,299.92c9.71,7.17-.2,15.8,0,15h-86s-7-7,0-15Z"/><path class="cls-1" d="M511.11,282.92c9.71,7.17-.2,15.8,0,15h-86s-7-7,0-15Z"/><path class="cls-1" d="M511.11,248.92c9.71,7.17-.2,15.8,0,15h-86s-7-7,0-15Z"/><path class="cls-1" d="M511.11,231.92c9.71,7.17-.2,15.8,0,15h-86s-7-7,0-15Z"/><path class="cls-1" d="M511.11,214.92c9.71,7.17-.2,15.8,0,15h-86s-7-7,0-15Z"/><path class="cls-1" d="M511.11,197.92c9.71,7.17-.2,15.8,0,15h-86s-7-7,0-15Z"/><path class="cls-1" d="M511.11,180.92c9.71,7.17-.2,15.8,0,15h-86s-7-7,0-15Z"/><path class="cls-1" d="M511.11,163.92c9.71,7.17-.2,15.8,0,15h-86s-7-7,0-15Z"/><path class="cls-1" d="M511.11,265.92c9.71,7.17-.2,15.8,0,15h-86s-7-7,0-15Z"/></g><g class="cls-5"><path class="cls-1" d="M646.11,393.92c9.71,7.17-.2,15.8,0,15h-86s-7-7,0-15Z"/><path class="cls-1" d="M646.11,376.92c9.71,7.17-.2,15.8,0,15h-86s-7-7,0-15Z"/><path class="cls-1" d="M646.11,359.92c9.71,7.17-.2,15.8,0,15h-86s-7-7,0-15Z"/><path class="cls-1" d="M646.11,342.92c9.71,7.17-.2,15.8,0,15h-86s-7-7,0-15Z"/><path class="cls-1" d="M646.11,325.92c9.71,7.17-.2,15.8,0,15h-86s-7-7,0-15Z"/><path class="cls-1" d="M646.11,308.92c9.71,7.17-.2,15.8,0,15h-86s-7-7,0-15Z"/><path class="cls-1" d="M646.11,274.92c9.71,7.17-.2,15.8,0,15h-86s-7-7,0-15Z"/><path class="cls-1" d="M646.11,257.92c9.71,7.17-.2,15.8,0,15h-86s-7-7,0-15Z"/><path class="cls-1" d="M646.11,240.92c9.71,7.17-.2,15.8,0,15h-86s-7-7,0-15Z"/><path class="cls-1" d="M646.11,223.92c9.71,7.17-.2,15.8,0,15h-86s-7-7,0-15Z"/><path class="cls-1" d="M646.11,206.92c9.71,7.17-.2,15.8,0,15h-86s-7-7,0-15Z"/><path class="cls-1" d="M646.11,189.92c9.71,7.17-.2,15.8,0,15h-86s-7-7,0-15Z"/><path class="cls-1" d="M646.11,291.92c9.71,7.17-.2,15.8,0,15h-86s-7-7,0-15Z"/></g><g class="cls-4"><path class="cls-1" d="M189.11,396.92c9.71,7.17-.2,15.8,0,15h-86s-7-7,0-15Z"/><path class="cls-1" d="M189.11,379.92c9.71,7.17-.2,15.8,0,15h-86s-7-7,0-15Z"/><path class="cls-1" d="M189.11,362.92c9.71,7.17-.2,15.8,0,15h-86s-7-7,0-15Z"/><path class="cls-1" d="M189.11,345.92c9.71,7.17-.2,15.8,0,15h-86s-7-7,0-15Z"/><path class="cls-1" d="M189.11,328.92c9.71,7.17-.2,15.8,0,15h-86s-7-7,0-15Z"/><path class="cls-1" d="M189.11,311.92c9.71,7.17-.2,15.8,0,15h-86s-7-7,0-15Z"/><path class="cls-1" d="M189.11,277.92c9.71,7.17-.2,15.8,0,15h-86s-7-7,0-15Z"/><path class="cls-1" d="M189.11,260.92c9.71,7.17-.2,15.8,0,15h-86s-7-7,0-15Z"/><path class="cls-1" d="M189.11,243.92c9.71,7.17-.2,15.8,0,15h-86s-7-7,0-15Z"/><path class="cls-1" d="M189.11,226.92c9.71,7.17-.2,15.8,0,15h-86s-7-7,0-15Z"/><path class="cls-1" d="M189.11,209.92c9.71,7.17-.2,15.8,0,15h-86s-7-7,0-15Z"/><path class="cls-1" d="M189.11,192.92c9.71,7.17-.2,15.8,0,15h-86s-7-7,0-15Z"/><path class="cls-1" d="M189.11,294.92c9.71,7.17-.2,15.8,0,15h-86s-7-7,0-15Z"/></g><g class="cls-6"><path class="cls-1" d="M117.11,422.92c9.71,7.17-.2,15.8,0,15h-86s-7-7,0-15Z"/><path class="cls-1" d="M117.11,405.92c9.71,7.17-.2,15.8,0,15h-86s-7-7,0-15Z"/><path class="cls-1" d="M117.11,388.92c9.71,7.17-.2,15.8,0,15h-86s-7-7,0-15Z"/><path class="cls-1" d="M117.11,371.92c9.71,7.17-.2,15.8,0,15h-86s-7-7,0-15Z"/><path class="cls-1" d="M117.11,354.92c9.71,7.17-.2,15.8,0,15h-86s-7-7,0-15Z"/><path class="cls-1" d="M117.11,337.92c9.71,7.17-.2,15.8,0,15h-86s-7-7,0-15Z"/><path class="cls-1" d="M117.11,303.92c9.71,7.17-.2,15.8,0,15h-86s-7-7,0-15Z"/><path class="cls-1" d="M117.11,286.92c9.71,7.17-.2,15.8,0,15h-86s-7-7,0-15Z"/><path class="cls-1" d="M117.11,269.92c9.71,7.17-.2,15.8,0,15h-86s-7-7,0-15Z"/><path class="cls-1" d="M117.11,252.92c9.71,7.17-.2,15.8,0,15h-86s-7-7,0-15Z"/><path class="cls-1" d="M117.11,235.92c9.71,7.17-.2,15.8,0,15h-86s-7-7,0-15Z"/><path class="cls-1" d="M117.11,218.92c9.71,7.17-.2,15.8,0,15h-86s-7-7,0-15Z"/><path class="cls-1" d="M117.11,320.92c9.71,7.17-.2,15.8,0,15h-86s-7-7,0-15Z"/></g><path class="cls-1" d="M89.11,436.92c9.71,7.17-.2,15.8,0,15h-86s-7-7,0-15Z"/><path class="cls-1" d="M89.11,419.92c9.71,7.17-.2,15.8,0,15h-86s-7-7,0-15Z"/><path class="cls-1" d="M89.11,402.92c9.71,7.17-.2,15.8,0,15h-86s-7-7,0-15Z"/><path class="cls-1" d="M89.11,385.92c9.71,7.17-.2,15.8,0,15h-86s-7-7,0-15Z"/><path class="cls-1" d="M89.11,368.92c9.71,7.17-.2,15.8,0,15h-86s-7-7,0-15Z"/><path class="cls-1" d="M89.11,351.92c9.71,7.17-.2,15.8,0,15h-86s-7-7,0-15Z"/><path class="cls-1" d="M89.11,334.92c9.71,7.17-.2,15.8,0,15h-86s-7-7,0-15Z"/><path class="cls-1" d="M301.11,198.92c-3-1-11,9-11,9l-39.42-2.68-.58,7.68,39,3s6,10.46,9.21,10.37h0l7.8.62,3-28Z"/><polygon class="cls-7" points="309.11 198.92 715.2 143.85 715.11 457.92 307.11 226.92 309.11 198.92"/><path class="cls-8" d="M261.41,206.42c-.57-1.82-5.49-3-6.13-3.13h-.08l0-.13h-.17a14.44,14.44,0,0,0-2.55.52l-1.94.37a3.4,3.4,0,0,0-.8-.25L184,194a3.2,3.2,0,0,1-.61-.15L181.2,193c-5.31-16.49-16.83-39.42-16.83-39.42s-4.86-4.69-12.43.3S147,166.29,147,166.29l16.07,39a3,3,0,0,0,2.62,2.88l13.79,1.7a2.31,2.31,0,0,0,.37,0l69.44.08a2.81,2.81,0,0,0,.82-.13c.2,2.77.46,5.65.73,6a1.28,1.28,0,0,0,1.79.1.22.22,0,0,1,.28.05,1.54,1.54,0,0,0,2.3,0c.06-.08.21,0,.28.07a1.56,1.56,0,0,0,2.32,0c.05-.08.2,0,.26.06a2.33,2.33,0,0,0,2.88,0c.11-.1.24-.14.26-.28C261.36,214.6,262,208.18,261.41,206.42Z"/><path class="cls-6" d="M261.41,206.42c-.57-1.82-5.49-3-6.13-3.13h-.08l0-.13h-.17a14.44,14.44,0,0,0-2.55.52l-1.94.37a3.4,3.4,0,0,0-.8-.25L184,194a3.2,3.2,0,0,1-.61-.15L181.2,193c-5.31-16.49-16.83-39.42-16.83-39.42s-4.86-4.69-12.43.3S147,166.29,147,166.29l16.07,39a3,3,0,0,0,2.62,2.88l13.79,1.7a2.31,2.31,0,0,0,.37,0l69.44.08a2.81,2.81,0,0,0,.82-.13c.2,2.77.46,5.65.73,6a1.28,1.28,0,0,0,1.79.1.22.22,0,0,1,.28.05,1.54,1.54,0,0,0,2.3,0c.06-.08.21,0,.28.07a1.56,1.56,0,0,0,2.32,0c.05-.08.2,0,.26.06a2.33,2.33,0,0,0,2.88,0c.11-.1.24-.14.26-.28C261.36,214.6,262,208.18,261.41,206.42Z"/><polygon class="cls-9" points="268.32 129.3 271.11 117.97 276.19 118.93 273.51 130.28 268.32 129.3"/><polygon class="cls-10" points="266.55 138.22 263.97 148.05 268.97 149.37 271.31 140.47 266.55 138.22"/><path class="cls-11" d="M281.38,83.07c-7-1.54-14.41,5.26-16.61,15.2s1.67,19.24,8.64,20.78,14.41-5.26,16.61-15.19S288.35,84.61,281.38,83.07Zm7.67,20.34c-2.07,9.33-9.05,15.72-15.6,14.27s-10.19-10.19-8.12-19.52,9.05-15.72,15.6-14.27S291.11,94.08,289.05,103.41Z"/><path class="cls-12" d="M182,104.5s-3.25-10.81,4.24-24.23c0,0,11.48,2,14.05,2.36s3.28-.26,3.28-.26,4.32-3.38,3.66-8.67c0,0-5.54-2.63-5-7.12l7.7.94.62-5.14,2.16-1.69,3.21.39s1.28.16.87-1.85-4.93-13-4.93-13,2.28-13.4.1-16.92c0,0-3.72-7-4.92-7.77A23.5,23.5,0,0,1,196.42,34c-8.41,4.84-18.09,9.53-18.09,9.53L177.78,48l-2.57-.31s-.17-3.93-2.66-4.88-4.24,2.74-4.24,2.74,0,11.07,1.42,15.15-1.35,5.7-1.35,5.7-4.39,4-4.78,7.23c0,0,.48,1.37,1.12,1.44L162,97.52S179.83,106.2,182,104.5Z"/><path class="cls-1" d="M168.38,66.38s2.8-1.61,1.35-5.7-1.42-15.15-1.42-15.15,1.75-3.7,4.24-2.74,2.66,4.88,2.66,4.88l2.57.31.55-4.49S188,38.8,196.42,34A23.5,23.5,0,0,0,207,21.57c1.2.8,4.92,7.77,4.92,7.77S215.25,7.59,182.19,1s-37.94,22.75-37.94,22.75c-6.82-2.78-12.7,13.44-12.7,13.44s-11.22,92.42-11.77,96.91-6.71,7-6.71,7a15.48,15.48,0,0,0,9.8,5.1c6.42.78,9.36-7.33,9.36-7.33s11.68-74.78,12.23-79.27,1.1-3.33,1.1-3.33,7.84,15.48,18,17.37C164,70.4,168.38,66.38,168.38,66.38Z"/><path class="cls-13" d="M172.47,221.22l-53-.65c-.59,5.31,2.17,10.72,2.66,11.63H122a28.82,28.82,0,0,0,3.23,5.17l6.47,87.29s-27.16,68.53-22,113.79h12.93L151.78,326l17.59-101.59h-.05Z"/><path class="cls-14" d="M122.11,233.2h0a25.82,25.82,0,0,1-1.37-3.12A14,14,0,0,0,122.11,233.2Z"/><path class="cls-15" d="M193.13,129.44c-2.35-1.68-11-25.33-11-25.33L162.4,96.38c-23.82,13.87-19.8,58.38-19.8,58.38l-5.48,22a48.85,48.85,0,0,1-8.63,13c-5.49,5.67-8.86,26.74-8.86,26.74a44,44,0,0,0-.13,5l52.95.65,11.25-66.55c.05.35.89.47,7.44-5.59C199.6,142.26,193.13,129.44,193.13,129.44Z"/><path class="cls-1" d="M173.41,327l-1.94-104.74-3.15,3.16h.05l-16.46,95,1.45,6.55c-12.28,30.39-6.46,112.5-6.46,112.5h12.28C157.24,436.23,173.41,327,173.41,327Z"/><g class="cls-16"><path class="cls-1" d="M110.4,447.8v2.59L135,453s8.4.64,9.7-1.3a18.05,18.05,0,0,0,1.88-5.7L110.4,447.8"/><path class="cls-17" d="M110.4,447.8v2.59L135,453s8.4.64,9.7-1.3a18.05,18.05,0,0,0,1.88-5.7L110.4,447.8"/><path class="cls-1" d="M110.4,437.46h10.34v2.59s9.7,4.52,25.22,3.88c0,0,2.59,1.94-2.59,6.46,0,0,1.3,1.29-11,0s-22-2.59-22-2.59Z"/></g><path class="cls-1" d="M147.9,448.8v2.59L172.47,454s8.4.64,9.7-1.3a18.05,18.05,0,0,0,1.88-5.7L147.9,448.8"/><path class="cls-17" d="M147.9,448.8v2.59L172.47,454s8.4.64,9.7-1.3a18.05,18.05,0,0,0,1.88-5.7L147.9,448.8"/><path class="cls-1" d="M147.9,438.46h10.34v2.59s9.7,4.52,25.22,3.88c0,0,2.59,1.94-2.59,6.46,0,0,1.3,1.29-11,0s-22-2.59-22-2.59Z"/><path class="cls-18" d="M275.38,138a1.55,1.55,0,0,0-.06-2.3c-.09,0,0-.21.05-.28a1.55,1.55,0,0,0-.06-2.31c-.08,0,0-.2.06-.27a2.33,2.33,0,0,0-.05-2.88c-.1-.1-.14-.23-.28-.24-1.3-.1-7.73-.57-9.47,0s-2.88,5.55-3,6.19a.27.27,0,0,0,0,.09,3,3,0,0,0-1.86.09l-61.1,24.15c-7.56-15.52-24.34-38.35-24.34-38.35s-5.57-3.81-12.21,2.38-2.77,13-2.77,13l20.95,33.53,5.09,9.8a3,3,0,0,0,3.83,1.38l12.8-5.44.32-.16,60.14-34.71a3,3,0,0,0,.56-.43.28.28,0,0,0,.2.05c1.63-.1,10.43-.75,11.1-1.25a1.29,1.29,0,0,0,.07-1.79A.22.22,0,0,1,275.38,138Z"/><path class="cls-2" d="M700.11,232.92c9.71,7.17-.2,15.8,0,15h-86s-7-7,0-15Z"/></g></g></svg>