<svg xmlns="http://www.w3.org/2000/svg" xmlns:xlink="http://www.w3.org/1999/xlink" viewBox="0 0 1004.09 620.94"><defs><style>.cls-1{opacity:0.5;}.cls-2{fill:url(#linear-gradient);}.cls-3{fill:url(#linear-gradient-2);}.cls-4{fill:url(#linear-gradient-3);}.cls-5{fill:url(#linear-gradient-4);}.cls-6{fill:url(#linear-gradient-5);}.cls-7{fill:url(#linear-gradient-6);}.cls-8{fill:url(#linear-gradient-7);}.cls-9{fill:url(#linear-gradient-8);}.cls-10{fill:url(#linear-gradient-9);}.cls-11{fill:url(#linear-gradient-10);}.cls-12{fill:url(#linear-gradient-11);}.cls-13{fill:url(#linear-gradient-12);}.cls-14{fill:url(#linear-gradient-13);}.cls-15{fill:url(#linear-gradient-14);}.cls-16{fill:url(#linear-gradient-15);}.cls-17{fill:#2c0155;}.cls-18{fill:url(#linear-gradient-16);}.cls-19{fill:url(#linear-gradient-17);}.cls-20{fill:url(#linear-gradient-18);}.cls-21{fill:url(#linear-gradient-19);}.cls-22{fill:url(#linear-gradient-20);}.cls-23{fill:url(#linear-gradient-21);}.cls-24{fill:url(#linear-gradient-22);}.cls-25{fill:url(#linear-gradient-23);}.cls-26{fill:url(#linear-gradient-24);}.cls-27{fill:url(#linear-gradient-25);}.cls-28,.cls-39{fill:#ffe979;}.cls-29{fill:url(#linear-gradient-26);}.cls-30{fill:url(#linear-gradient-27);}.cls-31{fill:url(#linear-gradient-28);}.cls-32{fill:url(#linear-gradient-29);}.cls-33{fill:url(#linear-gradient-30);}.cls-34{fill:url(#linear-gradient-31);}.cls-35{fill:#fff;opacity:0.7;}.cls-36{opacity:0.4;}.cls-37{fill:url(#linear-gradient-32);}.cls-38{fill:url(#linear-gradient-33);}.cls-39{opacity:0.3;}.cls-40{fill:url(#linear-gradient-34);}.cls-41{fill:url(#linear-gradient-35);}.cls-42{fill:url(#linear-gradient-36);}.cls-43{fill:url(#linear-gradient-37);}.cls-44{fill:url(#linear-gradient-38);}</style><linearGradient id="linear-gradient" x1="706.73" y1="494.75" x2="803.81" y2="494.75" gradientUnits="userSpaceOnUse"><stop offset="0" stop-color="#9500a1"/><stop offset="1" stop-color="#510097"/></linearGradient><linearGradient id="linear-gradient-2" x1="706.73" y1="513.99" x2="803.81" y2="513.99" xlink:href="#linear-gradient"/><linearGradient id="linear-gradient-3" x1="706.73" y1="533.65" x2="803.81" y2="533.65" xlink:href="#linear-gradient"/><linearGradient id="linear-gradient-4" x1="706.73" y1="553.72" x2="803.81" y2="553.72" xlink:href="#linear-gradient"/><linearGradient id="linear-gradient-5" x1="706.73" y1="575.05" x2="803.81" y2="575.05" xlink:href="#linear-gradient"/><linearGradient id="linear-gradient-6" x1="809.62" y1="494.75" x2="906.7" y2="494.75" xlink:href="#linear-gradient"/><linearGradient id="linear-gradient-7" x1="809.62" y1="513.99" x2="906.7" y2="513.99" xlink:href="#linear-gradient"/><linearGradient id="linear-gradient-8" x1="809.62" y1="533.65" x2="906.7" y2="533.65" xlink:href="#linear-gradient"/><linearGradient id="linear-gradient-9" x1="809.62" y1="553.72" x2="906.7" y2="553.72" xlink:href="#linear-gradient"/><linearGradient id="linear-gradient-10" x1="809.62" y1="575.05" x2="906.7" y2="575.05" xlink:href="#linear-gradient"/><linearGradient id="linear-gradient-11" x1="752.32" y1="387.68" x2="849.4" y2="387.68" xlink:href="#linear-gradient"/><linearGradient id="linear-gradient-12" x1="752.32" y1="406.92" x2="849.4" y2="406.92" xlink:href="#linear-gradient"/><linearGradient id="linear-gradient-13" x1="752.32" y1="426.58" x2="849.4" y2="426.58" xlink:href="#linear-gradient"/><linearGradient id="linear-gradient-14" x1="752.32" y1="446.65" x2="849.4" y2="446.65" xlink:href="#linear-gradient"/><linearGradient id="linear-gradient-15" x1="752.32" y1="467.98" x2="849.4" y2="467.98" xlink:href="#linear-gradient"/><linearGradient id="linear-gradient-16" x1="481.71" y1="486.8" x2="578.79" y2="486.8" xlink:href="#linear-gradient"/><linearGradient id="linear-gradient-17" x1="481.71" y1="506.04" x2="578.79" y2="506.04" xlink:href="#linear-gradient"/><linearGradient id="linear-gradient-18" x1="481.71" y1="525.7" x2="578.79" y2="525.7" xlink:href="#linear-gradient"/><linearGradient id="linear-gradient-19" x1="481.71" y1="545.78" x2="578.79" y2="545.78" xlink:href="#linear-gradient"/><linearGradient id="linear-gradient-20" x1="481.71" y1="567.11" x2="578.79" y2="567.11" xlink:href="#linear-gradient"/><linearGradient id="linear-gradient-21" x1="539.01" y1="531.14" x2="636.09" y2="531.14" xlink:href="#linear-gradient"/><linearGradient id="linear-gradient-22" x1="539.01" y1="550.38" x2="636.09" y2="550.38" xlink:href="#linear-gradient"/><linearGradient id="linear-gradient-23" x1="539.01" y1="570.04" x2="636.09" y2="570.04" xlink:href="#linear-gradient"/><linearGradient id="linear-gradient-24" x1="539.01" y1="590.11" x2="636.09" y2="590.11" xlink:href="#linear-gradient"/><linearGradient id="linear-gradient-25" x1="539.01" y1="611.44" x2="636.09" y2="611.44" xlink:href="#linear-gradient"/><linearGradient id="linear-gradient-26" x1="350.38" y1="506.04" x2="447.46" y2="506.04" xlink:href="#linear-gradient"/><linearGradient id="linear-gradient-27" x1="350.38" y1="525.28" x2="447.46" y2="525.28" xlink:href="#linear-gradient"/><linearGradient id="linear-gradient-28" x1="350.38" y1="544.94" x2="447.46" y2="544.94" xlink:href="#linear-gradient"/><linearGradient id="linear-gradient-29" x1="350.38" y1="565.02" x2="447.46" y2="565.02" xlink:href="#linear-gradient"/><linearGradient id="linear-gradient-30" x1="350.38" y1="586.35" x2="447.46" y2="586.35" xlink:href="#linear-gradient"/><linearGradient id="linear-gradient-31" x1="242.94" y1="328.73" x2="290.2" y2="328.73" xlink:href="#linear-gradient"/><linearGradient id="linear-gradient-32" x1="332.05" y1="248.62" x2="376.22" y2="248.62" xlink:href="#linear-gradient"/><linearGradient id="linear-gradient-33" x1="321.99" y1="389.66" x2="398.95" y2="389.66" xlink:href="#linear-gradient"/><linearGradient id="linear-gradient-34" x1="94.83" y1="532.81" x2="191.91" y2="532.81" xlink:href="#linear-gradient"/><linearGradient id="linear-gradient-35" x1="94.83" y1="552.05" x2="191.91" y2="552.05" xlink:href="#linear-gradient"/><linearGradient id="linear-gradient-36" x1="94.83" y1="571.71" x2="191.91" y2="571.71" xlink:href="#linear-gradient"/><linearGradient id="linear-gradient-37" x1="94.83" y1="591.78" x2="191.91" y2="591.78" xlink:href="#linear-gradient"/><linearGradient id="linear-gradient-38" x1="94.83" y1="613.12" x2="191.91" y2="613.12" xlink:href="#linear-gradient"/></defs><title>t8</title><g id="Layer_2" data-name="Layer 2"><g id="Layer_1-2" data-name="Layer 1"><g class="cls-1"><g class="cls-1"><path class="cls-2" d="M799.37,486.93c10.09,7.45-.21,16.42,0,15.59H710s-7.27-7.28,0-15.59Z"/><path class="cls-3" d="M799.37,506.17c10.09,7.45-.21,16.42,0,15.59H710s-7.27-7.28,0-15.59Z"/><path class="cls-4" d="M799.37,525.82c10.09,7.46-.21,16.43,0,15.6H710s-7.27-7.28,0-15.6Z"/><path class="cls-5" d="M799.37,545.9c10.09,7.45-.21,16.42,0,15.59H710s-7.27-7.27,0-15.59Z"/><path class="cls-6" d="M799.37,567.23c10.09,7.45-.21,16.42,0,15.6H710s-7.27-7.28,0-15.6Z"/></g><g class="cls-1"><path class="cls-7" d="M902.26,486.93c10.09,7.45-.21,16.42,0,15.59H812.85s-7.28-7.28,0-15.59Z"/><path class="cls-8" d="M902.26,506.17c10.09,7.45-.21,16.42,0,15.59H812.85s-7.28-7.28,0-15.59Z"/><path class="cls-9" d="M902.26,525.82c10.09,7.46-.21,16.43,0,15.6H812.85s-7.28-7.28,0-15.6Z"/><path class="cls-10" d="M902.26,545.9c10.09,7.45-.21,16.42,0,15.59H812.85s-7.28-7.27,0-15.59Z"/><path class="cls-11" d="M902.26,567.23c10.09,7.45-.21,16.42,0,15.6H812.85s-7.28-7.28,0-15.6Z"/></g><g class="cls-1"><path class="cls-12" d="M845,379.86c10.09,7.45-.21,16.42,0,15.59H755.55s-7.28-7.28,0-15.59Z"/><path class="cls-13" d="M845,399.1c10.09,7.45-.21,16.42,0,15.59H755.55s-7.28-7.28,0-15.59Z"/><path class="cls-14" d="M845,418.75c10.09,7.46-.21,16.42,0,15.6H755.55s-7.28-7.28,0-15.6Z"/><path class="cls-15" d="M845,438.83c10.09,7.45-.21,16.42,0,15.59H755.55s-7.28-7.27,0-15.59Z"/><path class="cls-16" d="M845,460.16c10.09,7.45-.21,16.42,0,15.59H755.55s-7.28-7.27,0-15.59Z"/></g><g id="layer1" class="cls-1"><ellipse id="path4653" class="cls-17" cx="588.42" cy="157.49" rx="16.81" ry="19.3"/><ellipse id="ellipse4655" class="cls-17" cx="604.61" cy="122.62" rx="16.81" ry="19.3"/><path class="cls-17" d="M596.14,105.57c48.77,9.37,80.19,38.2,119,58.79h0s-13-39.16-30.32-59S637.36,66.81,608,61.8s-55.33,9.26-73.08,25.77c-6.94,6.46-13.1,14.84-18,22.67-9-22.91-24.4-46.32-46.8-51.44s-48.71,3.51-65.91,17.62a93,93,0,0,0-13.83,14.93c-1.17.45-2.33.93-3.49,1.44-27.23,12.12-51.75,37.41-63.67,60.41s-14.9,63.16-14.9,63.16h0c12.49-11.22,23.64-23.31,35.18-35.15a125.8,125.8,0,0,0-7,23.52c-4.77,25.46,4,64.77,4,64.78h0C360.76,236,372.7,200,401.78,168.93c-2,19.51-2.6,36.4-2.6,36.41h0c7.68-18.75,13.82-38.61,21.21-53.07,16.21-11.05,34-13.69,53.14-15.35l1.27.7a82.13,82.13,0,0,0-15.46,4.77c-14.91,6.79-28.63,20.36-31.57,35.13s9.09,29.91,22.6,41h0c13.52,11.13,36.78,21,36.78,21h0c-12.56-18.4-28.93-33.43-24.73-51,2.43-10.36,7.71-18.69,14.12-26.21,2.44,4.81,6.82,8,11.82,8a11.4,11.4,0,0,0,3.82-.66l-2.89,38.07,9-42.45a15.78,15.78,0,0,0,1.23-1.76,20,20,0,0,0,.94,1.78l4.53,46.1.94-7.92.74,10,6.24-34.81q3.71,7.16,7.24,14.32L526.66,235l2.85-22c37.51,82.28,57.88,166.66,70.38,250.69,5.9,42.75,10.14,85.83,14.27,128.93h0l91.29-1.35C701.94,567.36,677.63,540,670.74,517,635.1,418.08,607,315.6,559.62,223.15a17.37,17.37,0,0,0,1.87-2.42h0c4.41-6.91,6.75-17.68.58-31.31-4.68-10.34-12.73-21.39-21-30.13,18,12.2,35.29,25.17,47.53,43.24,14.91,21.83,2,41-4.14,64.22h0S609,253.9,620.34,239.7h0c8.1-10.15,14.12-22.85,12.57-36,12.94,21.63,22.56,44.22,35.69,65.8h0s8.73-39.32,4-64.78S651.61,148,629.05,128.52s-51.95-21.09-75.47-16.6h0a95.92,95.92,0,0,0-16.51,4.93C555.6,107.72,573.7,101.18,596.14,105.57ZM493.62,121.65l0-.1.09.08ZM542,185.08c1.2,2.19,2.36,4.43,3.45,6.75a43.39,43.39,0,0,1,3.8,11.91q-3.21-5.81-6.53-11.55Zm25.42-40.47c-11.47-4.11-27.29-6.74-40.2-8.35,25.68,2,49,3.89,69.52,22.49.71.63,1.4,1.27,2.08,1.9A144.73,144.73,0,0,0,567.46,144.61Z"/></g><g id="layer1-2" data-name="layer1"><ellipse id="path4653-2" data-name="path4653" class="cls-17" cx="723.92" cy="155.4" rx="16.81" ry="19.3"/><ellipse id="ellipse4655-2" data-name="ellipse4655" class="cls-17" cx="707.73" cy="120.53" rx="16.81" ry="19.3"/><path class="cls-17" d="M775.27,114.76a95.92,95.92,0,0,0-16.51-4.93h0c-23.52-4.49-52.9-2.86-75.46,16.6s-38.75,50.75-43.52,76.21,4,64.78,4,64.78h0c13.13-21.58,22.75-44.17,35.69-65.8-1.55,13.14,4.47,25.84,12.57,36h0c11.34,14.2,35.87,27.05,35.87,27.05h0c-6.17-23.26-19-42.39-4.14-64.23,12.24-18.06,29.5-31,47.54-43.23-8.27,8.74-16.32,19.79-21,30.13-6.17,13.63-3.83,24.4.58,31.31h0a17.37,17.37,0,0,0,1.87,2.42C705.34,313.51,677.24,416,641.6,514.87c-6.89,23.06-31.2,50.4-34.72,74.31l91.3,1.35h0c4.13-43.1,8.37-86.18,14.27-128.93,12.5-84,32.87-168.41,70.38-250.69l2.85,22,6.55-41.78q3.53-7.17,7.24-14.32l6.24,34.81.74-10,.94,7.93,4.53-46.1a20,20,0,0,0,.94-1.78,15.86,15.86,0,0,0,1.24,1.76l8.95,42.45-2.89-38.07a11.46,11.46,0,0,0,3.83.66c5,0,9.37-3.21,11.81-8,6.41,7.52,11.7,15.85,14.12,26.21,4.2,17.53-12.16,32.56-24.73,51h0s23.26-9.91,36.78-21h0c13.52-11.14,25.55-26.28,22.61-41S867.91,147.09,853,140.3a81.18,81.18,0,0,0-15.46-4.77l1.28-.7c19.17,1.66,36.92,4.29,53.13,15.35,7.39,14.46,13.53,34.32,21.21,53.07h0s-.62-16.9-2.6-36.41c29.08,31,41,67,61.43,100.58h0s8.73-39.32,4-64.78a125.8,125.8,0,0,0-7-23.52c11.54,11.84,22.69,23.93,35.18,35.15h0s-3-40.16-14.9-63.16-36.44-48.3-63.67-60.41q-1.74-.77-3.48-1.44A93.52,93.52,0,0,0,908.2,74.33C891,60.22,864.77,51.56,842.29,56.71s-37.8,28.52-46.8,51.44c-4.93-7.83-11.09-16.22-18-22.67C759.71,69,733.77,54.7,704.38,59.71s-59.5,23.82-76.81,43.61-30.31,59-30.31,59h0c38.76-20.59,70.17-49.42,118.94-58.79C738.64,99.09,756.74,105.63,775.27,114.76Zm43.4,4.78.09-.08,0,.1ZM769.58,190.1q-3.32,5.75-6.53,11.55a43.44,43.44,0,0,1,3.8-11.92q1.65-3.47,3.45-6.74Zm-56.1-31.54,2.08-1.9c20.57-18.6,43.84-20.48,69.52-22.49-12.91,1.6-28.73,4.24-40.2,8.35A144.73,144.73,0,0,0,713.48,158.56Z"/></g><g class="cls-1"><path class="cls-18" d="M574.35,479c10.09,7.45-.2,16.42,0,15.6H485s-7.28-7.28,0-15.6Z"/><path class="cls-19" d="M574.35,498.22c10.09,7.45-.2,16.42,0,15.59H485s-7.28-7.27,0-15.59Z"/><path class="cls-20" d="M574.35,517.88c10.09,7.45-.2,16.42,0,15.59H485s-7.28-7.27,0-15.59Z"/><path class="cls-21" d="M574.35,538c10.09,7.46-.2,16.42,0,15.6H485s-7.28-7.28,0-15.6Z"/><path class="cls-22" d="M574.35,559.28c10.09,7.46-.2,16.43,0,15.6H485s-7.28-7.28,0-15.6Z"/></g><path class="cls-23" d="M631.65,523.32c10.09,7.45-.21,16.42,0,15.59h-89.4s-7.28-7.28,0-15.59Z"/><path class="cls-24" d="M631.65,542.55c10.09,7.46-.21,16.43,0,15.6h-89.4s-7.28-7.28,0-15.6Z"/><path class="cls-25" d="M631.65,562.21c10.09,7.45-.21,16.42,0,15.6h-89.4s-7.28-7.28,0-15.6Z"/><path class="cls-26" d="M631.65,582.29c10.09,7.45-.21,16.42,0,15.59h-89.4s-7.28-7.28,0-15.59Z"/><path class="cls-27" d="M631.65,603.62c10.09,7.45-.21,16.42,0,15.59h-89.4s-7.28-7.27,0-15.59Z"/></g><g id="layer1-3" data-name="layer1"><ellipse id="path4653-3" data-name="path4653" class="cls-17" cx="126.67" cy="157.49" rx="16.81" ry="19.3"/><ellipse id="ellipse4655-3" data-name="ellipse4655" class="cls-17" cx="110.48" cy="122.62" rx="16.81" ry="19.3"/><path class="cls-17" d="M178,116.85a96.08,96.08,0,0,0-16.5-4.93h0c-23.53-4.49-52.9-2.86-75.47,16.6S47.3,179.27,42.53,204.73s4,64.78,4,64.78h0c13.12-21.58,22.75-44.17,35.68-65.8-1.54,13.14,4.47,25.84,12.58,36h0c11.34,14.2,35.86,27.05,35.87,27.05h0c-6.17-23.26-19.06-42.39-4.14-64.22,12.23-18.07,29.49-31,47.53-43.24-8.26,8.74-16.31,19.79-21,30.13-6.17,13.63-3.84,24.4.57,31.31h0a17.44,17.44,0,0,0,1.88,2.42C108.08,315.6,80,418.08,44.34,517,37.46,540,13.15,567.36,9.62,591.27l91.3,1.35h0c4.13-43.1,8.37-86.18,14.27-128.93,12.49-84,32.87-168.41,70.38-250.69l2.84,22L195,193.17q3.53-7.17,7.24-14.32l6.24,34.81.74-10,.94,7.92,4.52-46.1a15.86,15.86,0,0,0,.94-1.78,17.3,17.3,0,0,0,1.24,1.76l9,42.45-2.9-38.07a11.46,11.46,0,0,0,3.83.66c5,0,9.38-3.21,11.81-8,6.41,7.52,11.7,15.85,14.13,26.21,4.2,17.53-12.17,32.56-24.74,51h0s23.26-9.91,36.78-21h0c13.52-11.14,25.55-26.28,22.61-41s-16.66-28.34-31.58-35.13a82,82,0,0,0-15.45-4.77l1.27-.7c19.17,1.66,36.92,4.3,53.13,15.35,7.39,14.46,13.54,34.32,21.22,53.07h0s-.62-16.9-2.61-36.41c29.08,31,41,67,61.43,100.58h0s8.74-39.32,4-64.78a125.86,125.86,0,0,0-7.05-23.52c11.55,11.84,22.69,23.93,35.19,35.15h0s-3-40.16-14.91-63.16-36.44-48.29-63.66-60.41c-1.16-.51-2.32-1-3.49-1.44A93,93,0,0,0,311,76.42C293.75,62.31,267.51,53.65,245,58.8s-37.8,28.53-46.8,51.44c-4.93-7.83-11.08-16.21-18-22.67-17.76-16.51-43.69-30.78-73.09-25.77S47.63,85.62,30.31,105.41,0,164.36,0,164.36H0c38.76-20.59,70.17-49.42,119-58.79C141.38,101.18,159.49,107.72,178,116.85Zm43.41,4.78.08-.08,0,.1Zm-49.09,70.56q-3.33,5.75-6.53,11.55a42.72,42.72,0,0,1,3.8-11.91c1.09-2.32,2.24-4.56,3.44-6.75Zm-56.1-31.54c.68-.63,1.37-1.27,2.07-1.9,20.57-18.6,43.85-20.48,69.53-22.49-12.91,1.61-28.73,4.24-40.2,8.35A144.51,144.51,0,0,0,116.23,160.65Z"/></g><ellipse class="cls-28" cx="399.99" cy="596.92" rx="70.47" ry="18.19"/><path class="cls-29" d="M443,498.22c10.09,7.45-.2,16.42,0,15.59h-89.4s-7.28-7.27,0-15.59Z"/><path class="cls-30" d="M443,517.46c10.09,7.45-.2,16.42,0,15.59h-89.4s-7.28-7.27,0-15.59Z"/><path class="cls-31" d="M443,537.12c10.09,7.45-.2,16.42,0,15.59h-89.4s-7.28-7.28,0-15.59Z"/><path class="cls-32" d="M443,557.19c10.09,7.46-.2,16.42,0,15.6h-89.4s-7.28-7.28,0-15.6Z"/><path class="cls-33" d="M443,578.52c10.09,7.46-.2,16.42,0,15.6h-89.4s-7.28-7.28,0-15.6Z"/><path class="cls-17" d="M283.93,479.18s-2.51-1.26-3.35,3.34-2.51,13-2.51,13-5,9.62-4.6,10.46h10.46s3.76,34.29,6.27,39.73A13.49,13.49,0,0,1,286,549c-2.09.83-1.26,3.76-1.26,3.76a2.36,2.36,0,0,0,2.51,0s-9.2,13.8-10,13.8h-3.77L271,570.77H262.6s-3.77,2.1-3.77,5.44a46,46,0,0,0,.84,7.53s1.67,1.67.84,2.93,1.25,2.93,1.25,2.93,15.89,2.51,23-2.51,12.13-13,12.13-13l5-.42s6.28-.83,6.28-1.67,7.52-2.51,7.52-2.51.84-18.4-5.85-25.93l-.42-13.38s13.38-23.43,8.37-36.81l5.43-3.35s5-.83.84-5-7.57-11-7.57-11l-20.45-4Z"/><path class="cls-34" d="M253.4,300.17c-3.35,1.25-6.7,2.93-10.46,1.67,0,0,5,20.91,33.88,43.92h-7.11s-2.09,2.51-.42,4.6c0,0-2.93,4.6-4.18,5.44,0,0,4.6,6.27,7.94,7.11,0,0,7.95-16.31,17.15-18.41,0,0-20.91-38.06-22.58-48.93C263,292.22,257.58,298.08,253.4,300.17Z"/><path class="cls-17" d="M375.52,418.53l-.83,6.7s-5.86,5.85-5.86,6.69v2.92h3.35s-3.77,12.13-2.51,16.73,2.93,11.3,2.93,11.3,1.25,6.27-2.93,7.53-.42,5-.42,5,4.18,1.68-.84,7.11a10.24,10.24,0,0,0-2.51,4.19c-.41,2.09,0,15.05,0,15.05s6.28,0,7.53-.83,5.86-2.09,7.95,0,10.46,10.87,15.89,10,13-5,13-5,13-3.35,11.71-5.86c0,0-4.18-7.95-6.27-8.36s-14.22.41-14.22.41-7.11-2.92-6.7-4.18a16.07,16.07,0,0,0,.42-3.76l-3.34-2.93-.42-2.51,18.82-36L422,436.1s3.35-.84-.84-5.44-.83-11.71-.83-11.71l-.84-9.2L400.62,406Z"/><path class="cls-17" d="M275.14,389.26s-1.67,10.45-2.92,12.13,1.25,6.69,1.25,6.69,2.09,3.34,3.35,11.71,2.93,19.66,2.93,19.66,1.67,8.36,2.92,8.78-2.92,6.69-2.92,6.69,10,13.38,3.34,23.42c0,0,21.33,3.77,32.62-4.18,0,0,5.44-.42,0-5.44,0,0,3.77-14.64,2.51-23.42,0,0,12.13-39.73,7.53-45.59H378s-4.6,2.51-3.34,3.35.83,2.51,3.34,7.53c0,0-5.43,2.92-5,5a16,16,0,0,0,2.1,4.6s37.64-11.71,44.75-2.51c0,0,1.67-3.77,0-5.86,0,0,3.34-2.09.83-13,0,0,11.3-11.3,1.68-18.41s-24.27-15.28-24.27-15.28l-69.42-6.88-46.42,1.25-3.77,6.27-6.27,13s-.42,7.11,2.92,9.2"/><path class="cls-17" d="M409.82,341.16c2.51-3.77-5.86-51.86-7.53-61.48,1.67-.84,0-4.61,0-4.61l-8.78-8.36s-2.93-.84-5-1.25-1.26-3.35-1.26-3.35a2.84,2.84,0,0,0-2.09-1.67c-1.67-.42-5.85.41-5.85.41-1.67-2.92-21.33-19.23-21.33-19.23l-26.77-8.37c-3.76-.84-23.42,6.69-23.42,6.69.42-.42-2.51-2.09-2.93-2.09s-1.25,2.93-1.25,2.93l-1.14.32c-5.52,1.56-29.46,8.43-33.16,11.39H258.42L238.34,264.2s-2.93,10.87,0,19.24l-4.6,2.93s-.42,4.18,1.67,5.43h1.26a5.54,5.54,0,0,1-2.93,5.86s-.42,5,4.18,4.18,5,0,5,0c3.76,1.26,7.11-.42,10.46-1.67,4.18-2.09,9.62-7.95,14.22-4.6,0,0,10.45,1.25,2.92-6.69,0,0-.41-4.19-2.92-6.28,0,0,19.24-2.09,19.65-4.6,0,0,4.9,2.14,7.36,2l-.66,13.5a26.5,26.5,0,0,0,5.85,13.8c5.44,6.69-.42,9.2-.42,9.2s0,2.51.42,7.95-7.53,10.87-7.53,10.87-.42,3.35.42,4.6,0,4.19,0,4.19c-17.57,2.51-19.66,24.25-19.66,24.25,25.52.84,21.75,23,21.75,23a18.48,18.48,0,0,0,11.3-11.3s5.43-15.89,15-13.38,5,21.33,5,21.33c6.27-3.76,56.05-20.91,56.05-20.91L372.68,355c-2.83.49-13.05-7.17-13.05-7.17-3.35-.42-2.51-2.09-2.51-2.09a8.66,8.66,0,0,0,3.77-3.77v-6.27c0-3.76,16.31-14.64,16.31-14.64l1.67,2.09.42,9.62L378,334.88l2.93,3.77.42,3.76L377.2,347v5s15.05-3.76,18.4,1.26S399,364.83,399,364.83c4.62-1.88,8.72-3.62,11.29-4.85C419.86,355.38,409.82,341.16,409.82,341.16Z"/><path class="cls-35" d="M334,232s-5.22-2.85-4.75-5.69c0,0,16.62-9.5,26.12-10s10.45-.95,10.45-.95,7.12,1.43,7.6,4.28c0,0,0,1.9-3.8,2.37C369.57,222,349.62,219.17,334,232Z"/><path class="cls-17" d="M332.05,244.34s-34.67.95-44.17-11.4c0,0-2.85-12.82-.95-15.19L303.08,213l15.67-29,4.75,2.85-2.37-8.07s23.74-10,34.19-6.18,14.25,10.45,14.25,10.45,6.65,14.72,6.65,17.1c0,0,16.14,6.64,16.62,6.17,0,0,2.37,6.17,0,10.92,0,0-3.8,9.5-11.4,13.77l-9.82,2.54Z"/><path class="cls-36" d="M332.05,244.34s-34.67.95-44.17-11.4c0,0-2.85-12.82-.95-15.19L303.08,213l15.67-29,4.75,2.85-2.37-8.07s23.74-10,34.19-6.18,14.25,10.45,14.25,10.45,6.65,14.72,6.65,17.1c0,0,16.14,6.64,16.62,6.17,0,0,2.37,6.17,0,10.92,0,0-3.8,9.5-11.4,13.77l-9.82,2.54Z"/><path class="cls-37" d="M371.76,229.53s-.29,11-1.24,11,5.7,6.18,5.7,6.18h-4.75c3.8,4.27,4.75,20.42,4.75,20.42-2.85-.48-6.18-3.33-6.18-3.33,1.9,7.13-1.9,13.77-1.9,13.77-18-1.9-19.47-8.54-19.47-8.54a11.17,11.17,0,0,1-1.9,6.64c-4.27-2.84-9-17.57-9-17.57l-1.43,4.28C333.47,259.06,333,250,333,250l-.95-5.7S333,233.42,334,232a18,18,0,0,1,3.8-3.32s17.57-9.5,31.82-6.65c0,0,3.8-1,3.8-2.37,0,0-2.38,9-1.43,10.44"/><path class="cls-17" d="M369.09,225.82l-.3-.91,1.8-3.2-.88.27-1.09,2.42L360.07,232l-12.78-7.37-1.94.25,14.7,8.09h0c0,1.64.42,5,2.87,7.11,0,0,6.17-5.23,6.17-5.7C369.09,234.37,370,226.3,369.09,225.82Z"/><path class="cls-38" d="M399,365.25s0-6.53-3.35-11.54-18.4-1.26-18.4-1.26L340,377.13s-6.27,4.6-7.11,8.36-7.94,16.31-8.78,16.73S322,417.28,322,417.28s6.27,6.69,6.27,10.87c0,0,3.77,1.26,2.51-6.27L329.52,419a30.14,30.14,0,0,0,3.76,2.09c.42,0,2.93-2.51,2.93-2.51h2.51l2.09-2.09,1.67-.42,3.35-3.34v-1.26l-1.67-5,2.92-4.6V387.58c0-.83,5.26-3.84,5.26-3.84h0C362.78,380.6,399,365.25,399,365.25Z"/><path class="cls-39" d="M568.34,0,203.62,3.21,329.52,596.3h0a1.48,1.48,0,0,0,0,.21c0,10,31.55,18.18,70.47,18.18s70.48-8.14,70.48-18.18c0-.07,0-.14,0-.21h0Z"/><g class="cls-36"><path class="cls-40" d="M187.47,525c10.1,7.45-.2,16.42,0,15.59H98.07s-7.28-7.27,0-15.59Z"/><path class="cls-41" d="M187.47,544.23c10.1,7.45-.2,16.42,0,15.59H98.07s-7.28-7.28,0-15.59Z"/><path class="cls-42" d="M187.47,563.89c10.1,7.45-.2,16.42,0,15.59H98.07s-7.28-7.28,0-15.59Z"/><path class="cls-43" d="M187.47,584c10.1,7.45-.2,16.42,0,15.6H98.07s-7.28-7.28,0-15.6Z"/><path class="cls-44" d="M187.47,605.29c10.1,7.45-.2,16.42,0,15.6H98.07s-7.28-7.28,0-15.6Z"/></g></g></g></svg>