<svg xmlns="http://www.w3.org/2000/svg" xmlns:xlink="http://www.w3.org/1999/xlink" viewBox="0 0 506.68 303.81"><defs><style>.cls-1{stroke:#000;stroke-miterlimit:10;stroke-width:0.25px;opacity:0.94;fill:url(#linear-gradient);}.cls-2{fill:#510097;}.cls-3{fill:url(#linear-gradient-2);}.cls-4{fill:url(#linear-gradient-3);}.cls-5{fill:url(#linear-gradient-4);}.cls-6{fill:url(#linear-gradient-5);}.cls-7{fill:none;}</style><linearGradient id="linear-gradient" x1="68.25" y1="15.91" x2="427.68" y2="223.43" gradientUnits="userSpaceOnUse"><stop offset="0" stop-color="#9500a1"/><stop offset="1" stop-color="#510097"/></linearGradient><linearGradient id="linear-gradient-2" x1="83.4" y1="249.88" x2="421.88" y2="249.88" gradientUnits="userSpaceOnUse"><stop offset="0" stop-color="#e900fd"/><stop offset="0" stop-color="#e902fd"/><stop offset="0.11" stop-color="#ec2afd"/><stop offset="0.22" stop-color="#ef4bfd"/><stop offset="0.33" stop-color="#f167fd"/><stop offset="0.46" stop-color="#f37cfd"/><stop offset="0.6" stop-color="#f48bfd"/><stop offset="0.76" stop-color="#f594fd"/><stop offset="1" stop-color="#f597fd"/></linearGradient><linearGradient id="linear-gradient-3" x1="234.86" y1="244.54" x2="269.74" y2="304.95" gradientUnits="userSpaceOnUse"><stop offset="0.14" stop-color="#f597fd"/><stop offset="1" stop-color="#e900fd"/></linearGradient><linearGradient id="linear-gradient-4" x1="218.68" y1="286.58" x2="289.48" y2="286.58" gradientUnits="userSpaceOnUse"><stop offset="0" stop-color="#fff"/><stop offset="0.1" stop-color="#fafafa"/><stop offset="0.22" stop-color="#ebebeb"/><stop offset="0.36" stop-color="#d2d2d2"/><stop offset="0.5" stop-color="#afafaf"/><stop offset="0.66" stop-color="#828282"/><stop offset="0.81" stop-color="#4b4b4b"/><stop offset="0.97" stop-color="#0c0c0c"/><stop offset="1"/></linearGradient><linearGradient id="linear-gradient-5" x1="688.71" y1="-80" x2="1068.63" y2="139.35" gradientTransform="translate(-626 258)" xlink:href="#linear-gradient"/></defs><title>Asset 2</title><g id="Layer_2" data-name="Layer 2"><g id="Layer_1-2" data-name="Layer 1"><path class="cls-1" d="M409.91.13H86C77.58.13,70.75,7.22,70.75,16V223.36c0,8.76,6.83,15.85,15.28,15.85H409.91c8.43,0,15.28-7.09,15.28-15.85V16C425.19,7.22,418.34.13,409.91.13Zm1.36,223.64H84.49V14.84H411.27Z"/><path class="cls-2" d="M502.14,284.68,5.7,285.52A3,3,0,0,1,4,280l64.27-39.71a5,5,0,0,1,2.78-.83H428.51l74.56,42A1.75,1.75,0,0,1,502.14,284.68Z"/><path class="cls-3" d="M421.69,261.05l-338-1.38a.27.27,0,0,1-.17-.47l24-20.5H393.82l28,22A.2.2,0,0,1,421.69,261.05Z"/><path class="cls-4" d="M310.12,281.37H196.58a1.29,1.29,0,0,1-1.21-1.63L199,266a2,2,0,0,1,1.91-1.51H305.36a2.22,2.22,0,0,1,2.1,1.55l4.33,12.94A1.82,1.82,0,0,1,310.12,281.37Z"/><polygon class="cls-2" points="133.27 243.21 107.53 243.21 110.05 240.18 134.97 240.18 133.27 243.21"/><polygon class="cls-2" points="139.03 247.21 102.94 247.21 106.48 244.18 141.42 244.18 139.03 247.21"/><polygon class="cls-2" points="145.07 251.97 95.83 251.97 100.66 248.94 148.33 248.94 145.07 251.97"/><polygon class="cls-2" points="154.5 243.21 139.29 243.21 140.78 240.18 155.51 240.18 154.5 243.21"/><polygon class="cls-2" points="175.23 243.21 160.03 243.21 161.52 240.18 176.24 240.18 175.23 243.21"/><polygon class="cls-2" points="106.98 257.76 91.24 257.76 93.17 253.92 107.99 253.92 106.98 257.76"/><polygon class="cls-2" points="153.3 257.76 137.56 257.76 139.49 253.92 154.31 253.92 153.3 257.76"/><polygon class="cls-2" points="183.05 257.76 160.82 257.76 163.54 253.92 184.48 253.92 183.05 257.76"/><polygon class="cls-2" points="288.29 257.76 189 257.76 192.94 253.92 289.48 253.92 288.29 257.76"/><polygon class="cls-2" points="130.14 257.53 114.4 257.53 116.33 253.69 131.15 253.69 130.14 257.53"/><polygon class="cls-2" points="195.77 243.21 180.58 243.21 182.07 240.18 196.78 240.18 195.77 243.21"/><polygon class="cls-2" points="182.68 247.21 167.49 247.21 168.98 244.18 183.68 244.18 182.68 247.21"/><polygon class="cls-2" points="168.88 252.09 153.69 252.09 155.18 249.05 169.88 249.05 168.88 252.09"/><polygon class="cls-2" points="161.54 247.21 146.36 247.21 147.85 244.18 162.55 244.18 161.54 247.21"/><polygon class="cls-2" points="237.56 243.21 222.58 243.21 222.55 240.18 237.56 240.18 237.56 243.21"/><polygon class="cls-2" points="226.44 247.21 211.46 247.21 211.43 244.18 226.44 244.18 226.44 247.21"/><polygon class="cls-2" points="214.12 252.09 199.15 252.09 199.12 249.05 214.12 249.05 214.12 252.09"/><polygon class="cls-2" points="216.82 243.21 201.85 243.21 202.2 240.18 216.82 240.18 216.82 243.21"/><polygon class="cls-2" points="204.68 247.21 189.71 247.21 190.06 244.18 204.68 244.18 204.68 247.21"/><polygon class="cls-2" points="191.66 252.09 176.69 252.09 177.04 249.05 191.66 249.05 191.66 252.09"/><polygon class="cls-2" points="258.29 243.21 243.32 243.21 243.29 240.18 258.29 240.18 258.29 243.21"/><polygon class="cls-2" points="247.97 247.21 233 247.21 232.96 244.18 247.97 244.18 247.97 247.21"/><polygon class="cls-2" points="236.98 252.09 222.01 252.09 221.98 249.05 236.98 249.05 236.98 252.09"/><polygon class="cls-2" points="278.89 243.21 263.92 243.21 263.89 240.18 278.89 240.18 278.89 243.21"/><polygon class="cls-2" points="269.59 247.21 254.62 247.21 254.58 244.18 269.59 244.18 269.59 247.21"/><polygon class="cls-2" points="281.64 252.09 265.87 252.09 265.84 249.05 281.64 249.05 281.64 252.09"/><polygon class="cls-2" points="304.52 252.09 288.75 252.09 288.71 249.05 304.52 249.05 304.52 252.09"/><polygon class="cls-2" points="259.18 252.09 243.32 252.09 243.29 249.05 259.18 249.05 259.18 252.09"/><polygon class="cls-2" points="299.56 243.21 284.59 243.21 284.56 240.18 299.56 240.18 299.56 243.21"/><polygon class="cls-2" points="321.25 243.21 305.63 243.21 305.16 240.18 320.16 240.18 321.25 243.21"/><polygon class="cls-2" points="367.37 257.79 350.31 257.79 350.44 256.82 367.19 256.82 367.37 257.79"/><polygon class="cls-2" points="390.85 257.79 374.63 257.79 374.72 256.82 390.67 256.82 390.85 257.79"/><polygon class="cls-2" points="387.33 254.95 371.11 254.95 371.2 253.98 387.15 253.98 387.33 254.95"/><polygon class="cls-2" points="387.93 254.95 372.11 254.95 372.2 253.98 387.88 253.98 387.93 254.95"/><polygon class="cls-2" points="414.38 257.79 398.16 257.79 398.25 256.82 414.2 256.82 414.38 257.79"/><polygon class="cls-2" points="342.18 243.21 326.56 243.21 326.09 240.18 341.1 240.18 342.18 243.21"/><polygon class="cls-2" points="363.45 243.21 348.23 243.21 346.37 240.18 360.92 240.18 363.45 243.21"/><polygon class="cls-2" points="356.94 247.35 341.72 247.35 339.86 244.31 354.41 244.31 356.94 247.35"/><polygon class="cls-2" points="350.05 252.11 334.83 252.11 332.97 249.07 347.52 249.07 350.05 252.11"/><polygon class="cls-2" points="401.26 247.72 364.71 247.72 361.52 244.68 395.94 244.68 401.26 247.72"/><polygon class="cls-2" points="335.41 247.35 320.19 247.35 318.32 244.31 332.88 244.31 335.41 247.35"/><polygon class="cls-2" points="313.7 247.72 298.48 247.72 296.62 244.68 311.17 244.68 313.7 247.72"/><polygon class="cls-2" points="327.61 252.09 312.39 252.09 310.53 249.05 325.08 249.05 327.61 252.09"/><polygon class="cls-2" points="320.32 257.36 297.81 257.36 295.06 254.33 316.58 254.33 320.32 257.36"/><polygon class="cls-2" points="344.24 257.36 326.92 257.36 324.8 254.33 341.36 254.33 344.24 257.36"/><polygon class="cls-2" points="292.57 247.72 277.34 247.72 275.48 244.68 290.04 244.68 292.57 247.72"/><polygon class="cls-2" points="395.41 243.21 368.83 243.21 367.1 240.18 391.56 240.18 395.41 243.21"/><polygon class="cls-2" points="406.58 252.11 357.27 252.11 355.41 249.07 403.65 249.07 406.58 252.11"/><rect class="cls-5" x="218.68" y="285.16" width="70.8" height="2.83"/><path class="cls-6" d="M506.48,286.53a4.05,4.05,0,0,0-2.41-1H10.31C6.65,286.07,0,284.88,0,286.81c0,4,15.62,12.59,22.86,12.59L482.06,297l7.27-.05a42.83,42.83,0,0,0,15.6-7.46h0l1.61-2.79A.41.41,0,0,0,506.48,286.53Z"/><path class="cls-7" d="M504.94,288.7s0,0,0,0a47.59,47.59,0,0,1-15.6,6.08,17.18,17.18,0,0,1-3.1.32,23.11,23.11,0,0,1-4.17-.29c-2.93-.55-2.78-1.91-2.78-4.07,0-2.89,5.86-5.23,13.09-5.23,5.06,0,9.14-.31,11.7,0a4.57,4.57,0,0,1,2.41.81.31.31,0,0,1,.07.09C507,286.93,506.3,287.76,504.94,288.7Z"/><polygon class="cls-2" points="499.04 303.81 7.44 302.71 18.34 298.85 475.29 296.98 499.04 303.81"/></g></g></svg>