<svg xmlns="http://www.w3.org/2000/svg" xmlns:xlink="http://www.w3.org/1999/xlink" viewBox="0 0 533.46 352.7"><defs><style>.cls-1{fill:#481e73;opacity:0.71;}.cls-2{fill:url(#linear-gradient);}.cls-3{stroke:#000;stroke-miterlimit:10;stroke-width:0.25px;opacity:0.94;fill:url(#linear-gradient-2);}.cls-4{fill:#510097;}.cls-5{fill:url(#linear-gradient-3);}.cls-6{fill:url(#linear-gradient-4);}.cls-7{fill:#2c0155;}</style><linearGradient id="linear-gradient" y1="49.02" x2="405.54" y2="49.02" gradientUnits="userSpaceOnUse"><stop offset="0" stop-color="#22006a"/><stop offset="1" stop-color="#8600d4"/></linearGradient><linearGradient id="linear-gradient-2" x1="1.51" y1="50.8" x2="404.71" y2="50.8" gradientUnits="userSpaceOnUse"><stop offset="0" stop-color="#9500a1"/><stop offset="1" stop-color="#510097"/></linearGradient><linearGradient id="linear-gradient-3" x1="155.82" y1="249.74" x2="261.57" y2="249.74" gradientUnits="userSpaceOnUse"><stop offset="0.23" stop-color="#c555ff"/><stop offset="1" stop-color="#e900fd"/></linearGradient><linearGradient id="linear-gradient-4" x1="74.37" y1="159.6" x2="344.18" y2="159.6" gradientUnits="userSpaceOnUse"><stop offset="0.14" stop-color="#f597fd"/><stop offset="1" stop-color="#e900fd"/></linearGradient></defs><title>Asset 1</title><g id="Layer_2" data-name="Layer 2"><g id="Layer_1-2" data-name="Layer 1"><path class="cls-1" d="M379.43,345.87H85.88C119.1,379.25,16.15,279.09,30.82,285l5.79-180.64A10.74,10.74,0,0,1,47.4,93.7H385.12C377.48,83,533.46,268.87,533.46,274.77l-.22,71.1Z"/><path class="cls-2" d="M395.58,0H10.11C1.51,0-2.85,9.9,2,21.25L30.17,82.82l.06.14c3.63,8.46,12.19,15.09,19.24,15.09H365c7,0,15-6.63,17.88-15.08L397.4,40.35,404,20.93c.13-.37.25-.75.37-1.13a0,0,0,0,0,0,0C407.62,8.94,403.87,0,395.58,0ZM12.15,26.9c-3.23-7.46.64-13.69,8.74-13.69h363.4c8.1,0,12.53,6.22,10,13.7L379.6,69.53c-2.08,6-9.42,10.84-16.45,10.84H48.08c-7,0-14.81-4.79-17.43-10.85Z"/><path class="cls-3" d="M394.77,4.54l-384.29,0c-8.57,0-11.46,9-6.65,19.74L30.17,82.82c3.59,8,12.11,14.25,19.13,14.25h315c7,0,15-6.26,17.85-14.25L397.4,40.35l5.79-16.08a26.77,26.77,0,0,0,1.19-4.47,0,0,0,0,0,0,0C405.87,11.15,402.1,4.54,394.77,4.54Zm-.52,22.38L379.6,69.53c-2.08,6-9.42,10.84-16.45,10.84H48.08c-7,0-14.81-4.79-17.43-10.85L12.15,26.9c-3.23-7.46.64-13.69,8.74-13.69h363.4C392.39,13.22,396.82,19.44,394.25,26.92Z"/><path class="cls-4" d="M376.93,289.73H41.47c-7.29,0-12.09-4.57-12.09-10.21V101.43a10.47,10.47,0,0,1,10.71-10.2H375.55a10.47,10.47,0,0,1,10.71,10.2V279.52C386.26,285.16,381.46,289.73,376.93,289.73Z"/><rect class="cls-5" x="155.82" y="218.8" width="105.76" height="61.87" rx="9.1" ry="9.1"/><rect class="cls-6" x="74.37" y="114.19" width="269.81" height="90.81" rx="13.61" ry="13.61"/><rect class="cls-4" x="321" y="117.82" width="16.57" height="6.82" rx="2.32" ry="2.32"/><rect class="cls-4" x="302.42" y="117.82" width="16.57" height="6.82" rx="2.32" ry="2.32"/><rect class="cls-4" x="283.84" y="117.82" width="16.57" height="6.82" rx="2.32" ry="2.32"/><rect class="cls-4" x="265.26" y="117.82" width="16.57" height="6.82" rx="2.32" ry="2.32"/><rect class="cls-4" x="246.68" y="117.82" width="16.57" height="6.82" rx="2.32" ry="2.32"/><rect class="cls-4" x="228.1" y="117.82" width="16.57" height="6.82" rx="2.32" ry="2.32"/><rect class="cls-4" x="209.52" y="117.82" width="16.57" height="6.82" rx="2.32" ry="2.32"/><rect class="cls-4" x="190.94" y="117.82" width="16.57" height="6.82" rx="2.32" ry="2.32"/><rect class="cls-4" x="172.36" y="117.82" width="16.57" height="6.82" rx="2.32" ry="2.32"/><rect class="cls-4" x="153.78" y="117.82" width="16.57" height="6.82" rx="2.32" ry="2.32"/><rect class="cls-4" x="135.2" y="117.82" width="16.57" height="6.82" rx="2.32" ry="2.32"/><rect class="cls-4" x="116.62" y="117.82" width="16.57" height="6.82" rx="2.32" ry="2.32"/><rect class="cls-4" x="98.04" y="117.82" width="16.57" height="6.82" rx="2.32" ry="2.32"/><rect class="cls-4" x="79.46" y="117.82" width="16.57" height="6.82" rx="2.32" ry="2.32"/><rect class="cls-4" x="79.46" y="188.35" width="16.57" height="12.44" rx="2.39" ry="2.39"/><rect class="cls-4" x="311.85" y="157.89" width="25.72" height="12.44" rx="2.35" ry="2.35"/><rect class="cls-4" x="300.83" y="173.12" width="37.01" height="12.44" rx="2.39" ry="2.39"/><rect class="cls-4" x="79.46" y="173.12" width="39.85" height="12.44" rx="2.39" ry="2.39"/><rect class="cls-4" x="79.46" y="157.89" width="33.65" height="12.44" rx="2.35" ry="2.35"/><rect class="cls-4" x="79.46" y="142.66" width="25.72" height="12.44" rx="2.39" ry="2.39"/><rect class="cls-4" x="247.05" y="188.15" width="20.61" height="12.44" rx="2.39" ry="2.39"/><rect class="cls-4" x="135.38" y="188.35" width="20.61" height="12.44" rx="2.39" ry="2.39"/><rect class="cls-4" x="116.26" y="188.35" width="16.57" height="12.44" rx="2.39" ry="2.39"/><rect class="cls-4" x="98.04" y="188.35" width="16.57" height="12.44" rx="2.39" ry="2.39"/><rect class="cls-4" x="310.71" y="127.53" width="26.87" height="12.24" rx="2.35" ry="2.35"/><rect class="cls-4" x="321.71" y="142.92" width="15.87" height="11.91" rx="2.39" ry="2.39"/><rect class="cls-4" x="303.92" y="142.92" width="15.87" height="11.91" rx="2.39" ry="2.39"/><rect class="cls-4" x="292.93" y="158.02" width="15.87" height="11.91" rx="2.35" ry="2.35"/><rect class="cls-4" x="321.68" y="195.2" width="15.9" height="4.95" rx="2.39" ry="2.39"/><rect class="cls-4" x="304.39" y="189.42" width="15.9" height="4.95" rx="2.39" ry="2.39"/><rect class="cls-4" x="304.39" y="195.2" width="15.9" height="4.95" rx="2.39" ry="2.39"/><rect class="cls-4" x="287.06" y="195.2" width="15.9" height="4.95" rx="2.39" ry="2.39"/><rect class="cls-4" x="282.31" y="173.38" width="15.87" height="11.91" rx="2.39" ry="2.39"/><rect class="cls-4" x="269.43" y="188.41" width="15.87" height="11.91" rx="2.39" ry="2.39"/><rect class="cls-4" x="264.52" y="173.38" width="15.87" height="11.91" rx="2.39" ry="2.39"/><rect class="cls-4" x="246.73" y="173.38" width="15.87" height="11.91" rx="2.39" ry="2.39"/><rect class="cls-4" x="228.94" y="173.38" width="15.87" height="11.91" rx="2.39" ry="2.39"/><rect class="cls-4" x="211.15" y="173.38" width="15.87" height="11.91" rx="2.39" ry="2.39"/><rect class="cls-4" x="193.36" y="173.38" width="15.87" height="11.91" rx="2.39" ry="2.39"/><rect class="cls-4" x="175.57" y="173.38" width="15.87" height="11.91" rx="2.39" ry="2.39"/><rect class="cls-4" x="158.55" y="188.41" width="86.13" height="11.91" rx="2.39" ry="2.39"/><rect class="cls-4" x="157.79" y="173.38" width="15.87" height="11.91" rx="2.39" ry="2.39"/><rect class="cls-4" x="140" y="173.38" width="15.87" height="11.91" rx="2.39" ry="2.39"/><rect class="cls-4" x="122.21" y="173.38" width="15.87" height="11.91" rx="2.39" ry="2.39"/><rect class="cls-4" x="275.14" y="158.02" width="15.87" height="11.91" rx="2.35" ry="2.35"/><rect class="cls-4" x="257.35" y="158.02" width="15.87" height="11.91" rx="2.35" ry="2.35"/><rect class="cls-4" x="239.56" y="158.02" width="15.87" height="11.91" rx="2.35" ry="2.35"/><rect class="cls-4" x="221.77" y="158.02" width="15.87" height="11.91" rx="2.35" ry="2.35"/><rect class="cls-4" x="203.98" y="158.02" width="15.87" height="11.91" rx="2.35" ry="2.35"/><rect class="cls-4" x="186.19" y="158.02" width="15.87" height="11.91" rx="2.35" ry="2.35"/><rect class="cls-4" x="168.4" y="158.02" width="15.87" height="11.91" rx="2.35" ry="2.35"/><rect class="cls-4" x="150.62" y="158.02" width="15.87" height="11.91" rx="2.35" ry="2.35"/><rect class="cls-4" x="132.83" y="158.02" width="15.87" height="11.91" rx="2.35" ry="2.35"/><rect class="cls-4" x="115.04" y="158.02" width="15.87" height="11.91" rx="2.35" ry="2.35"/><rect class="cls-4" x="286.13" y="142.92" width="15.87" height="11.91" rx="2.39" ry="2.39"/><rect class="cls-4" x="268.34" y="142.92" width="15.87" height="11.91" rx="2.39" ry="2.39"/><rect class="cls-4" x="250.55" y="142.92" width="15.87" height="11.91" rx="2.39" ry="2.39"/><rect class="cls-4" x="232.76" y="142.92" width="15.87" height="11.91" rx="2.39" ry="2.39"/><rect class="cls-4" x="214.98" y="142.92" width="15.87" height="11.91" rx="2.39" ry="2.39"/><rect class="cls-4" x="197.19" y="142.92" width="15.87" height="11.91" rx="2.39" ry="2.39"/><rect class="cls-4" x="179.4" y="142.92" width="15.87" height="11.91" rx="2.39" ry="2.39"/><rect class="cls-4" x="161.61" y="142.92" width="15.87" height="11.91" rx="2.39" ry="2.39"/><rect class="cls-4" x="143.82" y="142.92" width="15.87" height="11.91" rx="2.39" ry="2.39"/><rect class="cls-4" x="126.03" y="142.92" width="15.87" height="11.91" rx="2.39" ry="2.39"/><rect class="cls-4" x="108.24" y="142.92" width="15.87" height="11.91" rx="2.39" ry="2.39"/><rect class="cls-4" x="292.93" y="127.69" width="15.87" height="11.91" rx="2.35" ry="2.35"/><rect class="cls-4" x="275.14" y="127.69" width="15.87" height="11.91" rx="2.35" ry="2.35"/><rect class="cls-4" x="257.35" y="127.69" width="15.87" height="11.91" rx="2.35" ry="2.35"/><rect class="cls-4" x="239.56" y="127.69" width="15.87" height="11.91" rx="2.35" ry="2.35"/><rect class="cls-4" x="221.77" y="127.69" width="15.87" height="11.91" rx="2.35" ry="2.35"/><rect class="cls-4" x="203.98" y="127.69" width="15.87" height="11.91" rx="2.35" ry="2.35"/><rect class="cls-4" x="186.19" y="127.69" width="15.87" height="11.91" rx="2.35" ry="2.35"/><rect class="cls-4" x="168.4" y="127.69" width="15.87" height="11.91" rx="2.35" ry="2.35"/><rect class="cls-4" x="150.62" y="127.69" width="15.87" height="11.91" rx="2.35" ry="2.35"/><rect class="cls-4" x="132.83" y="127.69" width="15.87" height="11.91" rx="2.35" ry="2.35"/><rect class="cls-4" x="115.04" y="127.69" width="15.87" height="11.91" rx="2.35" ry="2.35"/><rect class="cls-4" x="97.25" y="127.69" width="15.87" height="11.91" rx="2.35" ry="2.35"/><rect class="cls-4" x="79.46" y="127.69" width="15.87" height="11.91" rx="2.35" ry="2.35"/><rect class="cls-4" x="321.05" y="119.31" width="16.57" height="6.82" rx="2.32" ry="2.32"/><rect class="cls-4" x="302.47" y="119.31" width="16.57" height="6.82" rx="2.32" ry="2.32"/><rect class="cls-4" x="283.89" y="119.31" width="16.57" height="6.82" rx="2.32" ry="2.32"/><rect class="cls-4" x="265.31" y="119.31" width="16.57" height="6.82" rx="2.32" ry="2.32"/><rect class="cls-4" x="246.73" y="119.31" width="16.57" height="6.82" rx="2.32" ry="2.32"/><rect class="cls-4" x="228.15" y="119.31" width="16.57" height="6.82" rx="2.32" ry="2.32"/><rect class="cls-4" x="209.57" y="119.31" width="16.57" height="6.82" rx="2.32" ry="2.32"/><rect class="cls-4" x="190.99" y="119.31" width="16.57" height="6.82" rx="2.32" ry="2.32"/><rect class="cls-4" x="172.41" y="119.31" width="16.57" height="6.82" rx="2.32" ry="2.32"/><rect class="cls-4" x="153.83" y="119.31" width="16.57" height="6.82" rx="2.32" ry="2.32"/><rect class="cls-4" x="135.25" y="119.31" width="16.57" height="6.82" rx="2.32" ry="2.32"/><rect class="cls-4" x="116.67" y="119.31" width="16.57" height="6.82" rx="2.32" ry="2.32"/><rect class="cls-4" x="98.09" y="119.31" width="16.57" height="6.82" rx="2.32" ry="2.32"/><rect class="cls-4" x="79.51" y="119.31" width="16.57" height="6.82" rx="2.32" ry="2.32"/><rect class="cls-4" x="79.51" y="189.83" width="16.57" height="12.44" rx="2.39" ry="2.39"/><rect class="cls-4" x="311.9" y="159.38" width="25.72" height="12.44" rx="2.35" ry="2.35"/><rect class="cls-4" x="300.87" y="174.6" width="37.01" height="12.44" rx="2.39" ry="2.39"/><rect class="cls-4" x="79.51" y="174.6" width="39.85" height="12.44" rx="2.39" ry="2.39"/><rect class="cls-4" x="79.51" y="159.38" width="33.65" height="12.44" rx="2.35" ry="2.35"/><rect class="cls-4" x="79.51" y="144.15" width="25.72" height="12.44" rx="2.39" ry="2.39"/><rect class="cls-4" x="247.09" y="189.64" width="20.61" height="12.44" rx="2.39" ry="2.39"/><rect class="cls-4" x="135.43" y="189.83" width="20.61" height="12.44" rx="2.39" ry="2.39"/><rect class="cls-4" x="116.3" y="189.83" width="16.57" height="12.44" rx="2.39" ry="2.39"/><rect class="cls-4" x="98.09" y="189.83" width="16.57" height="12.44" rx="2.39" ry="2.39"/><rect class="cls-4" x="310.76" y="129.02" width="26.87" height="12.24" rx="2.35" ry="2.35"/><rect class="cls-4" x="321.76" y="144.41" width="15.87" height="11.91" rx="2.39" ry="2.39"/><rect class="cls-4" x="303.97" y="144.41" width="15.87" height="11.91" rx="2.39" ry="2.39"/><rect class="cls-4" x="292.98" y="159.51" width="15.87" height="11.91" rx="2.35" ry="2.35"/><rect class="cls-4" x="321.72" y="196.69" width="15.9" height="4.95" rx="2.39" ry="2.39"/><rect class="cls-4" x="304.44" y="188.91" width="15.9" height="4.95" rx="2.39" ry="2.39"/><rect class="cls-4" x="304.44" y="196.69" width="15.9" height="4.95" rx="2.39" ry="2.39"/><rect class="cls-4" x="287.11" y="196.69" width="15.9" height="4.95" rx="2.39" ry="2.39"/><rect class="cls-4" x="282.36" y="174.87" width="15.87" height="11.91" rx="2.39" ry="2.39"/><rect class="cls-4" x="269.47" y="189.9" width="15.87" height="11.91" rx="2.39" ry="2.39"/><rect class="cls-4" x="264.57" y="174.87" width="15.87" height="11.91" rx="2.39" ry="2.39"/><rect class="cls-4" x="246.78" y="174.87" width="15.87" height="11.91" rx="2.39" ry="2.39"/><rect class="cls-4" x="228.99" y="174.87" width="15.87" height="11.91" rx="2.39" ry="2.39"/><rect class="cls-4" x="211.2" y="174.87" width="15.87" height="11.91" rx="2.39" ry="2.39"/><rect class="cls-4" x="193.41" y="174.87" width="15.87" height="11.91" rx="2.39" ry="2.39"/><rect class="cls-4" x="175.62" y="174.87" width="15.87" height="11.91" rx="2.39" ry="2.39"/><rect class="cls-4" x="158.6" y="189.9" width="86.13" height="11.91" rx="2.39" ry="2.39"/><rect class="cls-4" x="157.83" y="174.87" width="15.87" height="11.91" rx="2.39" ry="2.39"/><rect class="cls-4" x="140.04" y="174.87" width="15.87" height="11.91" rx="2.39" ry="2.39"/><rect class="cls-4" x="122.26" y="174.87" width="15.87" height="11.91" rx="2.39" ry="2.39"/><rect class="cls-4" x="275.19" y="159.51" width="15.87" height="11.91" rx="2.35" ry="2.35"/><rect class="cls-4" x="257.4" y="159.51" width="15.87" height="11.91" rx="2.35" ry="2.35"/><rect class="cls-4" x="239.61" y="159.51" width="15.87" height="11.91" rx="2.35" ry="2.35"/><rect class="cls-4" x="221.82" y="159.51" width="15.87" height="11.91" rx="2.35" ry="2.35"/><rect class="cls-4" x="204.03" y="159.51" width="15.87" height="11.91" rx="2.35" ry="2.35"/><rect class="cls-4" x="186.24" y="159.51" width="15.87" height="11.91" rx="2.35" ry="2.35"/><rect class="cls-4" x="168.45" y="159.51" width="15.87" height="11.91" rx="2.35" ry="2.35"/><rect class="cls-4" x="150.66" y="159.51" width="15.87" height="11.91" rx="2.35" ry="2.35"/><rect class="cls-4" x="132.87" y="159.51" width="15.87" height="11.91" rx="2.35" ry="2.35"/><rect class="cls-4" x="115.09" y="159.51" width="15.87" height="11.91" rx="2.35" ry="2.35"/><rect class="cls-4" x="286.18" y="144.41" width="15.87" height="11.91" rx="2.39" ry="2.39"/><rect class="cls-4" x="268.39" y="144.41" width="15.87" height="11.91" rx="2.39" ry="2.39"/><rect class="cls-4" x="250.6" y="144.41" width="15.87" height="11.91" rx="2.39" ry="2.39"/><rect class="cls-4" x="232.81" y="144.41" width="15.87" height="11.91" rx="2.39" ry="2.39"/><rect class="cls-4" x="215.02" y="144.41" width="15.87" height="11.91" rx="2.39" ry="2.39"/><rect class="cls-4" x="197.23" y="144.41" width="15.87" height="11.91" rx="2.39" ry="2.39"/><rect class="cls-4" x="179.44" y="144.41" width="15.87" height="11.91" rx="2.39" ry="2.39"/><rect class="cls-4" x="161.66" y="144.41" width="15.87" height="11.91" rx="2.39" ry="2.39"/><rect class="cls-4" x="143.87" y="144.41" width="15.87" height="11.91" rx="2.39" ry="2.39"/><rect class="cls-4" x="126.08" y="144.41" width="15.87" height="11.91" rx="2.39" ry="2.39"/><rect class="cls-4" x="108.29" y="144.41" width="15.87" height="11.91" rx="2.39" ry="2.39"/><rect class="cls-4" x="292.98" y="129.18" width="15.87" height="11.91" rx="2.35" ry="2.35"/><rect class="cls-4" x="275.19" y="129.18" width="15.87" height="11.91" rx="2.35" ry="2.35"/><rect class="cls-4" x="257.4" y="129.18" width="15.87" height="11.91" rx="2.35" ry="2.35"/><rect class="cls-4" x="239.61" y="129.18" width="15.87" height="11.91" rx="2.35" ry="2.35"/><rect class="cls-4" x="221.82" y="129.18" width="15.87" height="11.91" rx="2.35" ry="2.35"/><rect class="cls-4" x="204.03" y="129.18" width="15.87" height="11.91" rx="2.35" ry="2.35"/><rect class="cls-4" x="186.24" y="129.18" width="15.87" height="11.91" rx="2.35" ry="2.35"/><rect class="cls-4" x="168.45" y="129.18" width="15.87" height="11.91" rx="2.35" ry="2.35"/><rect class="cls-4" x="150.66" y="129.18" width="15.87" height="11.91" rx="2.35" ry="2.35"/><rect class="cls-4" x="132.87" y="129.18" width="15.87" height="11.91" rx="2.35" ry="2.35"/><rect class="cls-4" x="115.09" y="129.18" width="15.87" height="11.91" rx="2.35" ry="2.35"/><rect class="cls-4" x="97.3" y="129.18" width="15.87" height="11.91" rx="2.35" ry="2.35"/><rect class="cls-4" x="79.51" y="129.18" width="15.87" height="11.91" rx="2.35" ry="2.35"/><path class="cls-7" d="M73.5,88.48H342.15a0,0,0,0,1,0,0v8.14A1.43,1.43,0,0,1,340.72,98H74.93a1.43,1.43,0,0,1-1.43-1.43V88.48A0,0,0,0,1,73.5,88.48Z"/></g></g></svg>